<?xml version="1.0" encoding="UTF-8" standalone="no"?>
<!DOCTYPE svg PUBLIC "-//W3C//DTD SVG 1.1//EN" "http://www.w3.org/Graphics/SVG/1.1/DTD/svg11.dtd">
<!-- Created with matplotlib (https://matplotlib.org/) -->
<svg height="252.317344pt" version="1.1" viewBox="0 0 360.859813 252.317344" width="360.859813pt" xmlns="http://www.w3.org/2000/svg" xmlns:xlink="http://www.w3.org/1999/xlink">
 <defs>
  <style type="text/css">
*{stroke-linecap:butt;stroke-linejoin:round;}
  </style>
 </defs>
 <g id="figure_1">
  <g id="patch_1">
   <path d="M 0 252.317344  L 360.859813 252.317344  L 360.859813 0  L 0 0  z " style="fill:none;"/>
  </g>
  <g id="axes_1">
   <g id="patch_2">
    <path d="M 28.942188 228.439219  L 296.782188 228.439219  L 296.782188 10.999219  L 28.942188 10.999219  z " style="fill:#ffffff;"/>
   </g>
   <g id="matplotlib.axis_1">
    <g id="xtick_1">
     <g id="line2d_1">
      <defs>
       <path d="M 0 0  L 0 3.5  " id="mbf9d36f539" style="stroke:#000000;stroke-width:0.8;"/>
      </defs>
      <g>
       <use style="stroke:#000000;stroke-width:0.8;" x="28.942188" xlink:href="#mbf9d36f539" y="228.439219"/>
      </g>
     </g>
     <g id="text_1">
      <!-- −3 -->
      <defs>
       <path d="M 10.59375 35.5  L 73.1875 35.5  L 73.1875 27.203125  L 10.59375 27.203125  z " id="DejaVuSans-8722"/>
       <path d="M 40.578125 39.3125  Q 47.65625 37.796875 51.625 33  Q 55.609375 28.21875 55.609375 21.1875  Q 55.609375 10.40625 48.1875 4.484375  Q 40.765625 -1.421875 27.09375 -1.421875  Q 22.515625 -1.421875 17.65625 -0.515625  Q 12.796875 0.390625 7.625 2.203125  L 7.625 11.71875  Q 11.71875 9.328125 16.59375 8.109375  Q 21.484375 6.890625 26.8125 6.890625  Q 36.078125 6.890625 40.9375 10.546875  Q 45.796875 14.203125 45.796875 21.1875  Q 45.796875 27.640625 41.28125 31.265625  Q 36.765625 34.90625 28.71875 34.90625  L 20.21875 34.90625  L 20.21875 43.015625  L 29.109375 43.015625  Q 36.375 43.015625 40.234375 45.921875  Q 44.09375 48.828125 44.09375 54.296875  Q 44.09375 59.90625 40.109375 62.90625  Q 36.140625 65.921875 28.71875 65.921875  Q 24.65625 65.921875 20.015625 65.03125  Q 15.375 64.15625 9.8125 62.3125  L 9.8125 71.09375  Q 15.4375 72.65625 20.34375 73.4375  Q 25.25 74.21875 29.59375 74.21875  Q 40.828125 74.21875 47.359375 69.109375  Q 53.90625 64.015625 53.90625 55.328125  Q 53.90625 49.265625 50.4375 45.09375  Q 46.96875 40.921875 40.578125 39.3125  z " id="DejaVuSans-51"/>
      </defs>
      <g transform="translate(21.571094 243.037656)scale(0.1 -0.1)">
       <use xlink:href="#DejaVuSans-8722"/>
       <use x="83.789062" xlink:href="#DejaVuSans-51"/>
      </g>
     </g>
    </g>
    <g id="xtick_2">
     <g id="line2d_2">
      <g>
       <use style="stroke:#000000;stroke-width:0.8;" x="73.768966" xlink:href="#mbf9d36f539" y="228.439219"/>
      </g>
     </g>
     <g id="text_2">
      <!-- −2 -->
      <defs>
       <path d="M 19.1875 8.296875  L 53.609375 8.296875  L 53.609375 0  L 7.328125 0  L 7.328125 8.296875  Q 12.9375 14.109375 22.625 23.890625  Q 32.328125 33.6875 34.8125 36.53125  Q 39.546875 41.84375 41.421875 45.53125  Q 43.3125 49.21875 43.3125 52.78125  Q 43.3125 58.59375 39.234375 62.25  Q 35.15625 65.921875 28.609375 65.921875  Q 23.96875 65.921875 18.8125 64.3125  Q 13.671875 62.703125 7.8125 59.421875  L 7.8125 69.390625  Q 13.765625 71.78125 18.9375 73  Q 24.125 74.21875 28.421875 74.21875  Q 39.75 74.21875 46.484375 68.546875  Q 53.21875 62.890625 53.21875 53.421875  Q 53.21875 48.921875 51.53125 44.890625  Q 49.859375 40.875 45.40625 35.40625  Q 44.1875 33.984375 37.640625 27.21875  Q 31.109375 20.453125 19.1875 8.296875  z " id="DejaVuSans-50"/>
      </defs>
      <g transform="translate(66.397872 243.037656)scale(0.1 -0.1)">
       <use xlink:href="#DejaVuSans-8722"/>
       <use x="83.789062" xlink:href="#DejaVuSans-50"/>
      </g>
     </g>
    </g>
    <g id="xtick_3">
     <g id="line2d_3">
      <g>
       <use style="stroke:#000000;stroke-width:0.8;" x="118.595744" xlink:href="#mbf9d36f539" y="228.439219"/>
      </g>
     </g>
     <g id="text_3">
      <!-- −1 -->
      <defs>
       <path d="M 12.40625 8.296875  L 28.515625 8.296875  L 28.515625 63.921875  L 10.984375 60.40625  L 10.984375 69.390625  L 28.421875 72.90625  L 38.28125 72.90625  L 38.28125 8.296875  L 54.390625 8.296875  L 54.390625 0  L 12.40625 0  z " id="DejaVuSans-49"/>
      </defs>
      <g transform="translate(111.22465 243.037656)scale(0.1 -0.1)">
       <use xlink:href="#DejaVuSans-8722"/>
       <use x="83.789062" xlink:href="#DejaVuSans-49"/>
      </g>
     </g>
    </g>
    <g id="xtick_4">
     <g id="line2d_4">
      <g>
       <use style="stroke:#000000;stroke-width:0.8;" x="163.422522" xlink:href="#mbf9d36f539" y="228.439219"/>
      </g>
     </g>
     <g id="text_4">
      <!-- 0 -->
      <defs>
       <path d="M 31.78125 66.40625  Q 24.171875 66.40625 20.328125 58.90625  Q 16.5 51.421875 16.5 36.375  Q 16.5 21.390625 20.328125 13.890625  Q 24.171875 6.390625 31.78125 6.390625  Q 39.453125 6.390625 43.28125 13.890625  Q 47.125 21.390625 47.125 36.375  Q 47.125 51.421875 43.28125 58.90625  Q 39.453125 66.40625 31.78125 66.40625  z M 31.78125 74.21875  Q 44.046875 74.21875 50.515625 64.515625  Q 56.984375 54.828125 56.984375 36.375  Q 56.984375 17.96875 50.515625 8.265625  Q 44.046875 -1.421875 31.78125 -1.421875  Q 19.53125 -1.421875 13.0625 8.265625  Q 6.59375 17.96875 6.59375 36.375  Q 6.59375 54.828125 13.0625 64.515625  Q 19.53125 74.21875 31.78125 74.21875  z " id="DejaVuSans-48"/>
      </defs>
      <g transform="translate(160.241272 243.037656)scale(0.1 -0.1)">
       <use xlink:href="#DejaVuSans-48"/>
      </g>
     </g>
    </g>
    <g id="xtick_5">
     <g id="line2d_5">
      <g>
       <use style="stroke:#000000;stroke-width:0.8;" x="208.2493" xlink:href="#mbf9d36f539" y="228.439219"/>
      </g>
     </g>
     <g id="text_5">
      <!-- 1 -->
      <g transform="translate(205.06805 243.037656)scale(0.1 -0.1)">
       <use xlink:href="#DejaVuSans-49"/>
      </g>
     </g>
    </g>
    <g id="xtick_6">
     <g id="line2d_6">
      <g>
       <use style="stroke:#000000;stroke-width:0.8;" x="253.076079" xlink:href="#mbf9d36f539" y="228.439219"/>
      </g>
     </g>
     <g id="text_6">
      <!-- 2 -->
      <g transform="translate(249.894829 243.037656)scale(0.1 -0.1)">
       <use xlink:href="#DejaVuSans-50"/>
      </g>
     </g>
    </g>
   </g>
   <g id="matplotlib.axis_2">
    <g id="ytick_1">
     <g id="line2d_7">
      <defs>
       <path d="M 0 0  L -3.5 0  " id="m1cb7bb0660" style="stroke:#000000;stroke-width:0.8;"/>
      </defs>
      <g>
       <use style="stroke:#000000;stroke-width:0.8;" x="28.942188" xlink:href="#m1cb7bb0660" y="228.439219"/>
      </g>
     </g>
     <g id="text_7">
      <!-- −3 -->
      <g transform="translate(7.2 232.238438)scale(0.1 -0.1)">
       <use xlink:href="#DejaVuSans-8722"/>
       <use x="83.789062" xlink:href="#DejaVuSans-51"/>
      </g>
     </g>
    </g>
    <g id="ytick_2">
     <g id="line2d_8">
      <g>
       <use style="stroke:#000000;stroke-width:0.8;" x="28.942188" xlink:href="#m1cb7bb0660" y="192.047587"/>
      </g>
     </g>
     <g id="text_8">
      <!-- −2 -->
      <g transform="translate(7.2 195.846806)scale(0.1 -0.1)">
       <use xlink:href="#DejaVuSans-8722"/>
       <use x="83.789062" xlink:href="#DejaVuSans-50"/>
      </g>
     </g>
    </g>
    <g id="ytick_3">
     <g id="line2d_9">
      <g>
       <use style="stroke:#000000;stroke-width:0.8;" x="28.942188" xlink:href="#m1cb7bb0660" y="155.655955"/>
      </g>
     </g>
     <g id="text_9">
      <!-- −1 -->
      <g transform="translate(7.2 159.455174)scale(0.1 -0.1)">
       <use xlink:href="#DejaVuSans-8722"/>
       <use x="83.789062" xlink:href="#DejaVuSans-49"/>
      </g>
     </g>
    </g>
    <g id="ytick_4">
     <g id="line2d_10">
      <g>
       <use style="stroke:#000000;stroke-width:0.8;" x="28.942188" xlink:href="#m1cb7bb0660" y="119.264323"/>
      </g>
     </g>
     <g id="text_10">
      <!-- 0 -->
      <g transform="translate(15.579688 123.063542)scale(0.1 -0.1)">
       <use xlink:href="#DejaVuSans-48"/>
      </g>
     </g>
    </g>
    <g id="ytick_5">
     <g id="line2d_11">
      <g>
       <use style="stroke:#000000;stroke-width:0.8;" x="28.942188" xlink:href="#m1cb7bb0660" y="82.872692"/>
      </g>
     </g>
     <g id="text_11">
      <!-- 1 -->
      <g transform="translate(15.579688 86.67191)scale(0.1 -0.1)">
       <use xlink:href="#DejaVuSans-49"/>
      </g>
     </g>
    </g>
    <g id="ytick_6">
     <g id="line2d_12">
      <g>
       <use style="stroke:#000000;stroke-width:0.8;" x="28.942188" xlink:href="#m1cb7bb0660" y="46.48106"/>
      </g>
     </g>
     <g id="text_12">
      <!-- 2 -->
      <g transform="translate(15.579688 50.280279)scale(0.1 -0.1)">
       <use xlink:href="#DejaVuSans-50"/>
      </g>
     </g>
    </g>
   </g>
   <g id="LineCollection_1"/>
   <g id="LineCollection_2">
    <path clip-path="url(#pd9a88ea079)" d="M 157.819175 176.624126  L 153.336497 176.217227  L 148.853819 175.575196  L 144.371141 174.686373  L 139.888464 173.538314  L 135.405786 172.117725  L 132.043777 170.856708  L 128.432731 169.302817  L 124.751305 167.483235  L 121.509485 165.663654  L 118.595744 163.834693  L 115.233736 161.457094  L 112.51211 159.295118  L 109.457089 156.565746  L 106.767688 153.836374  L 104.389924 151.107001  L 102.289489 148.377629  L 100.436932 145.648256  L 98.423694 142.205323  L 96.973416 139.279721  L 95.821147 136.550348  L 94.852129 133.820976  L 93.833432 130.181813  L 93.116203 126.54265  L 92.687984 122.903487  L 92.546797 119.264323  L 92.687984 115.62516  L 93.116203 111.985997  L 93.833432 108.346834  L 94.569684 105.617461  L 95.478463 102.888089  L 96.568468 100.158717  L 97.848991 97.429344  L 99.544363 94.336056  L 101.028493 91.9706  L 102.958739 89.241227  L 105.147711 86.511855  L 107.626767 83.782482  L 110.432552 81.05311  L 112.992397 78.834856  L 116.354405 76.245584  L 120.022051 73.774784  L 123.078422 71.955202  L 126.526636 70.13562  L 130.486237 68.316039  L 134.285116 66.812906  L 137.896162 65.586666  L 142.129803 64.383637  L 146.61248 63.367665  L 151.095158 62.602553  L 155.577836 62.078513  L 160.060514 61.789902  L 164.543192 61.732592  L 169.02587 61.904521  L 173.508547 62.31142  L 177.991225 62.953451  L 182.473903 63.842274  L 186.956581 64.990333  L 191.439259 66.410921  L 194.801267 67.671939  L 198.412313 69.22583  L 202.093739 71.045411  L 205.33556 72.864993  L 208.2493 74.693954  L 211.611309 77.071552  L 214.332935 79.233528  L 217.387956 81.962901  L 220.077356 84.692273  L 222.45512 87.421646  L 224.555555 90.151018  L 226.408113 92.88039  L 228.421351 96.323324  L 229.871629 99.248926  L 231.023897 101.978298  L 231.992915 104.707671  L 233.011613 108.346834  L 233.728841 111.985997  L 234.15706 115.62516  L 234.298247 119.264323  L 234.15706 122.903487  L 233.728841 126.54265  L 233.011613 130.181813  L 232.27536 132.911185  L 231.366581 135.640558  L 230.276577 138.36993  L 228.996053 141.099302  L 227.300681 144.192591  L 225.816551 146.558047  L 223.886305 149.28742  L 221.697334 152.016792  L 219.218277 154.746164  L 216.412493 157.475537  L 213.852648 159.693791  L 210.490639 162.283063  L 206.822994 164.753863  L 203.766623 166.573445  L 200.318409 168.393026  L 196.358808 170.212608  L 192.559928 171.71574  L 188.948882 172.94198  L 184.715242 174.145009  L 180.232564 175.160982  L 175.749886 175.926094  L 171.267208 176.450134  L 166.784531 176.738745  L 162.301853 176.796055  L 157.819175 176.624126  L 157.819175 176.624126  " style="fill:none;stroke:#472d7b;stroke-width:1.5;"/>
   </g>
   <g id="LineCollection_3">
    <path clip-path="url(#pd9a88ea079)" d="M 154.457167 200.311944  L 148.853819 199.773099  L 143.250472 198.972395  L 137.647125 197.90075  L 132.22716 196.596541  L 127.5611 195.250922  L 123.078422 193.755538  L 118.595744 192.047587  L 114.113066 190.110613  L 109.630388 187.926415  L 105.147711 185.471996  L 100.665033 182.71405  L 97.020503 180.220307  L 93.403095 177.490934  L 90.117052 174.761562  L 87.118838 172.032189  L 83.854991 168.751935  L 81.08 165.663654  L 78.141774 162.024491  L 75.532057 158.385328  L 73.219072 154.746164  L 71.181238 151.107001  L 69.286288 147.21429  L 67.864152 143.828675  L 66.55911 140.189512  L 65.476012 136.550348  L 64.607335 132.911185  L 63.948862 129.272022  L 63.495119 125.632859  L 63.24469 121.993696  L 63.194604 118.354533  L 63.344862 114.715369  L 63.695604 111.076206  L 64.252773 107.437043  L 65.014936 103.79788  L 65.989058 100.158717  L 67.182575 96.519553  L 68.603276 92.88039  L 70.406957 88.94249  L 72.167027 85.602064  L 74.339873 81.962901  L 76.798388 78.323738  L 79.372313 74.928436  L 81.868701 71.955202  L 84.97566 68.611106  L 88.088631 65.586666  L 91.178435 62.857294  L 94.569684 60.127922  L 98.423694 57.31886  L 102.906372 54.395603  L 107.389049 51.793261  L 111.871727 49.478018  L 116.421915 47.390851  L 120.911794 45.571269  L 126.072449 43.751687  L 130.923108 42.287409  L 135.886073 41.022315  L 141.009133 39.951361  L 146.61248 39.043392  L 152.215828 38.400884  L 157.819175 38.018481  L 163.422522 37.891415  L 169.02587 38.018481  L 174.629217 38.400884  L 180.232564 39.043392  L 185.835911 39.951361  L 190.958972 41.022315  L 195.921936 42.287409  L 200.772595 43.751687  L 204.887292 45.180561  L 209.36997 46.944538  L 213.852648 48.94043  L 218.335326 51.188769  L 222.891318 53.759386  L 227.300681 56.555167  L 231.070206 59.218131  L 234.571796 61.947503  L 237.757454 64.676876  L 240.748715 67.48676  L 244.164824 71.045411  L 247.277178 74.684574  L 249.71407 77.863843  L 251.955409 81.107917  L 254.196748 84.752926  L 256.13245 88.331436  L 257.850528 91.9706  L 259.328235 95.609763  L 260.577438 99.248926  L 261.605974 102.888089  L 262.421322 106.527252  L 263.029143 110.166415  L 263.431315 113.805579  L 263.631658 117.444742  L 263.631658 121.083905  L 263.431315 124.723068  L 263.029143 128.362231  L 262.421322 132.001394  L 261.605974 135.640558  L 260.577438 139.279721  L 259.328235 142.918884  L 257.850528 146.558047  L 256.13245 150.19721  L 254.161945 153.836374  L 251.919719 157.475537  L 249.384462 161.1147  L 246.532572 164.753863  L 244.110723 167.542755  L 240.666914 171.122399  L 237.386706 174.182604  L 234.024698 177.025293  L 230.66269 179.611499  L 227.201507 182.039888  L 222.818003 184.813182  L 218.03494 187.498633  L 213.852648 189.588217  L 209.36997 191.584109  L 204.887292 193.348085  L 200.404614 194.896812  L 195.921936 196.241238  L 190.958972 197.506332  L 185.835911 198.577285  L 180.232564 199.485255  L 174.629217 200.127763  L 169.02587 200.510166  L 163.422522 200.637232  L 157.819175 200.510166  L 154.457167 200.311944  L 154.457167 200.311944  " style="fill:none;stroke:#3b528b;stroke-width:1.5;"/>
   </g>
   <g id="LineCollection_4">
    <path clip-path="url(#pd9a88ea079)" d="M 152.215828 218.510452  L 146.61248 217.987106  L 141.009133 217.250908  L 135.405786 216.295861  L 129.802439 215.115742  L 124.199091 213.702366  L 118.595744 212.045058  L 112.992397 210.129108  L 107.389049 207.9386  L 102.299771 205.694449  L 97.303024 203.235555  L 92.820346 200.794793  L 88.337669 198.111106  L 83.854991 195.158309  L 79.560345 192.047587  L 76.010305 189.240912  L 71.892016 185.679051  L 68.165618 182.131522  L 65.443993 179.310516  L 62.215545 175.671353  L 59.200263 171.929344  L 56.612749 168.393026  L 54.194606 164.753863  L 52.008831 161.1147  L 50.041688 157.475537  L 47.874463 152.926583  L 46.01497 148.377629  L 44.63156 144.407633  L 43.396217 140.189512  L 42.328248 135.640558  L 41.52777 131.091604  L 40.988105 126.54265  L 40.706658 121.993696  L 40.681072 117.444742  L 40.911347 112.895788  L 41.398661 108.346834  L 42.147495 103.79788  L 43.161659 99.248926  L 44.447412 94.699972  L 45.752229 90.858633  L 47.479251 86.511855  L 49.13632 82.872692  L 51.355577 78.579297  L 53.625651 74.684574  L 55.984939 71.045411  L 58.588989 67.406248  L 61.453985 63.767085  L 64.80361 59.912628  L 68.165618 56.397125  L 71.892016 52.849595  L 76.010305 49.287735  L 79.560345 46.48106  L 83.854991 43.370338  L 88.337669 40.417541  L 92.820346 37.733853  L 97.303024 35.293092  L 102.299771 32.834198  L 107.389049 30.590047  L 112.992397 28.399539  L 117.475075 26.846609  L 123.078422 25.138335  L 128.681769 23.675925  L 134.285116 22.450623  L 139.888464 21.451234  L 145.491811 20.671511  L 151.201889 20.097127  L 156.698505 19.75232  L 162.301853 19.60692  L 167.9052 19.669234  L 173.508547 19.939263  L 179.111895 20.419956  L 184.715242 21.112707  L 190.318589 22.023491  L 195.921936 23.158508  L 201.980048 24.646081  L 207.128631 26.132812  L 212.731978 27.995559  L 218.277559 30.104825  L 222.818003 32.04349  L 228.294666 34.653779  L 232.904029 37.10167  L 237.386706 39.722614  L 241.869384 42.605028  L 246.069989 45.571269  L 249.71407 48.376946  L 253.939203 51.939805  L 257.558757 55.295061  L 260.920765 58.705091  L 264.282773 62.449708  L 266.857284 65.586666  L 269.886121 69.643165  L 272.127459 72.955071  L 274.368798 76.601983  L 276.803356 81.05311  L 278.970581 85.602064  L 280.830074 90.151018  L 282.213485 94.121014  L 283.448827 98.339135  L 284.516796 102.888089  L 285.317274 107.437043  L 285.85694 111.985997  L 286.138386 116.534951  L 286.163972 121.083905  L 285.933698 125.632859  L 285.446384 130.181813  L 284.697549 134.730767  L 283.683386 139.279721  L 282.397632 143.828675  L 281.092815 147.670014  L 279.365793 152.016792  L 277.708725 155.655955  L 275.489468 159.94935  L 273.219394 163.844072  L 270.860106 167.483235  L 268.256056 171.122399  L 265.39106 174.761562  L 262.041434 178.616019  L 258.679426 182.131522  L 254.953028 185.679051  L 250.83474 189.240912  L 247.2847 192.047587  L 242.990054 195.158309  L 238.507376 198.111106  L 234.024698 200.794793  L 229.54202 203.235555  L 224.545274 205.694449  L 219.455995 207.9386  L 213.852648 210.129108  L 209.36997 211.682038  L 203.766623 213.390312  L 198.163275 214.852722  L 192.559928 216.078024  L 186.956581 217.077413  L 181.353234 217.857136  L 175.643156 218.43152  L 170.146539 218.776327  L 164.543192 218.921727  L 158.939844 218.859412  L 153.336497 218.589383  L 152.215828 218.510452  L 152.215828 218.510452  " style="fill:none;stroke:#2c728e;stroke-width:1.5;"/>
   </g>
   <g id="LineCollection_5">
    <path clip-path="url(#pd9a88ea079)" d="M 118.595744 228.439219  L 112.992397 226.815415  L 107.389049 224.971862  L 101.785702 222.896308  L 96.182355 220.573404  L 90.579008 217.987106  L 86.072143 215.702148  L 80.492982 212.595545  L 76.010305 209.859371  L 71.120111 206.60424  L 67.044949 203.653567  L 62.562271 200.127763  L 58.079593 196.268155  L 54.545174 192.957378  L 50.959718 189.318215  L 47.657909 185.679051  L 44.615776 182.039888  L 41.151856 177.490934  L 38.033179 172.94198  L 35.666204 169.127536  L 33.213237 164.753863  L 30.94237 160.204909  L 28.942188 155.655955  L 28.942188 155.655955  " style="fill:none;stroke:#21918c;stroke-width:1.5;"/>
    <path clip-path="url(#pd9a88ea079)" d="M 296.782188 158.278293  L 295.027267 162.024491  L 292.643958 166.573445  L 290.058171 170.977476  L 287.603854 174.761562  L 284.350575 179.310516  L 281.092815 183.43361  L 277.570711 187.498633  L 274.129874 191.137796  L 270.390715 194.776959  L 266.322024 198.416123  L 261.881339 202.055286  L 257.015198 205.694449  L 253.047886 208.423821  L 248.593401 211.256273  L 244.110723 213.882566  L 238.507376 216.874297  L 232.904029 219.571846  L 227.122168 222.070683  L 221.697334 224.169897  L 216.093987 226.104734  L 210.490639 227.814927  L 208.2493 228.439219  L 208.2493 228.439219  " style="fill:none;stroke:#21918c;stroke-width:1.5;"/>
    <path clip-path="url(#pd9a88ea079)" d="M 28.942188 82.872692  L 30.94237 78.323738  L 33.213237 73.774784  L 35.666204 69.40111  L 38.033179 65.586666  L 41.151856 61.037712  L 43.89497 57.398549  L 46.872899 53.759386  L 50.234907 49.983457  L 53.619904 46.48106  L 57.439211 42.841897  L 61.59639 39.202733  L 66.138049 35.56357  L 70.406957 32.424554  L 75.189432 29.195035  L 79.59043 26.465662  L 84.97566 23.412905  L 90.579008 20.541541  L 96.182355 17.955243  L 102.001611 15.548173  L 107.389049 13.556785  L 112.992397 11.713232  L 115.365579 10.999219  L 115.365579 10.999219  " style="fill:none;stroke:#21918c;stroke-width:1.5;"/>
    <path clip-path="url(#pd9a88ea079)" d="M 211.479465 10.999219  L 216.093987 12.423912  L 221.697334 14.358749  L 227.300681 16.530747  L 232.904029 18.956801  L 237.386706 21.091549  L 242.990054 24.023592  L 247.472731 26.595632  L 251.955409 29.389  L 257.015198 32.834198  L 260.920765 35.727631  L 265.403443 39.332704  L 269.886121 43.283172  L 273.248129 46.503948  L 276.73711 50.120223  L 279.972146 53.759386  L 283.334154 57.89051  L 286.343075 61.947503  L 288.937501 65.781066  L 291.60949 70.13562  L 294.107972 74.684574  L 296.323517 79.233528  L 296.782188 80.250353  L 296.782188 80.250353  " style="fill:none;stroke:#21918c;stroke-width:1.5;"/>
   </g>
   <g id="LineCollection_6">
    <path clip-path="url(#pd9a88ea079)" d="M 79.560345 228.439219  L 79.372313 228.344052  L 78.251644 227.769247  L 77.790191 227.529428  L 77.130974 227.183938  L 76.068146 226.619637  L 76.010305 226.588666  L 74.889635 225.980848  L 74.396259 225.709846  L 73.768966 225.36233  L 72.766628 224.800056  L 72.648296 224.733101  L 71.527627 224.091128  L 71.181238 223.890265  L 70.406957 223.437356  L 69.635239 222.980474  L 69.286288 222.772064  L 68.165618 222.094731  L 68.126297 222.070683  L 67.044949 221.403503  L 66.656278 221.160892  L 65.92428 220.699877  L 65.219859 220.251102  L 64.80361 219.983516  L 63.815901 219.341311  L 63.682941 219.254071  L 62.562271 218.510452  L 62.444632 218.43152  L 61.441602 217.752321  L 61.104789 217.521729  L 60.320932 216.980086  L 59.793915 216.611938  L 59.200263 216.193349  L 58.511081 215.702148  L 58.079593 215.391698  L 57.255397 214.792357  L 56.958924 214.574704  L 56.026011 213.882566  L 55.838254 213.741922  L 54.822103 212.972775  L 54.717585 212.892891  L 53.642892 212.062984  L 53.596916 212.027131  L 52.487623 211.153194  L 52.476246 211.144141  L 51.355577 210.243403  L 51.355577 210.243403  L 50.246058 209.333612  L 50.234907 209.324376  L 49.158402 208.423821  L 49.114238 208.386497  L 48.091968 207.51403  L 47.993568 207.42918  L 47.046142 206.60424  L 46.872899 206.451814  L 46.020332 205.694449  L 45.752229 205.453763  L 45.013968 204.784658  L 44.63156 204.434364  L 44.026504 203.874867  L 43.51089 203.392924  L 43.05741 202.965076  L 42.390221 202.32872  L 42.10618 202.055286  L 41.269552 201.240998  L 41.172324 201.145495  L 40.256344 200.235704  L 40.148882 200.127763  L 39.357821 199.325913  L 39.028213 198.987991  L 38.475416 198.416123  L 37.907543 197.821866  L 37.608698 197.506332  L 36.786874 196.628463  L 36.757252 196.596541  L 35.922921 195.68675  L 35.666204 195.403462  L 35.103423 194.776959  L 34.545535 194.148377  L 34.298114 193.867169  L 33.507339 192.957378  L 33.424865 192.861313  L 32.732263 192.047587  L 32.304196 191.538333  L 31.970379 191.137796  L 31.221677 190.228005  L 31.183526 190.181048  L 30.488428 189.318215  L 30.062857 188.783044  L 29.76745 188.408424  L 29.059412 187.498633  L 28.942188 187.345984  " style="fill:none;stroke:#28ae80;stroke-width:1.5;"/>
    <path clip-path="url(#pd9a88ea079)" d="M 296.782188 188.783044  L 296.356617 189.318215  L 295.661518 190.181048  L 295.623368 190.228005  L 294.874665 191.137796  L 294.540849 191.538333  L 294.112782 192.047587  L 293.420179 192.861313  L 293.337706 192.957378  L 292.54693 193.867169  L 292.29951 194.148377  L 291.741622 194.776959  L 291.17884 195.403462  L 290.922123 195.68675  L 290.087792 196.596541  L 290.058171 196.628463  L 289.236346 197.506332  L 288.937501 197.821866  L 288.369628 198.416123  L 287.816832 198.987991  L 287.487223 199.325913  L 286.696162 200.127763  L 286.588701 200.235704  L 285.67272 201.145495  L 285.575493 201.240998  L 284.738864 202.055286  L 284.454823 202.32872  L 283.787634 202.965076  L 283.334154 203.392924  L 282.818541 203.874867  L 282.213485 204.434364  L 281.831076 204.784658  L 281.092815 205.453763  L 280.824712 205.694449  L 279.972146 206.451814  L 279.798902 206.60424  L 278.851476 207.42918  L 278.753076 207.51403  L 277.730807 208.386497  L 277.686642 208.423821  L 276.610137 209.324376  L 276.598986 209.333612  L 275.489468 210.243403  L 275.489468 210.243403  L 274.368798 211.144141  L 274.357421 211.153194  L 273.248129 212.027131  L 273.202153 212.062984  L 272.127459 212.892891  L 272.022941 212.972775  L 271.00679 213.741922  L 270.819034 213.882566  L 269.886121 214.574704  L 269.589647 214.792357  L 268.765451 215.391698  L 268.333963 215.702148  L 267.644782 216.193349  L 267.05113 216.611938  L 266.524112 216.980086  L 265.740256 217.521729  L 265.403443 217.752321  L 264.400413 218.43152  L 264.282773 218.510452  L 263.162104 219.254071  L 263.029143 219.341311  L 262.041434 219.983516  L 261.625186 220.251102  L 260.920765 220.699877  L 260.188767 221.160892  L 259.800095 221.403503  L 258.718748 222.070683  L 258.679426 222.094731  L 257.558757 222.772064  L 257.209806 222.980474  L 256.438087 223.437356  L 255.663806 223.890265  L 255.317418 224.091128  L 254.196748 224.733101  L 254.078417 224.800056  L 253.076079 225.36233  L 252.448786 225.709846  L 251.955409 225.980848  L 250.83474 226.588666  L 250.776899 226.619637  L 249.71407 227.183938  L 249.054853 227.529428  L 248.593401 227.769247  L 247.472731 228.344052  L 247.2847 228.439219  " style="fill:none;stroke:#28ae80;stroke-width:1.5;"/>
    <path clip-path="url(#pd9a88ea079)" d="M 28.942188 51.182663  L 29.059412 51.030014  L 29.76745 50.120223  L 30.062857 49.745603  L 30.488428 49.210432  L 31.183526 48.347598  L 31.221677 48.300641  L 31.970379 47.390851  L 32.304196 46.990314  L 32.732263 46.48106  L 33.424865 45.667334  L 33.507339 45.571269  L 34.298114 44.661478  L 34.545535 44.38027  L 35.103423 43.751687  L 35.666204 43.125185  L 35.922921 42.841897  L 36.757252 41.932106  L 36.786874 41.900183  L 37.608698 41.022315  L 37.907543 40.706781  L 38.475416 40.112524  L 39.028213 39.540656  L 39.357821 39.202733  L 40.148882 38.400884  L 40.256344 38.292943  L 41.172324 37.383152  L 41.269552 37.287649  L 42.10618 36.473361  L 42.390221 36.199927  L 43.05741 35.56357  L 43.51089 35.135723  L 44.026504 34.653779  L 44.63156 34.094282  L 45.013968 33.743989  L 45.752229 33.074883  L 46.020332 32.834198  L 46.872899 32.076833  L 47.046142 31.924407  L 47.993568 31.099467  L 48.091968 31.014616  L 49.114238 30.14215  L 49.158402 30.104825  L 50.234907 29.204271  L 50.246058 29.195035  L 51.355577 28.285244  L 51.355577 28.285244  L 52.476246 27.384506  L 52.487623 27.375453  L 53.596916 26.501516  L 53.642892 26.465662  L 54.717585 25.635756  L 54.822103 25.555871  L 55.838254 24.786725  L 56.026011 24.646081  L 56.958924 23.953943  L 57.255397 23.73629  L 58.079593 23.136949  L 58.511081 22.826499  L 59.200263 22.335297  L 59.793915 21.916708  L 60.320932 21.54856  L 61.104789 21.006917  L 61.441602 20.776325  L 62.444632 20.097127  L 62.562271 20.018195  L 63.682941 19.274576  L 63.815901 19.187336  L 64.80361 18.545131  L 65.219859 18.277545  L 65.92428 17.828769  L 66.656278 17.367754  L 67.044949 17.125143  L 68.126297 16.457964  L 68.165618 16.433916  L 69.286288 15.756583  L 69.635239 15.548173  L 70.406957 15.091291  L 71.181238 14.638382  L 71.527627 14.437519  L 72.648296 13.795545  L 72.766628 13.728591  L 73.768966 13.166317  L 74.396259 12.8188  L 74.889635 12.547799  L 76.010305 11.939981  L 76.068146 11.90901  L 77.130974 11.344709  L 77.790191 10.999219  " style="fill:none;stroke:#28ae80;stroke-width:1.5;"/>
    <path clip-path="url(#pd9a88ea079)" d="M 249.054853 10.999219  L 249.71407 11.344709  L 250.776899 11.90901  L 250.83474 11.939981  L 251.955409 12.547799  L 252.448786 12.8188  L 253.076079 13.166317  L 254.078417 13.728591  L 254.196748 13.795545  L 255.317418 14.437519  L 255.663806 14.638382  L 256.438087 15.091291  L 257.209806 15.548173  L 257.558757 15.756583  L 258.679426 16.433916  L 258.718748 16.457964  L 259.800095 17.125143  L 260.188767 17.367754  L 260.920765 17.828769  L 261.625186 18.277545  L 262.041434 18.545131  L 263.029143 19.187336  L 263.162104 19.274576  L 264.282773 20.018195  L 264.400413 20.097127  L 265.403443 20.776325  L 265.740256 21.006917  L 266.524112 21.54856  L 267.05113 21.916708  L 267.644782 22.335297  L 268.333963 22.826499  L 268.765451 23.136949  L 269.589647 23.73629  L 269.886121 23.953943  L 270.819034 24.646081  L 271.00679 24.786725  L 272.022941 25.555871  L 272.127459 25.635756  L 273.202153 26.465662  L 273.248129 26.501516  L 274.357421 27.375453  L 274.368798 27.384506  L 275.489468 28.285244  L 275.489468 28.285244  L 276.598986 29.195035  L 276.610137 29.204271  L 277.686642 30.104825  L 277.730807 30.14215  L 278.753076 31.014616  L 278.851476 31.099467  L 279.798902 31.924407  L 279.972146 32.076833  L 280.824712 32.834198  L 281.092815 33.074883  L 281.831076 33.743989  L 282.213485 34.094282  L 282.818541 34.653779  L 283.334154 35.135723  L 283.787634 35.56357  L 284.454823 36.199927  L 284.738864 36.473361  L 285.575493 37.287649  L 285.67272 37.383152  L 286.588701 38.292943  L 286.696162 38.400884  L 287.487223 39.202733  L 287.816832 39.540656  L 288.369628 40.112524  L 288.937501 40.706781  L 289.236346 41.022315  L 290.058171 41.900183  L 290.087792 41.932106  L 290.922123 42.841897  L 291.17884 43.125185  L 291.741622 43.751687  L 292.29951 44.38027  L 292.54693 44.661478  L 293.337706 45.571269  L 293.420179 45.667334  L 294.112782 46.48106  L 294.540849 46.990314  L 294.874665 47.390851  L 295.623368 48.300641  L 295.661518 48.347598  L 296.356617 49.210432  L 296.782188 49.745603  " style="fill:none;stroke:#28ae80;stroke-width:1.5;"/>
   </g>
   <g id="LineCollection_7">
    <path clip-path="url(#pd9a88ea079)" d="M 53.619904 228.439219  L 53.596916 228.423992  L 52.476246 227.674081  L 52.262249 227.529428  L 51.355577 226.911384  L 50.931841 226.619637  L 50.234907 226.135706  L 49.627648 225.709846  L 49.114238 225.346711  L 48.348902 224.800056  L 47.993568 224.544054  L 47.094867 223.890265  L 46.872899 223.727376  L 45.864832 222.980474  L 45.752229 222.896308  L 44.658116 222.070683  L 44.63156 222.050466  L 43.51089 221.189197  L 43.474404 221.160892  L 42.390221 220.312298  L 42.312755 220.251102  L 41.269552 219.419528  L 41.172324 219.341311  L 40.148882 218.510452  L 40.052535 218.43152  L 39.028213 217.584618  L 38.952831 217.521729  L 37.907543 216.64156  L 37.872678 216.611938  L 36.811777 215.702148  L 36.786874 215.680589  L 35.769879 214.792357  L 35.666204 214.700942  L 34.746179 213.882566  L 34.545535 213.702366  L 33.740205 212.972775  L 33.424865 212.684305  L 32.751502 212.062984  L 32.304196 211.646184  L 31.779627 211.153194  L 31.183526 210.587403  L 30.824156 210.243403  L 30.062857 209.507341  L 29.884675 209.333612  L 28.960943 208.423821  L 28.942188 208.405159  " style="fill:none;stroke:#5ec962;stroke-width:1.5;"/>
    <path clip-path="url(#pd9a88ea079)" d="M 296.782188 209.507341  L 296.020889 210.243403  L 295.661518 210.587403  L 295.065417 211.153194  L 294.540849 211.646184  L 294.093543 212.062984  L 293.420179 212.684305  L 293.104839 212.972775  L 292.29951 213.702366  L 292.098866 213.882566  L 291.17884 214.700942  L 291.075166 214.792357  L 290.058171 215.680589  L 290.033267 215.702148  L 288.972367 216.611938  L 288.937501 216.64156  L 287.892213 217.521729  L 287.816832 217.584618  L 286.79251 218.43152  L 286.696162 218.510452  L 285.67272 219.341311  L 285.575493 219.419528  L 284.532289 220.251102  L 284.454823 220.312298  L 283.370641 221.160892  L 283.334154 221.189197  L 282.213485 222.050466  L 282.186928 222.070683  L 281.092815 222.896308  L 280.980212 222.980474  L 279.972146 223.727376  L 279.750177 223.890265  L 278.851476 224.544054  L 278.496142 224.800056  L 277.730807 225.346711  L 277.217397 225.709846  L 276.610137 226.135706  L 275.913204 226.619637  L 275.489468 226.911384  L 274.582796 227.529428  L 274.368798 227.674081  L 273.248129 228.423992  L 273.225141 228.439219  " style="fill:none;stroke:#5ec962;stroke-width:1.5;"/>
    <path clip-path="url(#pd9a88ea079)" d="M 28.942188 30.123488  L 28.960943 30.104825  L 29.884675 29.195035  L 30.062857 29.021306  L 30.824156 28.285244  L 31.183526 27.941243  L 31.779627 27.375453  L 32.304196 26.882463  L 32.751502 26.465662  L 33.424865 25.844342  L 33.740205 25.555871  L 34.545535 24.826281  L 34.746179 24.646081  L 35.666204 23.827704  L 35.769879 23.73629  L 36.786874 22.848058  L 36.811777 22.826499  L 37.872678 21.916708  L 37.907543 21.887087  L 38.952831 21.006917  L 39.028213 20.944029  L 40.052535 20.097127  L 40.148882 20.018195  L 41.172324 19.187336  L 41.269552 19.109119  L 42.312755 18.277545  L 42.390221 18.216348  L 43.474404 17.367754  L 43.51089 17.33945  L 44.63156 16.478181  L 44.658116 16.457964  L 45.752229 15.632338  L 45.864832 15.548173  L 46.872899 14.80127  L 47.094867 14.638382  L 47.993568 13.984593  L 48.348902 13.728591  L 49.114238 13.181936  L 49.627648 12.8188  L 50.234907 12.392941  L 50.931841 11.90901  L 51.355577 11.617262  L 52.262249 10.999219  " style="fill:none;stroke:#5ec962;stroke-width:1.5;"/>
    <path clip-path="url(#pd9a88ea079)" d="M 274.582796 10.999219  L 275.489468 11.617262  L 275.913204 11.90901  L 276.610137 12.392941  L 277.217397 12.8188  L 277.730807 13.181936  L 278.496142 13.728591  L 278.851476 13.984593  L 279.750177 14.638382  L 279.972146 14.80127  L 280.980212 15.548173  L 281.092815 15.632338  L 282.186928 16.457964  L 282.213485 16.478181  L 283.334154 17.33945  L 283.370641 17.367754  L 284.454823 18.216348  L 284.532289 18.277545  L 285.575493 19.109119  L 285.67272 19.187336  L 286.696162 20.018195  L 286.79251 20.097127  L 287.816832 20.944029  L 287.892213 21.006917  L 288.937501 21.887087  L 288.972367 21.916708  L 290.033267 22.826499  L 290.058171 22.848058  L 291.075166 23.73629  L 291.17884 23.827704  L 292.098866 24.646081  L 292.29951 24.826281  L 293.104839 25.555871  L 293.420179 25.844342  L 294.093543 26.465662  L 294.540849 26.882463  L 295.065417 27.375453  L 295.661518 27.941243  L 296.020889 28.285244  L 296.782188 29.021306  " style="fill:none;stroke:#5ec962;stroke-width:1.5;"/>
   </g>
   <g id="LineCollection_8">
    <path clip-path="url(#pd9a88ea079)" d="M 32.732263 228.439219  L 32.304196 228.100426  L 31.588875 227.529428  L 31.183526 227.203132  L 30.464785 226.619637  L 30.062857 226.290564  L 29.359508 225.709846  L 28.942188 225.36233  " style="fill:none;stroke:#addc30;stroke-width:1.5;"/>
    <path clip-path="url(#pd9a88ea079)" d="M 296.782188 226.290564  L 296.38026 226.619637  L 295.661518 227.203132  L 295.25617 227.529428  L 294.540849 228.100426  L 294.112782 228.439219  " style="fill:none;stroke:#addc30;stroke-width:1.5;"/>
    <path clip-path="url(#pd9a88ea079)" d="M 28.942188 13.166317  L 29.359508 12.8188  L 30.062857 12.238083  L 30.464785 11.90901  L 31.183526 11.325515  L 31.588875 10.999219  " style="fill:none;stroke:#addc30;stroke-width:1.5;"/>
    <path clip-path="url(#pd9a88ea079)" d="M 295.25617 10.999219  L 295.661518 11.325515  L 296.38026 11.90901  L 296.782188 12.238083  " style="fill:none;stroke:#addc30;stroke-width:1.5;"/>
   </g>
   <g id="LineCollection_9"/>
   <g id="patch_3">
    <path d="M 28.942188 228.439219  L 28.942188 10.999219  " style="fill:none;stroke:#000000;stroke-linecap:square;stroke-linejoin:miter;stroke-width:0.8;"/>
   </g>
   <g id="patch_4">
    <path d="M 296.782188 228.439219  L 296.782188 10.999219  " style="fill:none;stroke:#000000;stroke-linecap:square;stroke-linejoin:miter;stroke-width:0.8;"/>
   </g>
   <g id="patch_5">
    <path d="M 28.942188 228.439219  L 296.782188 228.439219  " style="fill:none;stroke:#000000;stroke-linecap:square;stroke-linejoin:miter;stroke-width:0.8;"/>
   </g>
   <g id="patch_6">
    <path d="M 28.942188 10.999219  L 296.782188 10.999219  " style="fill:none;stroke:#000000;stroke-linecap:square;stroke-linejoin:miter;stroke-width:0.8;"/>
   </g>
  </g>
  <g id="axes_2">
   <g id="patch_7">
    <path clip-path="url(#pe5dd34bf88)" d="M 313.522188 228.439219  L 313.522188 201.259219  L 313.522188 38.179219  L 313.522188 10.999219  L 324.394188 10.999219  L 324.394188 38.179219  L 324.394188 201.259219  L 324.394188 228.439219  z " style="fill:#ffffff;stroke:#ffffff;stroke-linejoin:miter;stroke-width:0.01;"/>
   </g>
   <g id="matplotlib.axis_3"/>
   <g id="matplotlib.axis_4">
    <g id="ytick_7">
     <g id="line2d_13">
      <defs>
       <path d="M 0 0  L 3.5 0  " id="ma65a815713" style="stroke:#000000;stroke-width:0.8;"/>
      </defs>
      <g>
       <use style="stroke:#000000;stroke-width:0.8;" x="324.394188" xlink:href="#ma65a815713" y="228.439219"/>
      </g>
     </g>
     <g id="text_13">
      <!-- 0.0 -->
      <defs>
       <path d="M 10.6875 12.40625  L 21 12.40625  L 21 0  L 10.6875 0  z " id="DejaVuSans-46"/>
      </defs>
      <g transform="translate(331.394188 232.238437)scale(0.1 -0.1)">
       <use xlink:href="#DejaVuSans-48"/>
       <use x="63.623047" xlink:href="#DejaVuSans-46"/>
       <use x="95.410156" xlink:href="#DejaVuSans-48"/>
      </g>
     </g>
    </g>
    <g id="ytick_8">
     <g id="line2d_14">
      <g>
       <use style="stroke:#000000;stroke-width:0.8;" x="324.394188" xlink:href="#ma65a815713" y="201.259219"/>
      </g>
     </g>
     <g id="text_14">
      <!-- 2.5 -->
      <defs>
       <path d="M 10.796875 72.90625  L 49.515625 72.90625  L 49.515625 64.59375  L 19.828125 64.59375  L 19.828125 46.734375  Q 21.96875 47.46875 24.109375 47.828125  Q 26.265625 48.1875 28.421875 48.1875  Q 40.625 48.1875 47.75 41.5  Q 54.890625 34.8125 54.890625 23.390625  Q 54.890625 11.625 47.5625 5.09375  Q 40.234375 -1.421875 26.90625 -1.421875  Q 22.3125 -1.421875 17.546875 -0.640625  Q 12.796875 0.140625 7.71875 1.703125  L 7.71875 11.625  Q 12.109375 9.234375 16.796875 8.0625  Q 21.484375 6.890625 26.703125 6.890625  Q 35.15625 6.890625 40.078125 11.328125  Q 45.015625 15.765625 45.015625 23.390625  Q 45.015625 31 40.078125 35.4375  Q 35.15625 39.890625 26.703125 39.890625  Q 22.75 39.890625 18.8125 39.015625  Q 14.890625 38.140625 10.796875 36.28125  z " id="DejaVuSans-53"/>
      </defs>
      <g transform="translate(331.394188 205.058437)scale(0.1 -0.1)">
       <use xlink:href="#DejaVuSans-50"/>
       <use x="63.623047" xlink:href="#DejaVuSans-46"/>
       <use x="95.410156" xlink:href="#DejaVuSans-53"/>
      </g>
     </g>
    </g>
    <g id="ytick_9">
     <g id="line2d_15">
      <g>
       <use style="stroke:#000000;stroke-width:0.8;" x="324.394188" xlink:href="#ma65a815713" y="174.079219"/>
      </g>
     </g>
     <g id="text_15">
      <!-- 5.0 -->
      <g transform="translate(331.394188 177.878437)scale(0.1 -0.1)">
       <use xlink:href="#DejaVuSans-53"/>
       <use x="63.623047" xlink:href="#DejaVuSans-46"/>
       <use x="95.410156" xlink:href="#DejaVuSans-48"/>
      </g>
     </g>
    </g>
    <g id="ytick_10">
     <g id="line2d_16">
      <g>
       <use style="stroke:#000000;stroke-width:0.8;" x="324.394188" xlink:href="#ma65a815713" y="146.899219"/>
      </g>
     </g>
     <g id="text_16">
      <!-- 7.5 -->
      <defs>
       <path d="M 8.203125 72.90625  L 55.078125 72.90625  L 55.078125 68.703125  L 28.609375 0  L 18.3125 0  L 43.21875 64.59375  L 8.203125 64.59375  z " id="DejaVuSans-55"/>
      </defs>
      <g transform="translate(331.394188 150.698437)scale(0.1 -0.1)">
       <use xlink:href="#DejaVuSans-55"/>
       <use x="63.623047" xlink:href="#DejaVuSans-46"/>
       <use x="95.410156" xlink:href="#DejaVuSans-53"/>
      </g>
     </g>
    </g>
    <g id="ytick_11">
     <g id="line2d_17">
      <g>
       <use style="stroke:#000000;stroke-width:0.8;" x="324.394188" xlink:href="#ma65a815713" y="119.719219"/>
      </g>
     </g>
     <g id="text_17">
      <!-- 10.0 -->
      <g transform="translate(331.394188 123.518437)scale(0.1 -0.1)">
       <use xlink:href="#DejaVuSans-49"/>
       <use x="63.623047" xlink:href="#DejaVuSans-48"/>
       <use x="127.246094" xlink:href="#DejaVuSans-46"/>
       <use x="159.033203" xlink:href="#DejaVuSans-48"/>
      </g>
     </g>
    </g>
    <g id="ytick_12">
     <g id="line2d_18">
      <g>
       <use style="stroke:#000000;stroke-width:0.8;" x="324.394188" xlink:href="#ma65a815713" y="92.539219"/>
      </g>
     </g>
     <g id="text_18">
      <!-- 12.5 -->
      <g transform="translate(331.394188 96.338437)scale(0.1 -0.1)">
       <use xlink:href="#DejaVuSans-49"/>
       <use x="63.623047" xlink:href="#DejaVuSans-50"/>
       <use x="127.246094" xlink:href="#DejaVuSans-46"/>
       <use x="159.033203" xlink:href="#DejaVuSans-53"/>
      </g>
     </g>
    </g>
    <g id="ytick_13">
     <g id="line2d_19">
      <g>
       <use style="stroke:#000000;stroke-width:0.8;" x="324.394188" xlink:href="#ma65a815713" y="65.359219"/>
      </g>
     </g>
     <g id="text_19">
      <!-- 15.0 -->
      <g transform="translate(331.394188 69.158437)scale(0.1 -0.1)">
       <use xlink:href="#DejaVuSans-49"/>
       <use x="63.623047" xlink:href="#DejaVuSans-53"/>
       <use x="127.246094" xlink:href="#DejaVuSans-46"/>
       <use x="159.033203" xlink:href="#DejaVuSans-48"/>
      </g>
     </g>
    </g>
    <g id="ytick_14">
     <g id="line2d_20">
      <g>
       <use style="stroke:#000000;stroke-width:0.8;" x="324.394188" xlink:href="#ma65a815713" y="38.179219"/>
      </g>
     </g>
     <g id="text_20">
      <!-- 17.5 -->
      <g transform="translate(331.394188 41.978437)scale(0.1 -0.1)">
       <use xlink:href="#DejaVuSans-49"/>
       <use x="63.623047" xlink:href="#DejaVuSans-55"/>
       <use x="127.246094" xlink:href="#DejaVuSans-46"/>
       <use x="159.033203" xlink:href="#DejaVuSans-53"/>
      </g>
     </g>
    </g>
    <g id="ytick_15">
     <g id="line2d_21">
      <g>
       <use style="stroke:#000000;stroke-width:0.8;" x="324.394188" xlink:href="#ma65a815713" y="10.999219"/>
      </g>
     </g>
     <g id="text_21">
      <!-- 20.0 -->
      <g transform="translate(331.394188 14.798437)scale(0.1 -0.1)">
       <use xlink:href="#DejaVuSans-50"/>
       <use x="63.623047" xlink:href="#DejaVuSans-48"/>
       <use x="127.246094" xlink:href="#DejaVuSans-46"/>
       <use x="159.033203" xlink:href="#DejaVuSans-48"/>
      </g>
     </g>
    </g>
   </g>
   <g id="LineCollection_10">
    <path clip-path="url(#pe5dd34bf88)" d="M 313.522188 228.439219  L 324.394188 228.439219  " style="fill:none;stroke:#440154;stroke-width:1.5;"/>
    <path clip-path="url(#pe5dd34bf88)" d="M 313.522188 201.259219  L 324.394188 201.259219  " style="fill:none;stroke:#472d7b;stroke-width:1.5;"/>
    <path clip-path="url(#pe5dd34bf88)" d="M 313.522188 174.079219  L 324.394188 174.079219  " style="fill:none;stroke:#3b528b;stroke-width:1.5;"/>
    <path clip-path="url(#pe5dd34bf88)" d="M 313.522188 146.899219  L 324.394188 146.899219  " style="fill:none;stroke:#2c728e;stroke-width:1.5;"/>
    <path clip-path="url(#pe5dd34bf88)" d="M 313.522188 119.719219  L 324.394188 119.719219  " style="fill:none;stroke:#21918c;stroke-width:1.5;"/>
    <path clip-path="url(#pe5dd34bf88)" d="M 313.522188 92.539219  L 324.394188 92.539219  " style="fill:none;stroke:#28ae80;stroke-width:1.5;"/>
    <path clip-path="url(#pe5dd34bf88)" d="M 313.522188 65.359219  L 324.394188 65.359219  " style="fill:none;stroke:#5ec962;stroke-width:1.5;"/>
    <path clip-path="url(#pe5dd34bf88)" d="M 313.522188 38.179219  L 324.394188 38.179219  " style="fill:none;stroke:#addc30;stroke-width:1.5;"/>
    <path clip-path="url(#pe5dd34bf88)" d="M 313.522188 10.999219  L 324.394188 10.999219  " style="fill:none;stroke:#fde725;stroke-width:1.5;"/>
   </g>
   <g id="patch_8">
    <path d="M 313.522188 228.439219  L 313.522188 201.259219  L 313.522188 38.179219  L 313.522188 10.999219  L 324.394188 10.999219  L 324.394188 38.179219  L 324.394188 201.259219  L 324.394188 228.439219  z " style="fill:none;stroke:#000000;stroke-linejoin:miter;stroke-width:0.8;"/>
   </g>
  </g>
 </g>
 <defs>
  <clipPath id="pd9a88ea079">
   <rect height="217.44" width="267.84" x="28.942188" y="10.999219"/>
  </clipPath>
  <clipPath id="pe5dd34bf88">
   <rect height="217.44" width="10.872" x="313.522188" y="10.999219"/>
  </clipPath>
 </defs>
</svg>