<?xml version="1.0" encoding="UTF-8" standalone="no"?>
<!DOCTYPE svg PUBLIC "-//W3C//DTD SVG 1.1//EN" "http://www.w3.org/Graphics/SVG/1.1/DTD/svg11.dtd">
<!-- Created with matplotlib (https://matplotlib.org/) -->
<svg height="317.7555pt" version="1.1" viewBox="0 0 375.2875 317.7555" width="375.2875pt" xmlns="http://www.w3.org/2000/svg" xmlns:xlink="http://www.w3.org/1999/xlink">
 <defs>
  <style type="text/css">
*{stroke-linecap:butt;stroke-linejoin:round;}
  </style>
 </defs>
 <g id="figure_1">
  <g id="patch_1">
   <path d="M 0 317.7555  L 375.2875 317.7555  L 375.2875 0  L 0 0  z " style="fill:none;"/>
  </g>
  <g id="axes_1">
   <g id="patch_2">
    <path d="M 33.2875 293.877375  L 368.0875 293.877375  L 368.0875 76.437375  L 33.2875 76.437375  z " style="fill:#ffffff;"/>
   </g>
   <g id="patch_3">
    <path clip-path="url(#p2e0afb9885)" d="M 48.505682 293.877375  L 68.796591 293.877375  L 68.796591 286.61121  L 48.505682 286.61121  z " style="fill:#1f77b4;"/>
   </g>
   <g id="patch_4">
    <path clip-path="url(#p2e0afb9885)" d="M 68.796591 293.877375  L 89.0875 293.877375  L 89.0875 287.822237  L 68.796591 287.822237  z " style="fill:#1f77b4;"/>
   </g>
   <g id="patch_5">
    <path clip-path="url(#p2e0afb9885)" d="M 89.0875 293.877375  L 109.378409 293.877375  L 109.378409 274.500934  L 89.0875 274.500934  z " style="fill:#1f77b4;"/>
   </g>
   <g id="patch_6">
    <path clip-path="url(#p2e0afb9885)" d="M 109.378409 293.877375  L 129.669318 293.877375  L 129.669318 234.537024  L 109.378409 234.537024  z " style="fill:#1f77b4;"/>
   </g>
   <g id="patch_7">
    <path clip-path="url(#p2e0afb9885)" d="M 129.669318 293.877375  L 149.960227 293.877375  L 149.960227 205.472362  L 129.669318 205.472362  z " style="fill:#1f77b4;"/>
   </g>
   <g id="patch_8">
    <path clip-path="url(#p2e0afb9885)" d="M 149.960227 293.877375  L 170.251136 293.877375  L 170.251136 136.443791  L 149.960227 136.443791  z " style="fill:#1f77b4;"/>
   </g>
   <g id="patch_9">
    <path clip-path="url(#p2e0afb9885)" d="M 170.251136 293.877375  L 190.542045 293.877375  L 190.542045 91.635771  L 170.251136 91.635771  z " style="fill:#1f77b4;"/>
   </g>
   <g id="patch_10">
    <path clip-path="url(#p2e0afb9885)" d="M 190.542045 293.877375  L 210.832955 293.877375  L 210.832955 86.791661  L 190.542045 86.791661  z " style="fill:#1f77b4;"/>
   </g>
   <g id="patch_11">
    <path clip-path="url(#p2e0afb9885)" d="M 210.832955 293.877375  L 231.123864 293.877375  L 231.123864 113.434267  L 210.832955 113.434267  z " style="fill:#1f77b4;"/>
   </g>
   <g id="patch_12">
    <path clip-path="url(#p2e0afb9885)" d="M 231.123864 293.877375  L 251.414773 293.877375  L 251.414773 153.398177  L 231.123864 153.398177  z " style="fill:#1f77b4;"/>
   </g>
   <g id="patch_13">
    <path clip-path="url(#p2e0afb9885)" d="M 251.414773 293.877375  L 271.705682 293.877375  L 271.705682 217.582638  L 251.414773 217.582638  z " style="fill:#1f77b4;"/>
   </g>
   <g id="patch_14">
    <path clip-path="url(#p2e0afb9885)" d="M 271.705682 293.877375  L 291.996591 293.877375  L 291.996591 250.280383  L 271.705682 250.280383  z " style="fill:#1f77b4;"/>
   </g>
   <g id="patch_15">
    <path clip-path="url(#p2e0afb9885)" d="M 291.996591 293.877375  L 312.2875 293.877375  L 312.2875 282.978127  L 291.996591 282.978127  z " style="fill:#1f77b4;"/>
   </g>
   <g id="patch_16">
    <path clip-path="url(#p2e0afb9885)" d="M 312.2875 293.877375  L 332.578409 293.877375  L 332.578409 285.400182  L 312.2875 285.400182  z " style="fill:#1f77b4;"/>
   </g>
   <g id="patch_17">
    <path clip-path="url(#p2e0afb9885)" d="M 332.578409 293.877375  L 352.869318 293.877375  L 352.869318 290.244292  L 332.578409 290.244292  z " style="fill:#1f77b4;"/>
   </g>
   <g id="matplotlib.axis_1">
    <g id="xtick_1">
     <g id="line2d_1">
      <defs>
       <path d="M 0 0  L 0 3.5  " id="m16a30cfc3e" style="stroke:#000000;stroke-width:0.8;"/>
      </defs>
      <g>
       <use style="stroke:#000000;stroke-width:0.8;" x="58.493937" xlink:href="#m16a30cfc3e" y="293.877375"/>
      </g>
     </g>
     <g id="text_1">
      <!-- −3 -->
      <defs>
       <path d="M 10.59375 35.5  L 73.1875 35.5  L 73.1875 27.203125  L 10.59375 27.203125  z " id="DejaVuSans-8722"/>
       <path d="M 40.578125 39.3125  Q 47.65625 37.796875 51.625 33  Q 55.609375 28.21875 55.609375 21.1875  Q 55.609375 10.40625 48.1875 4.484375  Q 40.765625 -1.421875 27.09375 -1.421875  Q 22.515625 -1.421875 17.65625 -0.515625  Q 12.796875 0.390625 7.625 2.203125  L 7.625 11.71875  Q 11.71875 9.328125 16.59375 8.109375  Q 21.484375 6.890625 26.8125 6.890625  Q 36.078125 6.890625 40.9375 10.546875  Q 45.796875 14.203125 45.796875 21.1875  Q 45.796875 27.640625 41.28125 31.265625  Q 36.765625 34.90625 28.71875 34.90625  L 20.21875 34.90625  L 20.21875 43.015625  L 29.109375 43.015625  Q 36.375 43.015625 40.234375 45.921875  Q 44.09375 48.828125 44.09375 54.296875  Q 44.09375 59.90625 40.109375 62.90625  Q 36.140625 65.921875 28.71875 65.921875  Q 24.65625 65.921875 20.015625 65.03125  Q 15.375 64.15625 9.8125 62.3125  L 9.8125 71.09375  Q 15.4375 72.65625 20.34375 73.4375  Q 25.25 74.21875 29.59375 74.21875  Q 40.828125 74.21875 47.359375 69.109375  Q 53.90625 64.015625 53.90625 55.328125  Q 53.90625 49.265625 50.4375 45.09375  Q 46.96875 40.921875 40.578125 39.3125  z " id="DejaVuSans-51"/>
      </defs>
      <g transform="translate(51.122843 308.475812)scale(0.1 -0.1)">
       <use xlink:href="#DejaVuSans-8722"/>
       <use x="83.789062" xlink:href="#DejaVuSans-51"/>
      </g>
     </g>
    </g>
    <g id="xtick_2">
     <g id="line2d_2">
      <g>
       <use style="stroke:#000000;stroke-width:0.8;" x="104.251589" xlink:href="#m16a30cfc3e" y="293.877375"/>
      </g>
     </g>
     <g id="text_2">
      <!-- −2 -->
      <defs>
       <path d="M 19.1875 8.296875  L 53.609375 8.296875  L 53.609375 0  L 7.328125 0  L 7.328125 8.296875  Q 12.9375 14.109375 22.625 23.890625  Q 32.328125 33.6875 34.8125 36.53125  Q 39.546875 41.84375 41.421875 45.53125  Q 43.3125 49.21875 43.3125 52.78125  Q 43.3125 58.59375 39.234375 62.25  Q 35.15625 65.921875 28.609375 65.921875  Q 23.96875 65.921875 18.8125 64.3125  Q 13.671875 62.703125 7.8125 59.421875  L 7.8125 69.390625  Q 13.765625 71.78125 18.9375 73  Q 24.125 74.21875 28.421875 74.21875  Q 39.75 74.21875 46.484375 68.546875  Q 53.21875 62.890625 53.21875 53.421875  Q 53.21875 48.921875 51.53125 44.890625  Q 49.859375 40.875 45.40625 35.40625  Q 44.1875 33.984375 37.640625 27.21875  Q 31.109375 20.453125 19.1875 8.296875  z " id="DejaVuSans-50"/>
      </defs>
      <g transform="translate(96.880495 308.475812)scale(0.1 -0.1)">
       <use xlink:href="#DejaVuSans-8722"/>
       <use x="83.789062" xlink:href="#DejaVuSans-50"/>
      </g>
     </g>
    </g>
    <g id="xtick_3">
     <g id="line2d_3">
      <g>
       <use style="stroke:#000000;stroke-width:0.8;" x="150.009241" xlink:href="#m16a30cfc3e" y="293.877375"/>
      </g>
     </g>
     <g id="text_3">
      <!-- −1 -->
      <defs>
       <path d="M 12.40625 8.296875  L 28.515625 8.296875  L 28.515625 63.921875  L 10.984375 60.40625  L 10.984375 69.390625  L 28.421875 72.90625  L 38.28125 72.90625  L 38.28125 8.296875  L 54.390625 8.296875  L 54.390625 0  L 12.40625 0  z " id="DejaVuSans-49"/>
      </defs>
      <g transform="translate(142.638147 308.475812)scale(0.1 -0.1)">
       <use xlink:href="#DejaVuSans-8722"/>
       <use x="83.789062" xlink:href="#DejaVuSans-49"/>
      </g>
     </g>
    </g>
    <g id="xtick_4">
     <g id="line2d_4">
      <g>
       <use style="stroke:#000000;stroke-width:0.8;" x="195.766893" xlink:href="#m16a30cfc3e" y="293.877375"/>
      </g>
     </g>
     <g id="text_4">
      <!-- 0 -->
      <defs>
       <path d="M 31.78125 66.40625  Q 24.171875 66.40625 20.328125 58.90625  Q 16.5 51.421875 16.5 36.375  Q 16.5 21.390625 20.328125 13.890625  Q 24.171875 6.390625 31.78125 6.390625  Q 39.453125 6.390625 43.28125 13.890625  Q 47.125 21.390625 47.125 36.375  Q 47.125 51.421875 43.28125 58.90625  Q 39.453125 66.40625 31.78125 66.40625  z M 31.78125 74.21875  Q 44.046875 74.21875 50.515625 64.515625  Q 56.984375 54.828125 56.984375 36.375  Q 56.984375 17.96875 50.515625 8.265625  Q 44.046875 -1.421875 31.78125 -1.421875  Q 19.53125 -1.421875 13.0625 8.265625  Q 6.59375 17.96875 6.59375 36.375  Q 6.59375 54.828125 13.0625 64.515625  Q 19.53125 74.21875 31.78125 74.21875  z " id="DejaVuSans-48"/>
      </defs>
      <g transform="translate(192.585643 308.475812)scale(0.1 -0.1)">
       <use xlink:href="#DejaVuSans-48"/>
      </g>
     </g>
    </g>
    <g id="xtick_5">
     <g id="line2d_5">
      <g>
       <use style="stroke:#000000;stroke-width:0.8;" x="241.524545" xlink:href="#m16a30cfc3e" y="293.877375"/>
      </g>
     </g>
     <g id="text_5">
      <!-- 1 -->
      <g transform="translate(238.343295 308.475812)scale(0.1 -0.1)">
       <use xlink:href="#DejaVuSans-49"/>
      </g>
     </g>
    </g>
    <g id="xtick_6">
     <g id="line2d_6">
      <g>
       <use style="stroke:#000000;stroke-width:0.8;" x="287.282197" xlink:href="#m16a30cfc3e" y="293.877375"/>
      </g>
     </g>
     <g id="text_6">
      <!-- 2 -->
      <g transform="translate(284.100947 308.475812)scale(0.1 -0.1)">
       <use xlink:href="#DejaVuSans-50"/>
      </g>
     </g>
    </g>
    <g id="xtick_7">
     <g id="line2d_7">
      <g>
       <use style="stroke:#000000;stroke-width:0.8;" x="333.03985" xlink:href="#m16a30cfc3e" y="293.877375"/>
      </g>
     </g>
     <g id="text_7">
      <!-- 3 -->
      <g transform="translate(329.8586 308.475812)scale(0.1 -0.1)">
       <use xlink:href="#DejaVuSans-51"/>
      </g>
     </g>
    </g>
   </g>
   <g id="matplotlib.axis_2">
    <g id="ytick_1">
     <g id="line2d_8">
      <defs>
       <path d="M 0 0  L -3.5 0  " id="m704c454c7d" style="stroke:#000000;stroke-width:0.8;"/>
      </defs>
      <g>
       <use style="stroke:#000000;stroke-width:0.8;" x="33.2875" xlink:href="#m704c454c7d" y="293.877375"/>
      </g>
     </g>
     <g id="text_8">
      <!-- 0 -->
      <g transform="translate(19.925 297.676594)scale(0.1 -0.1)">
       <use xlink:href="#DejaVuSans-48"/>
      </g>
     </g>
    </g>
    <g id="ytick_2">
     <g id="line2d_9">
      <g>
       <use style="stroke:#000000;stroke-width:0.8;" x="33.2875" xlink:href="#m704c454c7d" y="269.656824"/>
      </g>
     </g>
     <g id="text_9">
      <!-- 20 -->
      <g transform="translate(13.5625 273.456042)scale(0.1 -0.1)">
       <use xlink:href="#DejaVuSans-50"/>
       <use x="63.623047" xlink:href="#DejaVuSans-48"/>
      </g>
     </g>
    </g>
    <g id="ytick_3">
     <g id="line2d_10">
      <g>
       <use style="stroke:#000000;stroke-width:0.8;" x="33.2875" xlink:href="#m704c454c7d" y="245.436272"/>
      </g>
     </g>
     <g id="text_10">
      <!-- 40 -->
      <defs>
       <path d="M 37.796875 64.3125  L 12.890625 25.390625  L 37.796875 25.390625  z M 35.203125 72.90625  L 47.609375 72.90625  L 47.609375 25.390625  L 58.015625 25.390625  L 58.015625 17.1875  L 47.609375 17.1875  L 47.609375 0  L 37.796875 0  L 37.796875 17.1875  L 4.890625 17.1875  L 4.890625 26.703125  z " id="DejaVuSans-52"/>
      </defs>
      <g transform="translate(13.5625 249.235491)scale(0.1 -0.1)">
       <use xlink:href="#DejaVuSans-52"/>
       <use x="63.623047" xlink:href="#DejaVuSans-48"/>
      </g>
     </g>
    </g>
    <g id="ytick_4">
     <g id="line2d_11">
      <g>
       <use style="stroke:#000000;stroke-width:0.8;" x="33.2875" xlink:href="#m704c454c7d" y="221.215721"/>
      </g>
     </g>
     <g id="text_11">
      <!-- 60 -->
      <defs>
       <path d="M 33.015625 40.375  Q 26.375 40.375 22.484375 35.828125  Q 18.609375 31.296875 18.609375 23.390625  Q 18.609375 15.53125 22.484375 10.953125  Q 26.375 6.390625 33.015625 6.390625  Q 39.65625 6.390625 43.53125 10.953125  Q 47.40625 15.53125 47.40625 23.390625  Q 47.40625 31.296875 43.53125 35.828125  Q 39.65625 40.375 33.015625 40.375  z M 52.59375 71.296875  L 52.59375 62.3125  Q 48.875 64.0625 45.09375 64.984375  Q 41.3125 65.921875 37.59375 65.921875  Q 27.828125 65.921875 22.671875 59.328125  Q 17.53125 52.734375 16.796875 39.40625  Q 19.671875 43.65625 24.015625 45.921875  Q 28.375 48.1875 33.59375 48.1875  Q 44.578125 48.1875 50.953125 41.515625  Q 57.328125 34.859375 57.328125 23.390625  Q 57.328125 12.15625 50.6875 5.359375  Q 44.046875 -1.421875 33.015625 -1.421875  Q 20.359375 -1.421875 13.671875 8.265625  Q 6.984375 17.96875 6.984375 36.375  Q 6.984375 53.65625 15.1875 63.9375  Q 23.390625 74.21875 37.203125 74.21875  Q 40.921875 74.21875 44.703125 73.484375  Q 48.484375 72.75 52.59375 71.296875  z " id="DejaVuSans-54"/>
      </defs>
      <g transform="translate(13.5625 225.01494)scale(0.1 -0.1)">
       <use xlink:href="#DejaVuSans-54"/>
       <use x="63.623047" xlink:href="#DejaVuSans-48"/>
      </g>
     </g>
    </g>
    <g id="ytick_5">
     <g id="line2d_12">
      <g>
       <use style="stroke:#000000;stroke-width:0.8;" x="33.2875" xlink:href="#m704c454c7d" y="196.995169"/>
      </g>
     </g>
     <g id="text_12">
      <!-- 80 -->
      <defs>
       <path d="M 31.78125 34.625  Q 24.75 34.625 20.71875 30.859375  Q 16.703125 27.09375 16.703125 20.515625  Q 16.703125 13.921875 20.71875 10.15625  Q 24.75 6.390625 31.78125 6.390625  Q 38.8125 6.390625 42.859375 10.171875  Q 46.921875 13.96875 46.921875 20.515625  Q 46.921875 27.09375 42.890625 30.859375  Q 38.875 34.625 31.78125 34.625  z M 21.921875 38.8125  Q 15.578125 40.375 12.03125 44.71875  Q 8.5 49.078125 8.5 55.328125  Q 8.5 64.0625 14.71875 69.140625  Q 20.953125 74.21875 31.78125 74.21875  Q 42.671875 74.21875 48.875 69.140625  Q 55.078125 64.0625 55.078125 55.328125  Q 55.078125 49.078125 51.53125 44.71875  Q 48 40.375 41.703125 38.8125  Q 48.828125 37.15625 52.796875 32.3125  Q 56.78125 27.484375 56.78125 20.515625  Q 56.78125 9.90625 50.3125 4.234375  Q 43.84375 -1.421875 31.78125 -1.421875  Q 19.734375 -1.421875 13.25 4.234375  Q 6.78125 9.90625 6.78125 20.515625  Q 6.78125 27.484375 10.78125 32.3125  Q 14.796875 37.15625 21.921875 38.8125  z M 18.3125 54.390625  Q 18.3125 48.734375 21.84375 45.5625  Q 25.390625 42.390625 31.78125 42.390625  Q 38.140625 42.390625 41.71875 45.5625  Q 45.3125 48.734375 45.3125 54.390625  Q 45.3125 60.0625 41.71875 63.234375  Q 38.140625 66.40625 31.78125 66.40625  Q 25.390625 66.40625 21.84375 63.234375  Q 18.3125 60.0625 18.3125 54.390625  z " id="DejaVuSans-56"/>
      </defs>
      <g transform="translate(13.5625 200.794388)scale(0.1 -0.1)">
       <use xlink:href="#DejaVuSans-56"/>
       <use x="63.623047" xlink:href="#DejaVuSans-48"/>
      </g>
     </g>
    </g>
    <g id="ytick_6">
     <g id="line2d_13">
      <g>
       <use style="stroke:#000000;stroke-width:0.8;" x="33.2875" xlink:href="#m704c454c7d" y="172.774618"/>
      </g>
     </g>
     <g id="text_13">
      <!-- 100 -->
      <g transform="translate(7.2 176.573837)scale(0.1 -0.1)">
       <use xlink:href="#DejaVuSans-49"/>
       <use x="63.623047" xlink:href="#DejaVuSans-48"/>
       <use x="127.246094" xlink:href="#DejaVuSans-48"/>
      </g>
     </g>
    </g>
    <g id="ytick_7">
     <g id="line2d_14">
      <g>
       <use style="stroke:#000000;stroke-width:0.8;" x="33.2875" xlink:href="#m704c454c7d" y="148.554067"/>
      </g>
     </g>
     <g id="text_14">
      <!-- 120 -->
      <g transform="translate(7.2 152.353285)scale(0.1 -0.1)">
       <use xlink:href="#DejaVuSans-49"/>
       <use x="63.623047" xlink:href="#DejaVuSans-50"/>
       <use x="127.246094" xlink:href="#DejaVuSans-48"/>
      </g>
     </g>
    </g>
    <g id="ytick_8">
     <g id="line2d_15">
      <g>
       <use style="stroke:#000000;stroke-width:0.8;" x="33.2875" xlink:href="#m704c454c7d" y="124.333515"/>
      </g>
     </g>
     <g id="text_15">
      <!-- 140 -->
      <g transform="translate(7.2 128.132734)scale(0.1 -0.1)">
       <use xlink:href="#DejaVuSans-49"/>
       <use x="63.623047" xlink:href="#DejaVuSans-52"/>
       <use x="127.246094" xlink:href="#DejaVuSans-48"/>
      </g>
     </g>
    </g>
    <g id="ytick_9">
     <g id="line2d_16">
      <g>
       <use style="stroke:#000000;stroke-width:0.8;" x="33.2875" xlink:href="#m704c454c7d" y="100.112964"/>
      </g>
     </g>
     <g id="text_16">
      <!-- 160 -->
      <g transform="translate(7.2 103.912183)scale(0.1 -0.1)">
       <use xlink:href="#DejaVuSans-49"/>
       <use x="63.623047" xlink:href="#DejaVuSans-54"/>
       <use x="127.246094" xlink:href="#DejaVuSans-48"/>
      </g>
     </g>
    </g>
   </g>
   <g id="patch_18">
    <path d="M 33.2875 293.877375  L 33.2875 76.437375  " style="fill:none;stroke:#000000;stroke-linecap:square;stroke-linejoin:miter;stroke-width:0.8;"/>
   </g>
   <g id="patch_19">
    <path d="M 368.0875 293.877375  L 368.0875 76.437375  " style="fill:none;stroke:#000000;stroke-linecap:square;stroke-linejoin:miter;stroke-width:0.8;"/>
   </g>
   <g id="patch_20">
    <path d="M 33.2875 293.877375  L 368.0875 293.877375  " style="fill:none;stroke:#000000;stroke-linecap:square;stroke-linejoin:miter;stroke-width:0.8;"/>
   </g>
   <g id="patch_21">
    <path d="M 33.2875 76.437375  L 368.0875 76.437375  " style="fill:none;stroke:#000000;stroke-linecap:square;stroke-linejoin:miter;stroke-width:0.8;"/>
   </g>
   <g id="text_17">
    <!-- HISTOGRAM -->
    <defs>
     <path d="M 6.6875 72.90625  L 16.609375 72.90625  L 16.609375 43.015625  L 43.609375 43.015625  L 43.609375 72.90625  L 53.515625 72.90625  L 53.515625 0  L 43.609375 0  L 43.609375 34.71875  L 16.609375 34.71875  L 16.609375 0  L 6.6875 0  z " id="DejaVuSansMono-72"/>
     <path d="M 9.8125 72.90625  L 50.296875 72.90625  L 50.296875 64.59375  L 35.015625 64.59375  L 35.015625 8.296875  L 50.296875 8.296875  L 50.296875 0  L 9.8125 0  L 9.8125 8.296875  L 25.09375 8.296875  L 25.09375 64.59375  L 9.8125 64.59375  z " id="DejaVuSansMono-73"/>
     <path d="M 49.421875 70.40625  L 49.421875 60.40625  Q 44.921875 63.28125 40.40625 64.75  Q 35.890625 66.21875 31.296875 66.21875  Q 24.3125 66.21875 20.265625 62.96875  Q 16.21875 59.71875 16.21875 54.203125  Q 16.21875 49.359375 18.875 46.8125  Q 21.53125 44.28125 28.8125 42.578125  L 33.984375 41.40625  Q 44.234375 39.015625 48.921875 33.890625  Q 53.609375 28.765625 53.609375 19.921875  Q 53.609375 9.515625 47.15625 4.046875  Q 40.71875 -1.421875 28.421875 -1.421875  Q 23.296875 -1.421875 18.109375 -0.3125  Q 12.9375 0.78125 7.71875 2.984375  L 7.71875 13.484375  Q 13.328125 9.90625 18.328125 8.25  Q 23.34375 6.59375 28.421875 6.59375  Q 35.890625 6.59375 40.03125 9.9375  Q 44.1875 13.28125 44.1875 19.28125  Q 44.1875 24.75 41.328125 27.625  Q 38.484375 30.515625 31.390625 32.078125  L 26.125 33.296875  Q 15.96875 35.59375 11.375 40.234375  Q 6.78125 44.875 6.78125 52.6875  Q 6.78125 62.453125 13.34375 68.328125  Q 19.921875 74.21875 30.8125 74.21875  Q 35.015625 74.21875 39.640625 73.265625  Q 44.28125 72.3125 49.421875 70.40625  z " id="DejaVuSansMono-83"/>
     <path d="M 2.296875 72.90625  L 57.90625 72.90625  L 57.90625 64.59375  L 35.109375 64.59375  L 35.109375 0  L 25.203125 0  L 25.203125 64.59375  L 2.296875 64.59375  z " id="DejaVuSansMono-84"/>
     <path d="M 44.1875 36.375  Q 44.1875 52.4375 40.890625 59.328125  Q 37.59375 66.21875 30.078125 66.21875  Q 22.609375 66.21875 19.3125 59.328125  Q 16.015625 52.4375 16.015625 36.375  Q 16.015625 20.359375 19.3125 13.46875  Q 22.609375 6.59375 30.078125 6.59375  Q 37.59375 6.59375 40.890625 13.453125  Q 44.1875 20.3125 44.1875 36.375  z M 54.5 36.375  Q 54.5 17.328125 48.46875 7.953125  Q 42.4375 -1.421875 30.078125 -1.421875  Q 17.71875 -1.421875 11.71875 7.90625  Q 5.71875 17.234375 5.71875 36.375  Q 5.71875 55.46875 11.75 64.84375  Q 17.78125 74.21875 30.078125 74.21875  Q 42.4375 74.21875 48.46875 64.84375  Q 54.5 55.46875 54.5 36.375  z " id="DejaVuSansMono-79"/>
     <path d="M 53.90625 6  Q 49.953125 2.34375 45 0.453125  Q 40.046875 -1.421875 34.28125 -1.421875  Q 20.40625 -1.421875 12.6875 8.515625  Q 4.984375 18.453125 4.984375 36.375  Q 4.984375 54.25 12.796875 64.234375  Q 20.609375 74.21875 34.515625 74.21875  Q 39.109375 74.21875 43.3125 72.921875  Q 47.515625 71.625 51.421875 69  L 51.421875 58.890625  Q 47.46875 62.640625 43.3125 64.421875  Q 39.15625 66.21875 34.515625 66.21875  Q 24.90625 66.21875 20.09375 58.765625  Q 15.28125 51.3125 15.28125 36.375  Q 15.28125 21.1875 19.9375 13.890625  Q 24.609375 6.59375 34.28125 6.59375  Q 37.546875 6.59375 40.015625 7.34375  Q 42.484375 8.109375 44.484375 9.71875  L 44.484375 29.296875  L 33.890625 29.296875  L 33.890625 37.40625  L 53.90625 37.40625  z " id="DejaVuSansMono-71"/>
     <path d="M 37.109375 34.421875  Q 40.921875 33.453125 43.609375 30.734375  Q 46.296875 28.03125 50.296875 19.921875  L 60.203125 0  L 49.609375 0  L 40.921875 18.40625  Q 37.15625 26.265625 34.15625 28.53125  Q 31.15625 30.8125 26.3125 30.8125  L 16.890625 30.8125  L 16.890625 0  L 6.984375 0  L 6.984375 72.90625  L 27.296875 72.90625  Q 39.3125 72.90625 45.703125 67.484375  Q 52.09375 62.0625 52.09375 51.8125  Q 52.09375 44.578125 48.15625 40.015625  Q 44.234375 35.453125 37.109375 34.421875  z M 16.890625 64.796875  L 16.890625 38.921875  L 27.6875 38.921875  Q 34.765625 38.921875 38.234375 42.09375  Q 41.703125 45.265625 41.703125 51.8125  Q 41.703125 58.109375 38.015625 61.453125  Q 34.328125 64.796875 27.296875 64.796875  z " id="DejaVuSansMono-82"/>
     <path d="M 30.078125 64.203125  L 19.671875 26.90625  L 40.484375 26.90625  z M 24.125 72.90625  L 36.078125 72.90625  L 58.40625 0  L 48.1875 0  L 42.828125 19  L 17.28125 19  L 12.015625 0  L 1.8125 0  z " id="DejaVuSansMono-65"/>
     <path d="M 4.203125 72.90625  L 17.390625 72.90625  L 29.984375 35.796875  L 42.671875 72.90625  L 55.90625 72.90625  L 55.90625 0  L 46.78125 0  L 46.78125 64.40625  L 33.796875 25.984375  L 26.3125 25.984375  L 13.28125 64.40625  L 13.28125 0  L 4.203125 0  z " id="DejaVuSansMono-77"/>
    </defs>
    <g transform="translate(200.6875 16.381875)scale(0.12 -0.12)">
     <use xlink:href="#DejaVuSansMono-72"/>
     <use x="60.205078" xlink:href="#DejaVuSansMono-73"/>
     <use x="120.410156" xlink:href="#DejaVuSansMono-83"/>
     <use x="180.615234" xlink:href="#DejaVuSansMono-84"/>
     <use x="240.820312" xlink:href="#DejaVuSansMono-79"/>
     <use x="301.025391" xlink:href="#DejaVuSansMono-71"/>
     <use x="361.230469" xlink:href="#DejaVuSansMono-82"/>
     <use x="421.435547" xlink:href="#DejaVuSansMono-65"/>
     <use x="481.640625" xlink:href="#DejaVuSansMono-77"/>
    </g>
    <!-- y=np.random.randn(1000) -->
    <defs>
     <path d="M 41.890625 17.578125  Q 39.65625 11.859375 36.1875 2.546875  Q 31.34375 -10.359375 29.6875 -13.1875  Q 27.4375 -17 24.0625 -18.890625  Q 20.703125 -20.796875 16.21875 -20.796875  L 8.984375 -20.796875  L 8.984375 -13.28125  L 14.3125 -13.28125  Q 18.265625 -13.28125 20.5 -10.984375  Q 22.75 -8.6875 26.21875 0.875  L 5.078125 54.6875  L 14.59375 54.6875  L 30.8125 11.921875  L 46.78125 54.6875  L 56.296875 54.6875  z " id="DejaVuSansMono-121"/>
     <path d="M 4.296875 25.59375  L 55.90625 25.59375  L 55.90625 17.1875  L 4.296875 17.1875  z M 4.296875 45.40625  L 55.90625 45.40625  L 55.90625 37.109375  L 4.296875 37.109375  z " id="DejaVuSansMono-61"/>
     <path d="M 51.3125 33.890625  L 51.3125 0  L 42.28125 0  L 42.28125 33.890625  Q 42.28125 41.265625 39.6875 44.71875  Q 37.109375 48.1875 31.59375 48.1875  Q 25.296875 48.1875 21.890625 43.71875  Q 18.5 39.265625 18.5 30.90625  L 18.5 0  L 9.515625 0  L 9.515625 54.6875  L 18.5 54.6875  L 18.5 46.484375  Q 20.90625 51.171875 25 53.578125  Q 29.109375 56 34.71875 56  Q 43.0625 56 47.1875 50.5  Q 51.3125 45.015625 51.3125 33.890625  z " id="DejaVuSansMono-110"/>
     <path d="M 18.3125 6.890625  L 18.3125 -20.796875  L 9.28125 -20.796875  L 9.28125 54.6875  L 18.3125 54.6875  L 18.3125 47.703125  Q 20.5625 51.765625 24.296875 53.875  Q 28.03125 56 32.90625 56  Q 42.828125 56 48.46875 48.328125  Q 54.109375 40.671875 54.109375 27.09375  Q 54.109375 13.765625 48.4375 6.171875  Q 42.78125 -1.421875 32.90625 -1.421875  Q 27.9375 -1.421875 24.1875 0.703125  Q 20.453125 2.828125 18.3125 6.890625  z M 44.671875 27.296875  Q 44.671875 37.75 41.375 43.0625  Q 38.09375 48.390625 31.59375 48.390625  Q 25.046875 48.390625 21.671875 43.046875  Q 18.3125 37.703125 18.3125 27.296875  Q 18.3125 16.9375 21.671875 11.5625  Q 25.046875 6.203125 31.59375 6.203125  Q 38.09375 6.203125 41.375 11.515625  Q 44.671875 16.84375 44.671875 27.296875  z " id="DejaVuSansMono-112"/>
     <path d="M 23.875 14.890625  L 36.1875 14.890625  L 36.1875 0  L 23.875 0  z " id="DejaVuSansMono-46"/>
     <path d="M 56.390625 43.40625  Q 53.515625 45.65625 50.53125 46.671875  Q 47.5625 47.703125 44 47.703125  Q 35.59375 47.703125 31.140625 42.421875  Q 26.703125 37.15625 26.703125 27.203125  L 26.703125 0  L 17.671875 0  L 17.671875 54.6875  L 26.703125 54.6875  L 26.703125 44  Q 28.953125 49.8125 33.609375 52.90625  Q 38.28125 56 44.671875 56  Q 48 56 50.875 55.171875  Q 53.765625 54.34375 56.390625 52.59375  z " id="DejaVuSansMono-114"/>
     <path d="M 34.28125 27.484375  L 31.296875 27.484375  Q 23.4375 27.484375 19.453125 24.71875  Q 15.484375 21.96875 15.484375 16.5  Q 15.484375 11.578125 18.453125 8.84375  Q 21.4375 6.109375 26.703125 6.109375  Q 34.125 6.109375 38.375 11.25  Q 42.625 16.40625 42.671875 25.484375  L 42.671875 27.484375  z M 51.703125 31.203125  L 51.703125 0  L 42.671875 0  L 42.671875 8.109375  Q 39.796875 3.21875 35.421875 0.890625  Q 31.0625 -1.421875 24.8125 -1.421875  Q 16.453125 -1.421875 11.46875 3.296875  Q 6.5 8.015625 6.5 15.921875  Q 6.5 25.046875 12.625 29.78125  Q 18.75 34.515625 30.609375 34.515625  L 42.671875 34.515625  L 42.671875 35.9375  Q 42.625 42.484375 39.34375 45.4375  Q 36.078125 48.390625 28.90625 48.390625  Q 24.3125 48.390625 19.625 47.0625  Q 14.9375 45.75 10.5 43.21875  L 10.5 52.203125  Q 15.484375 54.109375 20.046875 55.046875  Q 24.609375 56 28.90625 56  Q 35.6875 56 40.5 54  Q 45.3125 52 48.296875 48  Q 50.140625 45.5625 50.921875 41.96875  Q 51.703125 38.375 51.703125 31.203125  z " id="DejaVuSansMono-97"/>
     <path d="M 41.890625 47.703125  L 41.890625 75.984375  L 50.875 75.984375  L 50.875 0  L 41.890625 0  L 41.890625 6.890625  Q 39.65625 2.828125 35.90625 0.703125  Q 32.171875 -1.421875 27.296875 -1.421875  Q 17.390625 -1.421875 11.6875 6.265625  Q 6 13.96875 6 27.484375  Q 6 40.828125 11.71875 48.40625  Q 17.4375 56 27.296875 56  Q 32.234375 56 35.984375 53.875  Q 39.75 51.765625 41.890625 47.703125  z M 15.484375 27.296875  Q 15.484375 16.84375 18.796875 11.515625  Q 22.125 6.203125 28.609375 6.203125  Q 35.109375 6.203125 38.5 11.5625  Q 41.890625 16.9375 41.890625 27.296875  Q 41.890625 37.703125 38.5 43.046875  Q 35.109375 48.390625 28.609375 48.390625  Q 22.125 48.390625 18.796875 43.0625  Q 15.484375 37.75 15.484375 27.296875  z " id="DejaVuSansMono-100"/>
     <path d="M 30.078125 48.390625  Q 23.25 48.390625 19.734375 43.0625  Q 16.21875 37.75 16.21875 27.296875  Q 16.21875 16.890625 19.734375 11.546875  Q 23.25 6.203125 30.078125 6.203125  Q 36.96875 6.203125 40.484375 11.546875  Q 44 16.890625 44 27.296875  Q 44 37.75 40.484375 43.0625  Q 36.96875 48.390625 30.078125 48.390625  z M 30.078125 56  Q 41.453125 56 47.484375 48.625  Q 53.515625 41.265625 53.515625 27.296875  Q 53.515625 13.28125 47.5 5.921875  Q 41.5 -1.421875 30.078125 -1.421875  Q 18.703125 -1.421875 12.6875 5.921875  Q 6.6875 13.28125 6.6875 27.296875  Q 6.6875 41.265625 12.6875 48.625  Q 18.703125 56 30.078125 56  z " id="DejaVuSansMono-111"/>
     <path d="M 33.015625 49.125  Q 34.671875 52.640625 37.234375 54.3125  Q 39.796875 56 43.40625 56  Q 50 56 52.703125 50.890625  Q 55.421875 45.796875 55.421875 31.6875  L 55.421875 0  L 47.21875 0  L 47.21875 31.296875  Q 47.21875 42.875 45.921875 45.671875  Q 44.625 48.484375 41.21875 48.484375  Q 37.3125 48.484375 35.859375 45.484375  Q 34.421875 42.484375 34.421875 31.296875  L 34.421875 0  L 26.21875 0  L 26.21875 31.296875  Q 26.21875 43.015625 24.828125 45.75  Q 23.4375 48.484375 19.828125 48.484375  Q 16.265625 48.484375 14.875 45.484375  Q 13.484375 42.484375 13.484375 31.296875  L 13.484375 0  L 5.328125 0  L 5.328125 54.6875  L 13.484375 54.6875  L 13.484375 50  Q 15.09375 52.9375 17.5 54.46875  Q 19.921875 56 23 56  Q 26.703125 56 29.171875 54.296875  Q 31.640625 52.59375 33.015625 49.125  z " id="DejaVuSansMono-109"/>
     <path d="M 43.21875 75.875  Q 36.71875 64.75 33.515625 53.6875  Q 30.328125 42.625 30.328125 31.390625  Q 30.328125 20.21875 33.515625 9.125  Q 36.71875 -1.953125 43.21875 -13.1875  L 35.40625 -13.1875  Q 28.03125 -1.5625 24.40625 9.4375  Q 20.796875 20.453125 20.796875 31.390625  Q 20.796875 42.28125 24.40625 53.3125  Q 28.03125 64.359375 35.40625 75.875  z " id="DejaVuSansMono-40"/>
     <path d="M 13.1875 8.296875  L 28.515625 8.296875  L 28.515625 64.015625  L 12.015625 60.296875  L 12.015625 69.28125  L 28.421875 72.90625  L 38.28125 72.90625  L 38.28125 8.296875  L 53.421875 8.296875  L 53.421875 0  L 13.1875 0  z " id="DejaVuSansMono-49"/>
     <path d="M 23.578125 36.625  Q 23.578125 39.3125 25.453125 41.265625  Q 27.34375 43.21875 29.984375 43.21875  Q 32.71875 43.21875 34.671875 41.265625  Q 36.625 39.3125 36.625 36.625  Q 36.625 33.890625 34.6875 31.984375  Q 32.765625 30.078125 29.984375 30.078125  Q 27.25 30.078125 25.40625 31.9375  Q 23.578125 33.796875 23.578125 36.625  z M 30.078125 66.40625  Q 23.1875 66.40625 19.796875 58.984375  Q 16.40625 51.5625 16.40625 36.375  Q 16.40625 21.234375 19.796875 13.8125  Q 23.1875 6.390625 30.078125 6.390625  Q 37.015625 6.390625 40.40625 13.8125  Q 43.796875 21.234375 43.796875 36.375  Q 43.796875 51.5625 40.40625 58.984375  Q 37.015625 66.40625 30.078125 66.40625  z M 30.078125 74.21875  Q 41.75 74.21875 47.734375 64.640625  Q 53.71875 55.078125 53.71875 36.375  Q 53.71875 17.71875 47.734375 8.140625  Q 41.75 -1.421875 30.078125 -1.421875  Q 18.40625 -1.421875 12.453125 8.140625  Q 6.5 17.71875 6.5 36.375  Q 6.5 55.078125 12.453125 64.640625  Q 18.40625 74.21875 30.078125 74.21875  z " id="DejaVuSansMono-48"/>
     <path d="M 17 75.875  L 24.8125 75.875  Q 32.171875 64.359375 35.78125 53.3125  Q 39.40625 42.28125 39.40625 31.390625  Q 39.40625 20.40625 35.78125 9.375  Q 32.171875 -1.65625 24.8125 -13.1875  L 17 -13.1875  Q 23.484375 -1.859375 26.6875 9.21875  Q 29.890625 20.3125 29.890625 31.390625  Q 29.890625 42.53125 26.6875 53.609375  Q 23.484375 64.703125 17 75.875  z " id="DejaVuSansMono-41"/>
    </defs>
    <g transform="translate(200.6875 29.89575)scale(0.12 -0.12)">
     <use xlink:href="#DejaVuSansMono-121"/>
     <use x="60.205078" xlink:href="#DejaVuSansMono-61"/>
     <use x="120.410156" xlink:href="#DejaVuSansMono-110"/>
     <use x="180.615234" xlink:href="#DejaVuSansMono-112"/>
     <use x="240.820312" xlink:href="#DejaVuSansMono-46"/>
     <use x="301.025391" xlink:href="#DejaVuSansMono-114"/>
     <use x="361.230469" xlink:href="#DejaVuSansMono-97"/>
     <use x="421.435547" xlink:href="#DejaVuSansMono-110"/>
     <use x="481.640625" xlink:href="#DejaVuSansMono-100"/>
     <use x="541.845703" xlink:href="#DejaVuSansMono-111"/>
     <use x="602.050781" xlink:href="#DejaVuSansMono-109"/>
     <use x="662.255859" xlink:href="#DejaVuSansMono-46"/>
     <use x="722.460938" xlink:href="#DejaVuSansMono-114"/>
     <use x="782.666016" xlink:href="#DejaVuSansMono-97"/>
     <use x="842.871094" xlink:href="#DejaVuSansMono-110"/>
     <use x="903.076172" xlink:href="#DejaVuSansMono-100"/>
     <use x="963.28125" xlink:href="#DejaVuSansMono-110"/>
     <use x="1023.486328" xlink:href="#DejaVuSansMono-40"/>
     <use x="1083.691406" xlink:href="#DejaVuSansMono-49"/>
     <use x="1143.896484" xlink:href="#DejaVuSansMono-48"/>
     <use x="1204.101562" xlink:href="#DejaVuSansMono-48"/>
     <use x="1264.306641" xlink:href="#DejaVuSansMono-48"/>
     <use x="1324.511719" xlink:href="#DejaVuSansMono-41"/>
    </g>
    <!-- plt.hist(y,15) -->
    <defs>
     <path d="M 31.203125 19.828125  Q 31.203125 13.765625 33.421875 10.6875  Q 35.640625 7.625 39.984375 7.625  L 50.484375 7.625  L 50.484375 0  L 39.109375 0  Q 31.0625 0 26.640625 5.171875  Q 22.21875 10.359375 22.21875 19.828125  L 22.21875 69.484375  L 7.8125 69.484375  L 7.8125 76.515625  L 31.203125 76.515625  z " id="DejaVuSansMono-108"/>
     <path d="M 29.984375 70.21875  L 29.984375 54.6875  L 50.390625 54.6875  L 50.390625 47.703125  L 29.984375 47.703125  L 29.984375 18.015625  Q 29.984375 11.96875 32.28125 9.5625  Q 34.578125 7.171875 40.28125 7.171875  L 50.390625 7.171875  L 50.390625 0  L 39.40625 0  Q 29.296875 0 25.140625 4.046875  Q 21 8.109375 21 18.015625  L 21 47.703125  L 6.390625 47.703125  L 6.390625 54.6875  L 21 54.6875  L 21 70.21875  z " id="DejaVuSansMono-116"/>
     <path d="M 51.3125 33.890625  L 51.3125 0  L 42.28125 0  L 42.28125 33.890625  Q 42.28125 41.265625 39.6875 44.71875  Q 37.109375 48.1875 31.59375 48.1875  Q 25.296875 48.1875 21.890625 43.71875  Q 18.5 39.265625 18.5 30.90625  L 18.5 0  L 9.515625 0  L 9.515625 75.984375  L 18.5 75.984375  L 18.5 46.484375  Q 20.90625 51.171875 25 53.578125  Q 29.109375 56 34.71875 56  Q 43.0625 56 47.1875 50.5  Q 51.3125 45.015625 51.3125 33.890625  z " id="DejaVuSansMono-104"/>
     <path d="M 12.5 54.6875  L 35.5 54.6875  L 35.5 6.984375  L 53.328125 6.984375  L 53.328125 0  L 8.6875 0  L 8.6875 6.984375  L 26.515625 6.984375  L 26.515625 47.703125  L 12.5 47.703125  z M 26.515625 75.984375  L 35.5 75.984375  L 35.5 64.59375  L 26.515625 64.59375  z " id="DejaVuSansMono-105"/>
     <path d="M 47.515625 52.78125  L 47.515625 44  Q 43.65625 46.234375 39.75 47.359375  Q 35.84375 48.484375 31.78125 48.484375  Q 25.6875 48.484375 22.671875 46.5  Q 19.671875 44.53125 19.671875 40.484375  Q 19.671875 36.8125 21.921875 35  Q 24.171875 33.203125 33.109375 31.5  L 36.71875 30.8125  Q 43.40625 29.546875 46.84375 25.734375  Q 50.296875 21.921875 50.296875 15.828125  Q 50.296875 7.71875 44.53125 3.140625  Q 38.765625 -1.421875 28.515625 -1.421875  Q 24.46875 -1.421875 20.015625 -0.5625  Q 15.578125 0.296875 10.40625 2  L 10.40625 11.28125  Q 15.4375 8.6875 20.015625 7.390625  Q 24.609375 6.109375 28.71875 6.109375  Q 34.671875 6.109375 37.9375 8.515625  Q 41.21875 10.9375 41.21875 15.28125  Q 41.21875 21.53125 29.25 23.921875  L 28.859375 24.03125  L 25.484375 24.703125  Q 17.71875 26.21875 14.15625 29.8125  Q 10.59375 33.40625 10.59375 39.59375  Q 10.59375 47.46875 15.90625 51.734375  Q 21.234375 56 31.109375 56  Q 35.5 56 39.546875 55.1875  Q 43.609375 54.390625 47.515625 52.78125  z " id="DejaVuSansMono-115"/>
     <path d="M 24.515625 14.796875  L 36.8125 14.796875  L 36.8125 4.6875  L 27.203125 -14.015625  L 19.671875 -14.015625  L 24.515625 4.6875  z " id="DejaVuSansMono-44"/>
     <path d="M 10.109375 72.90625  L 47.015625 72.90625  L 47.015625 64.59375  L 19.09375 64.59375  L 19.09375 46.6875  Q 21.1875 47.46875 23.3125 47.828125  Q 25.4375 48.1875 27.59375 48.1875  Q 38.921875 48.1875 45.5625 41.5  Q 52.203125 34.8125 52.203125 23.390625  Q 52.203125 11.859375 45.234375 5.21875  Q 38.28125 -1.421875 26.21875 -1.421875  Q 20.40625 -1.421875 15.59375 -0.640625  Q 10.796875 0.140625 6.984375 1.703125  L 6.984375 11.71875  Q 11.46875 9.28125 16.015625 8.078125  Q 20.5625 6.890625 25.296875 6.890625  Q 33.453125 6.890625 37.859375 11.1875  Q 42.28125 15.484375 42.28125 23.390625  Q 42.28125 31.203125 37.71875 35.546875  Q 33.15625 39.890625 25 39.890625  Q 21.046875 39.890625 17.28125 38.984375  Q 13.53125 38.09375 10.109375 36.28125  z " id="DejaVuSansMono-53"/>
    </defs>
    <g transform="translate(200.6875 43.409625)scale(0.12 -0.12)">
     <use xlink:href="#DejaVuSansMono-112"/>
     <use x="60.205078" xlink:href="#DejaVuSansMono-108"/>
     <use x="120.410156" xlink:href="#DejaVuSansMono-116"/>
     <use x="180.615234" xlink:href="#DejaVuSansMono-46"/>
     <use x="240.820312" xlink:href="#DejaVuSansMono-104"/>
     <use x="301.025391" xlink:href="#DejaVuSansMono-105"/>
     <use x="361.230469" xlink:href="#DejaVuSansMono-115"/>
     <use x="421.435547" xlink:href="#DejaVuSansMono-116"/>
     <use x="481.640625" xlink:href="#DejaVuSansMono-40"/>
     <use x="541.845703" xlink:href="#DejaVuSansMono-121"/>
     <use x="602.050781" xlink:href="#DejaVuSansMono-44"/>
     <use x="662.255859" xlink:href="#DejaVuSansMono-49"/>
     <use x="722.460938" xlink:href="#DejaVuSansMono-53"/>
     <use x="782.666016" xlink:href="#DejaVuSansMono-41"/>
    </g>
    <!-- plt.show() -->
    <defs>
     <path d="M 0 54.6875  L 8.890625 54.6875  L 18.40625 10.5  L 26.21875 38.71875  L 33.890625 38.71875  L 41.796875 10.5  L 51.3125 54.6875  L 60.203125 54.6875  L 47.40625 0  L 38.8125 0  L 30.078125 29.984375  L 21.390625 0  L 12.796875 0  z " id="DejaVuSansMono-119"/>
    </defs>
    <g transform="translate(200.6875 56.9235)scale(0.12 -0.12)">
     <use xlink:href="#DejaVuSansMono-112"/>
     <use x="60.205078" xlink:href="#DejaVuSansMono-108"/>
     <use x="120.410156" xlink:href="#DejaVuSansMono-116"/>
     <use x="180.615234" xlink:href="#DejaVuSansMono-46"/>
     <use x="240.820312" xlink:href="#DejaVuSansMono-115"/>
     <use x="301.025391" xlink:href="#DejaVuSansMono-104"/>
     <use x="361.230469" xlink:href="#DejaVuSansMono-111"/>
     <use x="421.435547" xlink:href="#DejaVuSansMono-119"/>
     <use x="481.640625" xlink:href="#DejaVuSansMono-40"/>
     <use x="541.845703" xlink:href="#DejaVuSansMono-41"/>
    </g>
    <!--  -->
    <g transform="translate(200.6875 70.437375)scale(0.12 -0.12)"/>
   </g>
  </g>
 </g>
 <defs>
  <clipPath id="p2e0afb9885">
   <rect height="217.44" width="334.8" x="33.2875" y="76.437375"/>
  </clipPath>
 </defs>
</svg>