<?xml version="1.0" encoding="UTF-8" standalone="no"?>
<!DOCTYPE svg PUBLIC "-//W3C//DTD SVG 1.1//EN" "http://www.w3.org/Graphics/SVG/1.1/DTD/svg11.dtd">
<!-- Created with matplotlib (https://matplotlib.org/) -->
<svg height="248.518125pt" version="1.1" viewBox="0 0 372.103125 248.518125" width="372.103125pt" xmlns="http://www.w3.org/2000/svg" xmlns:xlink="http://www.w3.org/1999/xlink">
 <defs>
  <style type="text/css">
*{stroke-linecap:butt;stroke-linejoin:round;}
  </style>
 </defs>
 <g id="figure_1">
  <g id="patch_1">
   <path d="M 0 248.518125  L 372.103125 248.518125  L 372.103125 0  L 0 0  z " style="fill:none;"/>
  </g>
  <g id="axes_1">
   <g id="patch_2">
    <path d="M 30.103125 224.64  L 364.903125 224.64  L 364.903125 7.2  L 30.103125 7.2  z " style="fill:#ffffff;"/>
   </g>
   <g id="PathCollection_1">
    <defs>
     <path d="M -3 3  L 3 -3  M -3 -3  L 3 3  " id="ma0df18d520" style="stroke:#1f77b4;stroke-width:1.5;"/>
    </defs>
    <g clip-path="url(#p0f8d9851be)">
     <use style="fill:#1f77b4;stroke:#1f77b4;stroke-width:1.5;" x="172.838182" xlink:href="#ma0df18d520" y="185.203112"/>
     <use style="fill:#1f77b4;stroke:#1f77b4;stroke-width:1.5;" x="227.339927" xlink:href="#ma0df18d520" y="170.664118"/>
     <use style="fill:#1f77b4;stroke:#1f77b4;stroke-width:1.5;" x="247.36954" xlink:href="#ma0df18d520" y="146.005568"/>
     <use style="fill:#1f77b4;stroke:#1f77b4;stroke-width:1.5;" x="89.700584" xlink:href="#ma0df18d520" y="207.150901"/>
     <use style="fill:#1f77b4;stroke:#1f77b4;stroke-width:1.5;" x="293.700011" xlink:href="#ma0df18d520" y="100.887435"/>
     <use style="fill:#1f77b4;stroke:#1f77b4;stroke-width:1.5;" x="156.901867" xlink:href="#ma0df18d520" y="194.431111"/>
     <use style="fill:#1f77b4;stroke:#1f77b4;stroke-width:1.5;" x="203.989014" xlink:href="#ma0df18d520" y="186.568631"/>
     <use style="fill:#1f77b4;stroke:#1f77b4;stroke-width:1.5;" x="204.579325" xlink:href="#ma0df18d520" y="178.041141"/>
     <use style="fill:#1f77b4;stroke:#1f77b4;stroke-width:1.5;" x="178.341959" xlink:href="#ma0df18d520" y="196.079564"/>
     <use style="fill:#1f77b4;stroke:#1f77b4;stroke-width:1.5;" x="47.938405" xlink:href="#ma0df18d520" y="212.46457"/>
     <use style="fill:#1f77b4;stroke:#1f77b4;stroke-width:1.5;" x="278.810888" xlink:href="#ma0df18d520" y="125.406207"/>
     <use style="fill:#1f77b4;stroke:#1f77b4;stroke-width:1.5;" x="204.907199" xlink:href="#ma0df18d520" y="176.556968"/>
     <use style="fill:#1f77b4;stroke:#1f77b4;stroke-width:1.5;" x="283.172419" xlink:href="#ma0df18d520" y="119.325337"/>
     <use style="fill:#1f77b4;stroke:#1f77b4;stroke-width:1.5;" x="287.00866" xlink:href="#ma0df18d520" y="110.839565"/>
     <use style="fill:#1f77b4;stroke:#1f77b4;stroke-width:1.5;" x="347.067845" xlink:href="#ma0df18d520" y="19.37543"/>
     <use style="fill:#1f77b4;stroke:#1f77b4;stroke-width:1.5;" x="227.424256" xlink:href="#ma0df18d520" y="173.283784"/>
     <use style="fill:#1f77b4;stroke:#1f77b4;stroke-width:1.5;" x="114.433238" xlink:href="#ma0df18d520" y="200.436877"/>
     <use style="fill:#1f77b4;stroke:#1f77b4;stroke-width:1.5;" x="186.907463" xlink:href="#ma0df18d520" y="190.817398"/>
     <use style="fill:#1f77b4;stroke:#1f77b4;stroke-width:1.5;" x="250.214946" xlink:href="#ma0df18d520" y="151.455428"/>
     <use style="fill:#1f77b4;stroke:#1f77b4;stroke-width:1.5;" x="298.247653" xlink:href="#ma0df18d520" y="105.748809"/>
     <use style="fill:#1f77b4;stroke:#1f77b4;stroke-width:1.5;" x="161.802512" xlink:href="#ma0df18d520" y="194.159525"/>
     <use style="fill:#1f77b4;stroke:#1f77b4;stroke-width:1.5;" x="200.412202" xlink:href="#ma0df18d520" y="187.814089"/>
     <use style="fill:#1f77b4;stroke:#1f77b4;stroke-width:1.5;" x="308.633859" xlink:href="#ma0df18d520" y="87.479563"/>
     <use style="fill:#1f77b4;stroke:#1f77b4;stroke-width:1.5;" x="300.113141" xlink:href="#ma0df18d520" y="92.072733"/>
     <use style="fill:#1f77b4;stroke:#1f77b4;stroke-width:1.5;" x="183.57354" xlink:href="#ma0df18d520" y="185.06746"/>
     <use style="fill:#1f77b4;stroke:#1f77b4;stroke-width:1.5;" x="241.740648" xlink:href="#ma0df18d520" y="154.939016"/>
     <use style="fill:#1f77b4;stroke:#1f77b4;stroke-width:1.5;" x="241.282297" xlink:href="#ma0df18d520" y="152.404747"/>
     <use style="fill:#1f77b4;stroke:#1f77b4;stroke-width:1.5;" x="177.174491" xlink:href="#ma0df18d520" y="186.152078"/>
     <use style="fill:#1f77b4;stroke:#1f77b4;stroke-width:1.5;" x="230.461362" xlink:href="#ma0df18d520" y="157.314865"/>
     <use style="fill:#1f77b4;stroke:#1f77b4;stroke-width:1.5;" x="109.889109" xlink:href="#ma0df18d520" y="209.310665"/>
     <use style="fill:#1f77b4;stroke:#1f77b4;stroke-width:1.5;" x="242.332603" xlink:href="#ma0df18d520" y="161.261497"/>
     <use style="fill:#1f77b4;stroke:#1f77b4;stroke-width:1.5;" x="148.034154" xlink:href="#ma0df18d520" y="197.332651"/>
     <use style="fill:#1f77b4;stroke:#1f77b4;stroke-width:1.5;" x="107.846436" xlink:href="#ma0df18d520" y="209.675157"/>
     <use style="fill:#1f77b4;stroke:#1f77b4;stroke-width:1.5;" x="135.740318" xlink:href="#ma0df18d520" y="202.700015"/>
     <use style="fill:#1f77b4;stroke:#1f77b4;stroke-width:1.5;" x="289.805766" xlink:href="#ma0df18d520" y="101.354399"/>
     <use style="fill:#1f77b4;stroke:#1f77b4;stroke-width:1.5;" x="131.284394" xlink:href="#ma0df18d520" y="194.828473"/>
     <use style="fill:#1f77b4;stroke:#1f77b4;stroke-width:1.5;" x="234.299613" xlink:href="#ma0df18d520" y="156.938572"/>
     <use style="fill:#1f77b4;stroke:#1f77b4;stroke-width:1.5;" x="156.058213" xlink:href="#ma0df18d520" y="196.68596"/>
     <use style="fill:#1f77b4;stroke:#1f77b4;stroke-width:1.5;" x="260.9915" xlink:href="#ma0df18d520" y="142.622556"/>
     <use style="fill:#1f77b4;stroke:#1f77b4;stroke-width:1.5;" x="310.706381" xlink:href="#ma0df18d520" y="84.550749"/>
     <use style="fill:#1f77b4;stroke:#1f77b4;stroke-width:1.5;" x="113.935868" xlink:href="#ma0df18d520" y="195.668999"/>
     <use style="fill:#1f77b4;stroke:#1f77b4;stroke-width:1.5;" x="249.715088" xlink:href="#ma0df18d520" y="141.208132"/>
     <use style="fill:#1f77b4;stroke:#1f77b4;stroke-width:1.5;" x="241.012997" xlink:href="#ma0df18d520" y="157.36015"/>
     <use style="fill:#1f77b4;stroke:#1f77b4;stroke-width:1.5;" x="169.357604" xlink:href="#ma0df18d520" y="191.404962"/>
     <use style="fill:#1f77b4;stroke:#1f77b4;stroke-width:1.5;" x="250.488811" xlink:href="#ma0df18d520" y="140.791395"/>
     <use style="fill:#1f77b4;stroke:#1f77b4;stroke-width:1.5;" x="128.887471" xlink:href="#ma0df18d520" y="204.83"/>
     <use style="fill:#1f77b4;stroke:#1f77b4;stroke-width:1.5;" x="285.345347" xlink:href="#ma0df18d520" y="107.931526"/>
     <use style="fill:#1f77b4;stroke:#1f77b4;stroke-width:1.5;" x="221.962762" xlink:href="#ma0df18d520" y="175.291647"/>
     <use style="fill:#1f77b4;stroke:#1f77b4;stroke-width:1.5;" x="216.399019" xlink:href="#ma0df18d520" y="165.539463"/>
     <use style="fill:#1f77b4;stroke:#1f77b4;stroke-width:1.5;" x="273.664706" xlink:href="#ma0df18d520" y="122.812784"/>
    </g>
   </g>
   <g id="matplotlib.axis_1">
    <g id="xtick_1">
     <g id="line2d_1">
      <defs>
       <path d="M 0 0  L 0 3.5  " id="m220986e17f" style="stroke:#000000;stroke-width:0.8;"/>
      </defs>
      <g>
       <use style="stroke:#000000;stroke-width:0.8;" x="47.429263" xlink:href="#m220986e17f" y="224.64"/>
      </g>
     </g>
     <g id="text_1">
      <!-- 0.0 -->
      <defs>
       <path d="M 31.78125 66.40625  Q 24.171875 66.40625 20.328125 58.90625  Q 16.5 51.421875 16.5 36.375  Q 16.5 21.390625 20.328125 13.890625  Q 24.171875 6.390625 31.78125 6.390625  Q 39.453125 6.390625 43.28125 13.890625  Q 47.125 21.390625 47.125 36.375  Q 47.125 51.421875 43.28125 58.90625  Q 39.453125 66.40625 31.78125 66.40625  z M 31.78125 74.21875  Q 44.046875 74.21875 50.515625 64.515625  Q 56.984375 54.828125 56.984375 36.375  Q 56.984375 17.96875 50.515625 8.265625  Q 44.046875 -1.421875 31.78125 -1.421875  Q 19.53125 -1.421875 13.0625 8.265625  Q 6.59375 17.96875 6.59375 36.375  Q 6.59375 54.828125 13.0625 64.515625  Q 19.53125 74.21875 31.78125 74.21875  z " id="DejaVuSans-48"/>
       <path d="M 10.6875 12.40625  L 21 12.40625  L 21 0  L 10.6875 0  z " id="DejaVuSans-46"/>
      </defs>
      <g transform="translate(39.4777 239.238437)scale(0.1 -0.1)">
       <use xlink:href="#DejaVuSans-48"/>
       <use x="63.623047" xlink:href="#DejaVuSans-46"/>
       <use x="95.410156" xlink:href="#DejaVuSans-48"/>
      </g>
     </g>
    </g>
    <g id="xtick_2">
     <g id="line2d_2">
      <g>
       <use style="stroke:#000000;stroke-width:0.8;" x="105.842894" xlink:href="#m220986e17f" y="224.64"/>
      </g>
     </g>
     <g id="text_2">
      <!-- 0.2 -->
      <defs>
       <path d="M 19.1875 8.296875  L 53.609375 8.296875  L 53.609375 0  L 7.328125 0  L 7.328125 8.296875  Q 12.9375 14.109375 22.625 23.890625  Q 32.328125 33.6875 34.8125 36.53125  Q 39.546875 41.84375 41.421875 45.53125  Q 43.3125 49.21875 43.3125 52.78125  Q 43.3125 58.59375 39.234375 62.25  Q 35.15625 65.921875 28.609375 65.921875  Q 23.96875 65.921875 18.8125 64.3125  Q 13.671875 62.703125 7.8125 59.421875  L 7.8125 69.390625  Q 13.765625 71.78125 18.9375 73  Q 24.125 74.21875 28.421875 74.21875  Q 39.75 74.21875 46.484375 68.546875  Q 53.21875 62.890625 53.21875 53.421875  Q 53.21875 48.921875 51.53125 44.890625  Q 49.859375 40.875 45.40625 35.40625  Q 44.1875 33.984375 37.640625 27.21875  Q 31.109375 20.453125 19.1875 8.296875  z " id="DejaVuSans-50"/>
      </defs>
      <g transform="translate(97.891331 239.238437)scale(0.1 -0.1)">
       <use xlink:href="#DejaVuSans-48"/>
       <use x="63.623047" xlink:href="#DejaVuSans-46"/>
       <use x="95.410156" xlink:href="#DejaVuSans-50"/>
      </g>
     </g>
    </g>
    <g id="xtick_3">
     <g id="line2d_3">
      <g>
       <use style="stroke:#000000;stroke-width:0.8;" x="164.256525" xlink:href="#m220986e17f" y="224.64"/>
      </g>
     </g>
     <g id="text_3">
      <!-- 0.4 -->
      <defs>
       <path d="M 37.796875 64.3125  L 12.890625 25.390625  L 37.796875 25.390625  z M 35.203125 72.90625  L 47.609375 72.90625  L 47.609375 25.390625  L 58.015625 25.390625  L 58.015625 17.1875  L 47.609375 17.1875  L 47.609375 0  L 37.796875 0  L 37.796875 17.1875  L 4.890625 17.1875  L 4.890625 26.703125  z " id="DejaVuSans-52"/>
      </defs>
      <g transform="translate(156.304963 239.238437)scale(0.1 -0.1)">
       <use xlink:href="#DejaVuSans-48"/>
       <use x="63.623047" xlink:href="#DejaVuSans-46"/>
       <use x="95.410156" xlink:href="#DejaVuSans-52"/>
      </g>
     </g>
    </g>
    <g id="xtick_4">
     <g id="line2d_4">
      <g>
       <use style="stroke:#000000;stroke-width:0.8;" x="222.670157" xlink:href="#m220986e17f" y="224.64"/>
      </g>
     </g>
     <g id="text_4">
      <!-- 0.6 -->
      <defs>
       <path d="M 33.015625 40.375  Q 26.375 40.375 22.484375 35.828125  Q 18.609375 31.296875 18.609375 23.390625  Q 18.609375 15.53125 22.484375 10.953125  Q 26.375 6.390625 33.015625 6.390625  Q 39.65625 6.390625 43.53125 10.953125  Q 47.40625 15.53125 47.40625 23.390625  Q 47.40625 31.296875 43.53125 35.828125  Q 39.65625 40.375 33.015625 40.375  z M 52.59375 71.296875  L 52.59375 62.3125  Q 48.875 64.0625 45.09375 64.984375  Q 41.3125 65.921875 37.59375 65.921875  Q 27.828125 65.921875 22.671875 59.328125  Q 17.53125 52.734375 16.796875 39.40625  Q 19.671875 43.65625 24.015625 45.921875  Q 28.375 48.1875 33.59375 48.1875  Q 44.578125 48.1875 50.953125 41.515625  Q 57.328125 34.859375 57.328125 23.390625  Q 57.328125 12.15625 50.6875 5.359375  Q 44.046875 -1.421875 33.015625 -1.421875  Q 20.359375 -1.421875 13.671875 8.265625  Q 6.984375 17.96875 6.984375 36.375  Q 6.984375 53.65625 15.1875 63.9375  Q 23.390625 74.21875 37.203125 74.21875  Q 40.921875 74.21875 44.703125 73.484375  Q 48.484375 72.75 52.59375 71.296875  z " id="DejaVuSans-54"/>
      </defs>
      <g transform="translate(214.718594 239.238437)scale(0.1 -0.1)">
       <use xlink:href="#DejaVuSans-48"/>
       <use x="63.623047" xlink:href="#DejaVuSans-46"/>
       <use x="95.410156" xlink:href="#DejaVuSans-54"/>
      </g>
     </g>
    </g>
    <g id="xtick_5">
     <g id="line2d_5">
      <g>
       <use style="stroke:#000000;stroke-width:0.8;" x="281.083788" xlink:href="#m220986e17f" y="224.64"/>
      </g>
     </g>
     <g id="text_5">
      <!-- 0.8 -->
      <defs>
       <path d="M 31.78125 34.625  Q 24.75 34.625 20.71875 30.859375  Q 16.703125 27.09375 16.703125 20.515625  Q 16.703125 13.921875 20.71875 10.15625  Q 24.75 6.390625 31.78125 6.390625  Q 38.8125 6.390625 42.859375 10.171875  Q 46.921875 13.96875 46.921875 20.515625  Q 46.921875 27.09375 42.890625 30.859375  Q 38.875 34.625 31.78125 34.625  z M 21.921875 38.8125  Q 15.578125 40.375 12.03125 44.71875  Q 8.5 49.078125 8.5 55.328125  Q 8.5 64.0625 14.71875 69.140625  Q 20.953125 74.21875 31.78125 74.21875  Q 42.671875 74.21875 48.875 69.140625  Q 55.078125 64.0625 55.078125 55.328125  Q 55.078125 49.078125 51.53125 44.71875  Q 48 40.375 41.703125 38.8125  Q 48.828125 37.15625 52.796875 32.3125  Q 56.78125 27.484375 56.78125 20.515625  Q 56.78125 9.90625 50.3125 4.234375  Q 43.84375 -1.421875 31.78125 -1.421875  Q 19.734375 -1.421875 13.25 4.234375  Q 6.78125 9.90625 6.78125 20.515625  Q 6.78125 27.484375 10.78125 32.3125  Q 14.796875 37.15625 21.921875 38.8125  z M 18.3125 54.390625  Q 18.3125 48.734375 21.84375 45.5625  Q 25.390625 42.390625 31.78125 42.390625  Q 38.140625 42.390625 41.71875 45.5625  Q 45.3125 48.734375 45.3125 54.390625  Q 45.3125 60.0625 41.71875 63.234375  Q 38.140625 66.40625 31.78125 66.40625  Q 25.390625 66.40625 21.84375 63.234375  Q 18.3125 60.0625 18.3125 54.390625  z " id="DejaVuSans-56"/>
      </defs>
      <g transform="translate(273.132226 239.238437)scale(0.1 -0.1)">
       <use xlink:href="#DejaVuSans-48"/>
       <use x="63.623047" xlink:href="#DejaVuSans-46"/>
       <use x="95.410156" xlink:href="#DejaVuSans-56"/>
      </g>
     </g>
    </g>
    <g id="xtick_6">
     <g id="line2d_6">
      <g>
       <use style="stroke:#000000;stroke-width:0.8;" x="339.49742" xlink:href="#m220986e17f" y="224.64"/>
      </g>
     </g>
     <g id="text_6">
      <!-- 1.0 -->
      <defs>
       <path d="M 12.40625 8.296875  L 28.515625 8.296875  L 28.515625 63.921875  L 10.984375 60.40625  L 10.984375 69.390625  L 28.421875 72.90625  L 38.28125 72.90625  L 38.28125 8.296875  L 54.390625 8.296875  L 54.390625 0  L 12.40625 0  z " id="DejaVuSans-49"/>
      </defs>
      <g transform="translate(331.545857 239.238437)scale(0.1 -0.1)">
       <use xlink:href="#DejaVuSans-49"/>
       <use x="63.623047" xlink:href="#DejaVuSans-46"/>
       <use x="95.410156" xlink:href="#DejaVuSans-48"/>
      </g>
     </g>
    </g>
   </g>
   <g id="matplotlib.axis_2">
    <g id="ytick_1">
     <g id="line2d_7">
      <defs>
       <path d="M 0 0  L -3.5 0  " id="m53cdf85080" style="stroke:#000000;stroke-width:0.8;"/>
      </defs>
      <g>
       <use style="stroke:#000000;stroke-width:0.8;" x="30.103125" xlink:href="#m53cdf85080" y="212.848779"/>
      </g>
     </g>
     <g id="text_7">
      <!-- 0.0 -->
      <g transform="translate(7.2 216.647998)scale(0.1 -0.1)">
       <use xlink:href="#DejaVuSans-48"/>
       <use x="63.623047" xlink:href="#DejaVuSans-46"/>
       <use x="95.410156" xlink:href="#DejaVuSans-48"/>
      </g>
     </g>
    </g>
    <g id="ytick_2">
     <g id="line2d_8">
      <g>
       <use style="stroke:#000000;stroke-width:0.8;" x="30.103125" xlink:href="#m53cdf85080" y="179.626937"/>
      </g>
     </g>
     <g id="text_8">
      <!-- 0.2 -->
      <g transform="translate(7.2 183.426156)scale(0.1 -0.1)">
       <use xlink:href="#DejaVuSans-48"/>
       <use x="63.623047" xlink:href="#DejaVuSans-46"/>
       <use x="95.410156" xlink:href="#DejaVuSans-50"/>
      </g>
     </g>
    </g>
    <g id="ytick_3">
     <g id="line2d_9">
      <g>
       <use style="stroke:#000000;stroke-width:0.8;" x="30.103125" xlink:href="#m53cdf85080" y="146.405095"/>
      </g>
     </g>
     <g id="text_9">
      <!-- 0.4 -->
      <g transform="translate(7.2 150.204314)scale(0.1 -0.1)">
       <use xlink:href="#DejaVuSans-48"/>
       <use x="63.623047" xlink:href="#DejaVuSans-46"/>
       <use x="95.410156" xlink:href="#DejaVuSans-52"/>
      </g>
     </g>
    </g>
    <g id="ytick_4">
     <g id="line2d_10">
      <g>
       <use style="stroke:#000000;stroke-width:0.8;" x="30.103125" xlink:href="#m53cdf85080" y="113.183253"/>
      </g>
     </g>
     <g id="text_10">
      <!-- 0.6 -->
      <g transform="translate(7.2 116.982472)scale(0.1 -0.1)">
       <use xlink:href="#DejaVuSans-48"/>
       <use x="63.623047" xlink:href="#DejaVuSans-46"/>
       <use x="95.410156" xlink:href="#DejaVuSans-54"/>
      </g>
     </g>
    </g>
    <g id="ytick_5">
     <g id="line2d_11">
      <g>
       <use style="stroke:#000000;stroke-width:0.8;" x="30.103125" xlink:href="#m53cdf85080" y="79.961411"/>
      </g>
     </g>
     <g id="text_11">
      <!-- 0.8 -->
      <g transform="translate(7.2 83.76063)scale(0.1 -0.1)">
       <use xlink:href="#DejaVuSans-48"/>
       <use x="63.623047" xlink:href="#DejaVuSans-46"/>
       <use x="95.410156" xlink:href="#DejaVuSans-56"/>
      </g>
     </g>
    </g>
    <g id="ytick_6">
     <g id="line2d_12">
      <g>
       <use style="stroke:#000000;stroke-width:0.8;" x="30.103125" xlink:href="#m53cdf85080" y="46.739569"/>
      </g>
     </g>
     <g id="text_12">
      <!-- 1.0 -->
      <g transform="translate(7.2 50.538788)scale(0.1 -0.1)">
       <use xlink:href="#DejaVuSans-49"/>
       <use x="63.623047" xlink:href="#DejaVuSans-46"/>
       <use x="95.410156" xlink:href="#DejaVuSans-48"/>
      </g>
     </g>
    </g>
    <g id="ytick_7">
     <g id="line2d_13">
      <g>
       <use style="stroke:#000000;stroke-width:0.8;" x="30.103125" xlink:href="#m53cdf85080" y="13.517727"/>
      </g>
     </g>
     <g id="text_13">
      <!-- 1.2 -->
      <g transform="translate(7.2 17.316945)scale(0.1 -0.1)">
       <use xlink:href="#DejaVuSans-49"/>
       <use x="63.623047" xlink:href="#DejaVuSans-46"/>
       <use x="95.410156" xlink:href="#DejaVuSans-50"/>
      </g>
     </g>
    </g>
   </g>
   <g id="patch_3">
    <path d="M 30.103125 224.64  L 30.103125 7.2  " style="fill:none;stroke:#000000;stroke-linecap:square;stroke-linejoin:miter;stroke-width:0.8;"/>
   </g>
   <g id="patch_4">
    <path d="M 364.903125 224.64  L 364.903125 7.2  " style="fill:none;stroke:#000000;stroke-linecap:square;stroke-linejoin:miter;stroke-width:0.8;"/>
   </g>
   <g id="patch_5">
    <path d="M 30.103125 224.64  L 364.903125 224.64  " style="fill:none;stroke:#000000;stroke-linecap:square;stroke-linejoin:miter;stroke-width:0.8;"/>
   </g>
   <g id="patch_6">
    <path d="M 30.103125 7.2  L 364.903125 7.2  " style="fill:none;stroke:#000000;stroke-linecap:square;stroke-linejoin:miter;stroke-width:0.8;"/>
   </g>
  </g>
 </g>
 <defs>
  <clipPath id="p0f8d9851be">
   <rect height="217.44" width="334.8" x="30.103125" y="7.2"/>
  </clipPath>
 </defs>
</svg>