<?xml version="1.0" encoding="UTF-8" standalone="no"?>
<!DOCTYPE svg PUBLIC "-//W3C//DTD SVG 1.1//EN" "http://www.w3.org/Graphics/SVG/1.1/DTD/svg11.dtd">
<!-- Created with matplotlib (https://matplotlib.org/) -->
<svg height="248.518125pt" version="1.1" viewBox="0 0 362.5625 248.518125" width="362.5625pt" xmlns="http://www.w3.org/2000/svg" xmlns:xlink="http://www.w3.org/1999/xlink">
 <defs>
  <style type="text/css">
*{stroke-linecap:butt;stroke-linejoin:round;}
  </style>
 </defs>
 <g id="figure_1">
  <g id="patch_1">
   <path d="M 0 248.518125  L 362.5625 248.518125  L 362.5625 0  L 0 0  z " style="fill:none;"/>
  </g>
  <g id="axes_1">
   <g id="patch_2">
    <path d="M 20.5625 224.64  L 355.3625 224.64  L 355.3625 7.2  L 20.5625 7.2  z " style="fill:#ffffff;"/>
   </g>
   <g id="patch_3">
    <path clip-path="url(#p9a4306f790)" d="M 35.780682 224.64  L 69.598864 224.64  L 69.598864 176.480532  L 35.780682 176.480532  z " style="fill:#008000;"/>
   </g>
   <g id="patch_4">
    <path clip-path="url(#p9a4306f790)" d="M 103.417045 224.64  L 137.235227 224.64  L 137.235227 128.321063  L 103.417045 128.321063  z " style="fill:#008000;"/>
   </g>
   <g id="patch_5">
    <path clip-path="url(#p9a4306f790)" d="M 171.053409 224.64  L 204.871591 224.64  L 204.871591 80.161595  L 171.053409 80.161595  z " style="fill:#008000;"/>
   </g>
   <g id="patch_6">
    <path clip-path="url(#p9a4306f790)" d="M 238.689773 224.64  L 272.507955 224.64  L 272.507955 128.321063  L 238.689773 128.321063  z " style="fill:#008000;"/>
   </g>
   <g id="patch_7">
    <path clip-path="url(#p9a4306f790)" d="M 306.326136 224.64  L 340.144318 224.64  L 340.144318 176.480532  L 306.326136 176.480532  z " style="fill:#008000;"/>
   </g>
   <g id="patch_8">
    <path clip-path="url(#p9a4306f790)" d="M 35.780682 176.480532  L 69.598864 176.480532  L 69.598864 32.002126  L 35.780682 32.002126  z " style="fill:#0000ff;"/>
   </g>
   <g id="patch_9">
    <path clip-path="url(#p9a4306f790)" d="M 103.417045 128.321063  L 137.235227 128.321063  L 137.235227 32.002126  L 103.417045 32.002126  z " style="fill:#0000ff;"/>
   </g>
   <g id="patch_10">
    <path clip-path="url(#p9a4306f790)" d="M 171.053409 80.161595  L 204.871591 80.161595  L 204.871591 32.002126  L 171.053409 32.002126  z " style="fill:#0000ff;"/>
   </g>
   <g id="patch_11">
    <path clip-path="url(#p9a4306f790)" d="M 238.689773 128.321063  L 272.507955 128.321063  L 272.507955 32.002126  L 238.689773 32.002126  z " style="fill:#0000ff;"/>
   </g>
   <g id="patch_12">
    <path clip-path="url(#p9a4306f790)" d="M 306.326136 176.480532  L 340.144318 176.480532  L 340.144318 32.002126  L 306.326136 32.002126  z " style="fill:#0000ff;"/>
   </g>
   <g id="matplotlib.axis_1">
    <g id="xtick_1">
     <g id="line2d_1">
      <defs>
       <path d="M 0 0  L 0 3.5  " id="mbb1a30fdd4" style="stroke:#000000;stroke-width:0.8;"/>
      </defs>
      <g>
       <use style="stroke:#000000;stroke-width:0.8;" x="52.689773" xlink:href="#mbb1a30fdd4" y="224.64"/>
      </g>
     </g>
     <g id="text_1">
      <!-- 0 -->
      <defs>
       <path d="M 31.78125 66.40625  Q 24.171875 66.40625 20.328125 58.90625  Q 16.5 51.421875 16.5 36.375  Q 16.5 21.390625 20.328125 13.890625  Q 24.171875 6.390625 31.78125 6.390625  Q 39.453125 6.390625 43.28125 13.890625  Q 47.125 21.390625 47.125 36.375  Q 47.125 51.421875 43.28125 58.90625  Q 39.453125 66.40625 31.78125 66.40625  z M 31.78125 74.21875  Q 44.046875 74.21875 50.515625 64.515625  Q 56.984375 54.828125 56.984375 36.375  Q 56.984375 17.96875 50.515625 8.265625  Q 44.046875 -1.421875 31.78125 -1.421875  Q 19.53125 -1.421875 13.0625 8.265625  Q 6.59375 17.96875 6.59375 36.375  Q 6.59375 54.828125 13.0625 64.515625  Q 19.53125 74.21875 31.78125 74.21875  z " id="DejaVuSans-48"/>
      </defs>
      <g transform="translate(49.508523 239.238438)scale(0.1 -0.1)">
       <use xlink:href="#DejaVuSans-48"/>
      </g>
     </g>
    </g>
    <g id="xtick_2">
     <g id="line2d_2">
      <g>
       <use style="stroke:#000000;stroke-width:0.8;" x="120.326136" xlink:href="#mbb1a30fdd4" y="224.64"/>
      </g>
     </g>
     <g id="text_2">
      <!-- 1 -->
      <defs>
       <path d="M 12.40625 8.296875  L 28.515625 8.296875  L 28.515625 63.921875  L 10.984375 60.40625  L 10.984375 69.390625  L 28.421875 72.90625  L 38.28125 72.90625  L 38.28125 8.296875  L 54.390625 8.296875  L 54.390625 0  L 12.40625 0  z " id="DejaVuSans-49"/>
      </defs>
      <g transform="translate(117.144886 239.238438)scale(0.1 -0.1)">
       <use xlink:href="#DejaVuSans-49"/>
      </g>
     </g>
    </g>
    <g id="xtick_3">
     <g id="line2d_3">
      <g>
       <use style="stroke:#000000;stroke-width:0.8;" x="187.9625" xlink:href="#mbb1a30fdd4" y="224.64"/>
      </g>
     </g>
     <g id="text_3">
      <!-- 2 -->
      <defs>
       <path d="M 19.1875 8.296875  L 53.609375 8.296875  L 53.609375 0  L 7.328125 0  L 7.328125 8.296875  Q 12.9375 14.109375 22.625 23.890625  Q 32.328125 33.6875 34.8125 36.53125  Q 39.546875 41.84375 41.421875 45.53125  Q 43.3125 49.21875 43.3125 52.78125  Q 43.3125 58.59375 39.234375 62.25  Q 35.15625 65.921875 28.609375 65.921875  Q 23.96875 65.921875 18.8125 64.3125  Q 13.671875 62.703125 7.8125 59.421875  L 7.8125 69.390625  Q 13.765625 71.78125 18.9375 73  Q 24.125 74.21875 28.421875 74.21875  Q 39.75 74.21875 46.484375 68.546875  Q 53.21875 62.890625 53.21875 53.421875  Q 53.21875 48.921875 51.53125 44.890625  Q 49.859375 40.875 45.40625 35.40625  Q 44.1875 33.984375 37.640625 27.21875  Q 31.109375 20.453125 19.1875 8.296875  z " id="DejaVuSans-50"/>
      </defs>
      <g transform="translate(184.78125 239.238438)scale(0.1 -0.1)">
       <use xlink:href="#DejaVuSans-50"/>
      </g>
     </g>
    </g>
    <g id="xtick_4">
     <g id="line2d_4">
      <g>
       <use style="stroke:#000000;stroke-width:0.8;" x="255.598864" xlink:href="#mbb1a30fdd4" y="224.64"/>
      </g>
     </g>
     <g id="text_4">
      <!-- 3 -->
      <defs>
       <path d="M 40.578125 39.3125  Q 47.65625 37.796875 51.625 33  Q 55.609375 28.21875 55.609375 21.1875  Q 55.609375 10.40625 48.1875 4.484375  Q 40.765625 -1.421875 27.09375 -1.421875  Q 22.515625 -1.421875 17.65625 -0.515625  Q 12.796875 0.390625 7.625 2.203125  L 7.625 11.71875  Q 11.71875 9.328125 16.59375 8.109375  Q 21.484375 6.890625 26.8125 6.890625  Q 36.078125 6.890625 40.9375 10.546875  Q 45.796875 14.203125 45.796875 21.1875  Q 45.796875 27.640625 41.28125 31.265625  Q 36.765625 34.90625 28.71875 34.90625  L 20.21875 34.90625  L 20.21875 43.015625  L 29.109375 43.015625  Q 36.375 43.015625 40.234375 45.921875  Q 44.09375 48.828125 44.09375 54.296875  Q 44.09375 59.90625 40.109375 62.90625  Q 36.140625 65.921875 28.71875 65.921875  Q 24.65625 65.921875 20.015625 65.03125  Q 15.375 64.15625 9.8125 62.3125  L 9.8125 71.09375  Q 15.4375 72.65625 20.34375 73.4375  Q 25.25 74.21875 29.59375 74.21875  Q 40.828125 74.21875 47.359375 69.109375  Q 53.90625 64.015625 53.90625 55.328125  Q 53.90625 49.265625 50.4375 45.09375  Q 46.96875 40.921875 40.578125 39.3125  z " id="DejaVuSans-51"/>
      </defs>
      <g transform="translate(252.417614 239.238438)scale(0.1 -0.1)">
       <use xlink:href="#DejaVuSans-51"/>
      </g>
     </g>
    </g>
    <g id="xtick_5">
     <g id="line2d_5">
      <g>
       <use style="stroke:#000000;stroke-width:0.8;" x="323.235227" xlink:href="#mbb1a30fdd4" y="224.64"/>
      </g>
     </g>
     <g id="text_5">
      <!-- 4 -->
      <defs>
       <path d="M 37.796875 64.3125  L 12.890625 25.390625  L 37.796875 25.390625  z M 35.203125 72.90625  L 47.609375 72.90625  L 47.609375 25.390625  L 58.015625 25.390625  L 58.015625 17.1875  L 47.609375 17.1875  L 47.609375 0  L 37.796875 0  L 37.796875 17.1875  L 4.890625 17.1875  L 4.890625 26.703125  z " id="DejaVuSans-52"/>
      </defs>
      <g transform="translate(320.053977 239.238438)scale(0.1 -0.1)">
       <use xlink:href="#DejaVuSans-52"/>
      </g>
     </g>
    </g>
   </g>
   <g id="matplotlib.axis_2">
    <g id="ytick_1">
     <g id="line2d_6">
      <defs>
       <path d="M 0 0  L -3.5 0  " id="m38e1d978b2" style="stroke:#000000;stroke-width:0.8;"/>
      </defs>
      <g>
       <use style="stroke:#000000;stroke-width:0.8;" x="20.5625" xlink:href="#m38e1d978b2" y="224.64"/>
      </g>
     </g>
     <g id="text_6">
      <!-- 0 -->
      <g transform="translate(7.2 228.439219)scale(0.1 -0.1)">
       <use xlink:href="#DejaVuSans-48"/>
      </g>
     </g>
    </g>
    <g id="ytick_2">
     <g id="line2d_7">
      <g>
       <use style="stroke:#000000;stroke-width:0.8;" x="20.5625" xlink:href="#m38e1d978b2" y="176.480532"/>
      </g>
     </g>
     <g id="text_7">
      <!-- 1 -->
      <g transform="translate(7.2 180.27975)scale(0.1 -0.1)">
       <use xlink:href="#DejaVuSans-49"/>
      </g>
     </g>
    </g>
    <g id="ytick_3">
     <g id="line2d_8">
      <g>
       <use style="stroke:#000000;stroke-width:0.8;" x="20.5625" xlink:href="#m38e1d978b2" y="128.321063"/>
      </g>
     </g>
     <g id="text_8">
      <!-- 2 -->
      <g transform="translate(7.2 132.120282)scale(0.1 -0.1)">
       <use xlink:href="#DejaVuSans-50"/>
      </g>
     </g>
    </g>
    <g id="ytick_4">
     <g id="line2d_9">
      <g>
       <use style="stroke:#000000;stroke-width:0.8;" x="20.5625" xlink:href="#m38e1d978b2" y="80.161595"/>
      </g>
     </g>
     <g id="text_9">
      <!-- 3 -->
      <g transform="translate(7.2 83.960813)scale(0.1 -0.1)">
       <use xlink:href="#DejaVuSans-51"/>
      </g>
     </g>
    </g>
    <g id="ytick_5">
     <g id="line2d_10">
      <g>
       <use style="stroke:#000000;stroke-width:0.8;" x="20.5625" xlink:href="#m38e1d978b2" y="32.002126"/>
      </g>
     </g>
     <g id="text_10">
      <!-- 4 -->
      <g transform="translate(7.2 35.801345)scale(0.1 -0.1)">
       <use xlink:href="#DejaVuSans-52"/>
      </g>
     </g>
    </g>
   </g>
   <g id="LineCollection_1">
    <path clip-path="url(#p9a4306f790)" d="M 52.689773 181.296478  L 52.689773 171.664585  " style="fill:none;stroke:#000000;stroke-width:1.5;"/>
    <path clip-path="url(#p9a4306f790)" d="M 120.326136 137.952957  L 120.326136 118.689169  " style="fill:none;stroke:#000000;stroke-width:1.5;"/>
    <path clip-path="url(#p9a4306f790)" d="M 187.9625 94.609435  L 187.9625 65.713754  " style="fill:none;stroke:#000000;stroke-width:1.5;"/>
    <path clip-path="url(#p9a4306f790)" d="M 255.598864 137.952957  L 255.598864 118.689169  " style="fill:none;stroke:#000000;stroke-width:1.5;"/>
    <path clip-path="url(#p9a4306f790)" d="M 323.235227 181.296478  L 323.235227 171.664585  " style="fill:none;stroke:#000000;stroke-width:1.5;"/>
   </g>
   <g id="LineCollection_2">
    <path clip-path="url(#p9a4306f790)" d="M 52.689773 32.002126  L 52.689773 32.002126  " style="fill:none;stroke:#000000;stroke-width:1.5;"/>
    <path clip-path="url(#p9a4306f790)" d="M 120.326136 41.63402  L 120.326136 22.370233  " style="fill:none;stroke:#000000;stroke-width:1.5;"/>
    <path clip-path="url(#p9a4306f790)" d="M 187.9625 32.002126  L 187.9625 32.002126  " style="fill:none;stroke:#000000;stroke-width:1.5;"/>
    <path clip-path="url(#p9a4306f790)" d="M 255.598864 41.63402  L 255.598864 22.370233  " style="fill:none;stroke:#000000;stroke-width:1.5;"/>
    <path clip-path="url(#p9a4306f790)" d="M 323.235227 46.449967  L 323.235227 17.554286  " style="fill:none;stroke:#000000;stroke-width:1.5;"/>
   </g>
   <g id="patch_13">
    <path d="M 20.5625 224.64  L 20.5625 7.2  " style="fill:none;stroke:#000000;stroke-linecap:square;stroke-linejoin:miter;stroke-width:0.8;"/>
   </g>
   <g id="patch_14">
    <path d="M 355.3625 224.64  L 355.3625 7.2  " style="fill:none;stroke:#000000;stroke-linecap:square;stroke-linejoin:miter;stroke-width:0.8;"/>
   </g>
   <g id="patch_15">
    <path d="M 20.5625 224.64  L 355.3625 224.64  " style="fill:none;stroke:#000000;stroke-linecap:square;stroke-linejoin:miter;stroke-width:0.8;"/>
   </g>
   <g id="patch_16">
    <path d="M 20.5625 7.2  L 355.3625 7.2  " style="fill:none;stroke:#000000;stroke-linecap:square;stroke-linejoin:miter;stroke-width:0.8;"/>
   </g>
   <g id="legend_1">
    <g id="patch_17">
     <path d="M 309.501563 44.55625  L 348.3625 44.55625  Q 350.3625 44.55625 350.3625 42.55625  L 350.3625 14.2  Q 350.3625 12.2 348.3625 12.2  L 309.501563 12.2  Q 307.501563 12.2 307.501563 14.2  L 307.501563 42.55625  Q 307.501563 44.55625 309.501563 44.55625  z " style="fill:#ffffff;opacity:0.8;stroke:#cccccc;stroke-linejoin:miter;"/>
    </g>
    <g id="patch_18">
     <path d="M 311.501563 23.798437  L 331.501563 23.798437  L 331.501563 16.798437  L 311.501563 16.798437  z " style="fill:#008000;"/>
    </g>
    <g id="text_11">
     <!-- A -->
     <defs>
      <path d="M 34.1875 63.1875  L 20.796875 26.90625  L 47.609375 26.90625  z M 28.609375 72.90625  L 39.796875 72.90625  L 67.578125 0  L 57.328125 0  L 50.6875 18.703125  L 17.828125 18.703125  L 11.1875 0  L 0.78125 0  z " id="DejaVuSans-65"/>
     </defs>
     <g transform="translate(339.501563 23.798437)scale(0.1 -0.1)">
      <use xlink:href="#DejaVuSans-65"/>
     </g>
    </g>
    <g id="patch_19">
     <path d="M 311.501563 38.476562  L 331.501563 38.476562  L 331.501563 31.476562  L 311.501563 31.476562  z " style="fill:#0000ff;"/>
    </g>
    <g id="text_12">
     <!-- B -->
     <defs>
      <path d="M 19.671875 34.8125  L 19.671875 8.109375  L 35.5 8.109375  Q 43.453125 8.109375 47.28125 11.40625  Q 51.125 14.703125 51.125 21.484375  Q 51.125 28.328125 47.28125 31.5625  Q 43.453125 34.8125 35.5 34.8125  z M 19.671875 64.796875  L 19.671875 42.828125  L 34.28125 42.828125  Q 41.5 42.828125 45.03125 45.53125  Q 48.578125 48.25 48.578125 53.8125  Q 48.578125 59.328125 45.03125 62.0625  Q 41.5 64.796875 34.28125 64.796875  z M 9.8125 72.90625  L 35.015625 72.90625  Q 46.296875 72.90625 52.390625 68.21875  Q 58.5 63.53125 58.5 54.890625  Q 58.5 48.1875 55.375 44.234375  Q 52.25 40.28125 46.1875 39.3125  Q 53.46875 37.75 57.5 32.78125  Q 61.53125 27.828125 61.53125 20.40625  Q 61.53125 10.640625 54.890625 5.3125  Q 48.25 0 35.984375 0  L 9.8125 0  z " id="DejaVuSans-66"/>
     </defs>
     <g transform="translate(339.501563 38.476562)scale(0.1 -0.1)">
      <use xlink:href="#DejaVuSans-66"/>
     </g>
    </g>
   </g>
  </g>
 </g>
 <defs>
  <clipPath id="p9a4306f790">
   <rect height="217.44" width="334.8" x="20.5625" y="7.2"/>
  </clipPath>
 </defs>
</svg>