<?xml version="1.0" encoding="UTF-8" standalone="no"?>
<!DOCTYPE svg PUBLIC "-//W3C//DTD SVG 1.1//EN" "http://www.w3.org/Graphics/SVG/1.1/DTD/svg11.dtd">
<!-- Created with matplotlib (https://matplotlib.org/) -->
<svg height="277.232625pt" version="1.1" viewBox="0 0 378.465625 277.232625" width="378.465625pt" xmlns="http://www.w3.org/2000/svg" xmlns:xlink="http://www.w3.org/1999/xlink">
 <defs>
  <style type="text/css">
*{stroke-linecap:butt;stroke-linejoin:round;}
  </style>
 </defs>
 <g id="figure_1">
  <g id="patch_1">
   <path d="M 0 277.232625  L 378.465625 277.232625  L 378.465625 0  L 0 0  z " style="fill:none;"/>
  </g>
  <g id="axes_1">
   <g id="patch_2">
    <path d="M 36.465625 253.3545  L 371.265625 253.3545  L 371.265625 35.9145  L 36.465625 35.9145  z " style="fill:#ffffff;"/>
   </g>
   <g id="matplotlib.axis_1">
    <g id="xtick_1">
     <g id="line2d_1">
      <defs>
       <path d="M 0 0  L 0 3.5  " id="m08ed95d33a" style="stroke:#000000;stroke-width:0.8;"/>
      </defs>
      <g>
       <use style="stroke:#000000;stroke-width:0.8;" x="69.945625" xlink:href="#m08ed95d33a" y="253.3545"/>
      </g>
     </g>
     <g id="text_1">
      <!-- 0.6 -->
      <defs>
       <path d="M 31.78125 66.40625  Q 24.171875 66.40625 20.328125 58.90625  Q 16.5 51.421875 16.5 36.375  Q 16.5 21.390625 20.328125 13.890625  Q 24.171875 6.390625 31.78125 6.390625  Q 39.453125 6.390625 43.28125 13.890625  Q 47.125 21.390625 47.125 36.375  Q 47.125 51.421875 43.28125 58.90625  Q 39.453125 66.40625 31.78125 66.40625  z M 31.78125 74.21875  Q 44.046875 74.21875 50.515625 64.515625  Q 56.984375 54.828125 56.984375 36.375  Q 56.984375 17.96875 50.515625 8.265625  Q 44.046875 -1.421875 31.78125 -1.421875  Q 19.53125 -1.421875 13.0625 8.265625  Q 6.59375 17.96875 6.59375 36.375  Q 6.59375 54.828125 13.0625 64.515625  Q 19.53125 74.21875 31.78125 74.21875  z " id="DejaVuSans-48"/>
       <path d="M 10.6875 12.40625  L 21 12.40625  L 21 0  L 10.6875 0  z " id="DejaVuSans-46"/>
       <path d="M 33.015625 40.375  Q 26.375 40.375 22.484375 35.828125  Q 18.609375 31.296875 18.609375 23.390625  Q 18.609375 15.53125 22.484375 10.953125  Q 26.375 6.390625 33.015625 6.390625  Q 39.65625 6.390625 43.53125 10.953125  Q 47.40625 15.53125 47.40625 23.390625  Q 47.40625 31.296875 43.53125 35.828125  Q 39.65625 40.375 33.015625 40.375  z M 52.59375 71.296875  L 52.59375 62.3125  Q 48.875 64.0625 45.09375 64.984375  Q 41.3125 65.921875 37.59375 65.921875  Q 27.828125 65.921875 22.671875 59.328125  Q 17.53125 52.734375 16.796875 39.40625  Q 19.671875 43.65625 24.015625 45.921875  Q 28.375 48.1875 33.59375 48.1875  Q 44.578125 48.1875 50.953125 41.515625  Q 57.328125 34.859375 57.328125 23.390625  Q 57.328125 12.15625 50.6875 5.359375  Q 44.046875 -1.421875 33.015625 -1.421875  Q 20.359375 -1.421875 13.671875 8.265625  Q 6.984375 17.96875 6.984375 36.375  Q 6.984375 53.65625 15.1875 63.9375  Q 23.390625 74.21875 37.203125 74.21875  Q 40.921875 74.21875 44.703125 73.484375  Q 48.484375 72.75 52.59375 71.296875  z " id="DejaVuSans-54"/>
      </defs>
      <g transform="translate(61.994063 267.952937)scale(0.1 -0.1)">
       <use xlink:href="#DejaVuSans-48"/>
       <use x="63.623047" xlink:href="#DejaVuSans-46"/>
       <use x="95.410156" xlink:href="#DejaVuSans-54"/>
      </g>
     </g>
    </g>
    <g id="xtick_2">
     <g id="line2d_2">
      <g>
       <use style="stroke:#000000;stroke-width:0.8;" x="136.905625" xlink:href="#m08ed95d33a" y="253.3545"/>
      </g>
     </g>
     <g id="text_2">
      <!-- 0.8 -->
      <defs>
       <path d="M 31.78125 34.625  Q 24.75 34.625 20.71875 30.859375  Q 16.703125 27.09375 16.703125 20.515625  Q 16.703125 13.921875 20.71875 10.15625  Q 24.75 6.390625 31.78125 6.390625  Q 38.8125 6.390625 42.859375 10.171875  Q 46.921875 13.96875 46.921875 20.515625  Q 46.921875 27.09375 42.890625 30.859375  Q 38.875 34.625 31.78125 34.625  z M 21.921875 38.8125  Q 15.578125 40.375 12.03125 44.71875  Q 8.5 49.078125 8.5 55.328125  Q 8.5 64.0625 14.71875 69.140625  Q 20.953125 74.21875 31.78125 74.21875  Q 42.671875 74.21875 48.875 69.140625  Q 55.078125 64.0625 55.078125 55.328125  Q 55.078125 49.078125 51.53125 44.71875  Q 48 40.375 41.703125 38.8125  Q 48.828125 37.15625 52.796875 32.3125  Q 56.78125 27.484375 56.78125 20.515625  Q 56.78125 9.90625 50.3125 4.234375  Q 43.84375 -1.421875 31.78125 -1.421875  Q 19.734375 -1.421875 13.25 4.234375  Q 6.78125 9.90625 6.78125 20.515625  Q 6.78125 27.484375 10.78125 32.3125  Q 14.796875 37.15625 21.921875 38.8125  z M 18.3125 54.390625  Q 18.3125 48.734375 21.84375 45.5625  Q 25.390625 42.390625 31.78125 42.390625  Q 38.140625 42.390625 41.71875 45.5625  Q 45.3125 48.734375 45.3125 54.390625  Q 45.3125 60.0625 41.71875 63.234375  Q 38.140625 66.40625 31.78125 66.40625  Q 25.390625 66.40625 21.84375 63.234375  Q 18.3125 60.0625 18.3125 54.390625  z " id="DejaVuSans-56"/>
      </defs>
      <g transform="translate(128.954063 267.952937)scale(0.1 -0.1)">
       <use xlink:href="#DejaVuSans-48"/>
       <use x="63.623047" xlink:href="#DejaVuSans-46"/>
       <use x="95.410156" xlink:href="#DejaVuSans-56"/>
      </g>
     </g>
    </g>
    <g id="xtick_3">
     <g id="line2d_3">
      <g>
       <use style="stroke:#000000;stroke-width:0.8;" x="203.865625" xlink:href="#m08ed95d33a" y="253.3545"/>
      </g>
     </g>
     <g id="text_3">
      <!-- 1.0 -->
      <defs>
       <path d="M 12.40625 8.296875  L 28.515625 8.296875  L 28.515625 63.921875  L 10.984375 60.40625  L 10.984375 69.390625  L 28.421875 72.90625  L 38.28125 72.90625  L 38.28125 8.296875  L 54.390625 8.296875  L 54.390625 0  L 12.40625 0  z " id="DejaVuSans-49"/>
      </defs>
      <g transform="translate(195.914063 267.952937)scale(0.1 -0.1)">
       <use xlink:href="#DejaVuSans-49"/>
       <use x="63.623047" xlink:href="#DejaVuSans-46"/>
       <use x="95.410156" xlink:href="#DejaVuSans-48"/>
      </g>
     </g>
    </g>
    <g id="xtick_4">
     <g id="line2d_4">
      <g>
       <use style="stroke:#000000;stroke-width:0.8;" x="270.825625" xlink:href="#m08ed95d33a" y="253.3545"/>
      </g>
     </g>
     <g id="text_4">
      <!-- 1.2 -->
      <defs>
       <path d="M 19.1875 8.296875  L 53.609375 8.296875  L 53.609375 0  L 7.328125 0  L 7.328125 8.296875  Q 12.9375 14.109375 22.625 23.890625  Q 32.328125 33.6875 34.8125 36.53125  Q 39.546875 41.84375 41.421875 45.53125  Q 43.3125 49.21875 43.3125 52.78125  Q 43.3125 58.59375 39.234375 62.25  Q 35.15625 65.921875 28.609375 65.921875  Q 23.96875 65.921875 18.8125 64.3125  Q 13.671875 62.703125 7.8125 59.421875  L 7.8125 69.390625  Q 13.765625 71.78125 18.9375 73  Q 24.125 74.21875 28.421875 74.21875  Q 39.75 74.21875 46.484375 68.546875  Q 53.21875 62.890625 53.21875 53.421875  Q 53.21875 48.921875 51.53125 44.890625  Q 49.859375 40.875 45.40625 35.40625  Q 44.1875 33.984375 37.640625 27.21875  Q 31.109375 20.453125 19.1875 8.296875  z " id="DejaVuSans-50"/>
      </defs>
      <g transform="translate(262.874063 267.952937)scale(0.1 -0.1)">
       <use xlink:href="#DejaVuSans-49"/>
       <use x="63.623047" xlink:href="#DejaVuSans-46"/>
       <use x="95.410156" xlink:href="#DejaVuSans-50"/>
      </g>
     </g>
    </g>
    <g id="xtick_5">
     <g id="line2d_5">
      <g>
       <use style="stroke:#000000;stroke-width:0.8;" x="337.785625" xlink:href="#m08ed95d33a" y="253.3545"/>
      </g>
     </g>
     <g id="text_5">
      <!-- 1.4 -->
      <defs>
       <path d="M 37.796875 64.3125  L 12.890625 25.390625  L 37.796875 25.390625  z M 35.203125 72.90625  L 47.609375 72.90625  L 47.609375 25.390625  L 58.015625 25.390625  L 58.015625 17.1875  L 47.609375 17.1875  L 47.609375 0  L 37.796875 0  L 37.796875 17.1875  L 4.890625 17.1875  L 4.890625 26.703125  z " id="DejaVuSans-52"/>
      </defs>
      <g transform="translate(329.834062 267.952937)scale(0.1 -0.1)">
       <use xlink:href="#DejaVuSans-49"/>
       <use x="63.623047" xlink:href="#DejaVuSans-46"/>
       <use x="95.410156" xlink:href="#DejaVuSans-52"/>
      </g>
     </g>
    </g>
   </g>
   <g id="matplotlib.axis_2">
    <g id="ytick_1">
     <g id="line2d_6">
      <defs>
       <path d="M 0 0  L -3.5 0  " id="mceeaf7eb35" style="stroke:#000000;stroke-width:0.8;"/>
      </defs>
      <g>
       <use style="stroke:#000000;stroke-width:0.8;" x="36.465625" xlink:href="#mceeaf7eb35" y="253.3545"/>
      </g>
     </g>
     <g id="text_6">
      <!-- 0.50 -->
      <defs>
       <path d="M 10.796875 72.90625  L 49.515625 72.90625  L 49.515625 64.59375  L 19.828125 64.59375  L 19.828125 46.734375  Q 21.96875 47.46875 24.109375 47.828125  Q 26.265625 48.1875 28.421875 48.1875  Q 40.625 48.1875 47.75 41.5  Q 54.890625 34.8125 54.890625 23.390625  Q 54.890625 11.625 47.5625 5.09375  Q 40.234375 -1.421875 26.90625 -1.421875  Q 22.3125 -1.421875 17.546875 -0.640625  Q 12.796875 0.140625 7.71875 1.703125  L 7.71875 11.625  Q 12.109375 9.234375 16.796875 8.0625  Q 21.484375 6.890625 26.703125 6.890625  Q 35.15625 6.890625 40.078125 11.328125  Q 45.015625 15.765625 45.015625 23.390625  Q 45.015625 31 40.078125 35.4375  Q 35.15625 39.890625 26.703125 39.890625  Q 22.75 39.890625 18.8125 39.015625  Q 14.890625 38.140625 10.796875 36.28125  z " id="DejaVuSans-53"/>
      </defs>
      <g transform="translate(7.2 257.153719)scale(0.1 -0.1)">
       <use xlink:href="#DejaVuSans-48"/>
       <use x="63.623047" xlink:href="#DejaVuSans-46"/>
       <use x="95.410156" xlink:href="#DejaVuSans-53"/>
       <use x="159.033203" xlink:href="#DejaVuSans-48"/>
      </g>
     </g>
    </g>
    <g id="ytick_2">
     <g id="line2d_7">
      <g>
       <use style="stroke:#000000;stroke-width:0.8;" x="36.465625" xlink:href="#mceeaf7eb35" y="226.1745"/>
      </g>
     </g>
     <g id="text_7">
      <!-- 0.75 -->
      <defs>
       <path d="M 8.203125 72.90625  L 55.078125 72.90625  L 55.078125 68.703125  L 28.609375 0  L 18.3125 0  L 43.21875 64.59375  L 8.203125 64.59375  z " id="DejaVuSans-55"/>
      </defs>
      <g transform="translate(7.2 229.973719)scale(0.1 -0.1)">
       <use xlink:href="#DejaVuSans-48"/>
       <use x="63.623047" xlink:href="#DejaVuSans-46"/>
       <use x="95.410156" xlink:href="#DejaVuSans-55"/>
       <use x="159.033203" xlink:href="#DejaVuSans-53"/>
      </g>
     </g>
    </g>
    <g id="ytick_3">
     <g id="line2d_8">
      <g>
       <use style="stroke:#000000;stroke-width:0.8;" x="36.465625" xlink:href="#mceeaf7eb35" y="198.9945"/>
      </g>
     </g>
     <g id="text_8">
      <!-- 1.00 -->
      <g transform="translate(7.2 202.793719)scale(0.1 -0.1)">
       <use xlink:href="#DejaVuSans-49"/>
       <use x="63.623047" xlink:href="#DejaVuSans-46"/>
       <use x="95.410156" xlink:href="#DejaVuSans-48"/>
       <use x="159.033203" xlink:href="#DejaVuSans-48"/>
      </g>
     </g>
    </g>
    <g id="ytick_4">
     <g id="line2d_9">
      <g>
       <use style="stroke:#000000;stroke-width:0.8;" x="36.465625" xlink:href="#mceeaf7eb35" y="171.8145"/>
      </g>
     </g>
     <g id="text_9">
      <!-- 1.25 -->
      <g transform="translate(7.2 175.613719)scale(0.1 -0.1)">
       <use xlink:href="#DejaVuSans-49"/>
       <use x="63.623047" xlink:href="#DejaVuSans-46"/>
       <use x="95.410156" xlink:href="#DejaVuSans-50"/>
       <use x="159.033203" xlink:href="#DejaVuSans-53"/>
      </g>
     </g>
    </g>
    <g id="ytick_5">
     <g id="line2d_10">
      <g>
       <use style="stroke:#000000;stroke-width:0.8;" x="36.465625" xlink:href="#mceeaf7eb35" y="144.6345"/>
      </g>
     </g>
     <g id="text_10">
      <!-- 1.50 -->
      <g transform="translate(7.2 148.433719)scale(0.1 -0.1)">
       <use xlink:href="#DejaVuSans-49"/>
       <use x="63.623047" xlink:href="#DejaVuSans-46"/>
       <use x="95.410156" xlink:href="#DejaVuSans-53"/>
       <use x="159.033203" xlink:href="#DejaVuSans-48"/>
      </g>
     </g>
    </g>
    <g id="ytick_6">
     <g id="line2d_11">
      <g>
       <use style="stroke:#000000;stroke-width:0.8;" x="36.465625" xlink:href="#mceeaf7eb35" y="117.4545"/>
      </g>
     </g>
     <g id="text_11">
      <!-- 1.75 -->
      <g transform="translate(7.2 121.253719)scale(0.1 -0.1)">
       <use xlink:href="#DejaVuSans-49"/>
       <use x="63.623047" xlink:href="#DejaVuSans-46"/>
       <use x="95.410156" xlink:href="#DejaVuSans-55"/>
       <use x="159.033203" xlink:href="#DejaVuSans-53"/>
      </g>
     </g>
    </g>
    <g id="ytick_7">
     <g id="line2d_12">
      <g>
       <use style="stroke:#000000;stroke-width:0.8;" x="36.465625" xlink:href="#mceeaf7eb35" y="90.2745"/>
      </g>
     </g>
     <g id="text_12">
      <!-- 2.00 -->
      <g transform="translate(7.2 94.073719)scale(0.1 -0.1)">
       <use xlink:href="#DejaVuSans-50"/>
       <use x="63.623047" xlink:href="#DejaVuSans-46"/>
       <use x="95.410156" xlink:href="#DejaVuSans-48"/>
       <use x="159.033203" xlink:href="#DejaVuSans-48"/>
      </g>
     </g>
    </g>
    <g id="ytick_8">
     <g id="line2d_13">
      <g>
       <use style="stroke:#000000;stroke-width:0.8;" x="36.465625" xlink:href="#mceeaf7eb35" y="63.0945"/>
      </g>
     </g>
     <g id="text_13">
      <!-- 2.25 -->
      <g transform="translate(7.2 66.893719)scale(0.1 -0.1)">
       <use xlink:href="#DejaVuSans-50"/>
       <use x="63.623047" xlink:href="#DejaVuSans-46"/>
       <use x="95.410156" xlink:href="#DejaVuSans-50"/>
       <use x="159.033203" xlink:href="#DejaVuSans-53"/>
      </g>
     </g>
    </g>
    <g id="ytick_9">
     <g id="line2d_14">
      <g>
       <use style="stroke:#000000;stroke-width:0.8;" x="36.465625" xlink:href="#mceeaf7eb35" y="35.9145"/>
      </g>
     </g>
     <g id="text_14">
      <!-- 2.50 -->
      <g transform="translate(7.2 39.713719)scale(0.1 -0.1)">
       <use xlink:href="#DejaVuSans-50"/>
       <use x="63.623047" xlink:href="#DejaVuSans-46"/>
       <use x="95.410156" xlink:href="#DejaVuSans-53"/>
       <use x="159.033203" xlink:href="#DejaVuSans-48"/>
      </g>
     </g>
    </g>
   </g>
   <g id="line2d_15">
    <path clip-path="url(#p2358ccc38f)" d="M -1 265.520757  L 17.865625 259.3945  L 92.265625 235.2345  L 166.665625 211.0745  L 241.065625 186.9145  L 315.465625 162.7545  L 379.465625 141.971704  " style="fill:none;stroke:#1f77b4;stroke-linecap:square;stroke-width:1.5;"/>
   </g>
   <g id="line2d_16">
    <path clip-path="url(#p2358ccc38f)" d="M 40.055325 278.232625  L 92.265625 259.3945  L 166.665625 221.812278  L 241.065625 173.492278  L 315.465625 114.4345  L 379.465625 54.395312  " style="fill:none;stroke:#ff7f0e;stroke-linecap:square;stroke-width:1.5;"/>
   </g>
   <g id="line2d_17">
    <path clip-path="url(#p2358ccc38f)" d="M 83.300796 278.232625  L 92.265625 275.501167  L 166.665625 231.356969  L 241.065625 158.578698  L 315.465625 50.007833  L 340.511383 -1  " style="fill:none;stroke:#2ca02c;stroke-linecap:square;stroke-width:1.5;"/>
   </g>
   <g id="patch_3">
    <path d="M 36.465625 253.3545  L 36.465625 35.9145  " style="fill:none;stroke:#000000;stroke-linecap:square;stroke-linejoin:miter;stroke-width:0.8;"/>
   </g>
   <g id="patch_4">
    <path d="M 371.265625 253.3545  L 371.265625 35.9145  " style="fill:none;stroke:#000000;stroke-linecap:square;stroke-linejoin:miter;stroke-width:0.8;"/>
   </g>
   <g id="patch_5">
    <path d="M 36.465625 253.3545  L 371.265625 253.3545  " style="fill:none;stroke:#000000;stroke-linecap:square;stroke-linejoin:miter;stroke-width:0.8;"/>
   </g>
   <g id="patch_6">
    <path d="M 36.465625 35.9145  L 371.265625 35.9145  " style="fill:none;stroke:#000000;stroke-linecap:square;stroke-linejoin:miter;stroke-width:0.8;"/>
   </g>
   <g id="text_15">
    <!-- Zoom into region with  -->
    <defs>
     <path d="M 8.6875 72.90625  L 56 72.90625  L 56 65.375  L 17.921875 8.296875  L 57.078125 8.296875  L 57.078125 0  L 7.625 0  L 7.625 7.515625  L 44.671875 64.59375  L 8.6875 64.59375  z " id="DejaVuSansMono-90"/>
     <path d="M 30.078125 48.390625  Q 23.25 48.390625 19.734375 43.0625  Q 16.21875 37.75 16.21875 27.296875  Q 16.21875 16.890625 19.734375 11.546875  Q 23.25 6.203125 30.078125 6.203125  Q 36.96875 6.203125 40.484375 11.546875  Q 44 16.890625 44 27.296875  Q 44 37.75 40.484375 43.0625  Q 36.96875 48.390625 30.078125 48.390625  z M 30.078125 56  Q 41.453125 56 47.484375 48.625  Q 53.515625 41.265625 53.515625 27.296875  Q 53.515625 13.28125 47.5 5.921875  Q 41.5 -1.421875 30.078125 -1.421875  Q 18.703125 -1.421875 12.6875 5.921875  Q 6.6875 13.28125 6.6875 27.296875  Q 6.6875 41.265625 12.6875 48.625  Q 18.703125 56 30.078125 56  z " id="DejaVuSansMono-111"/>
     <path d="M 33.015625 49.125  Q 34.671875 52.640625 37.234375 54.3125  Q 39.796875 56 43.40625 56  Q 50 56 52.703125 50.890625  Q 55.421875 45.796875 55.421875 31.6875  L 55.421875 0  L 47.21875 0  L 47.21875 31.296875  Q 47.21875 42.875 45.921875 45.671875  Q 44.625 48.484375 41.21875 48.484375  Q 37.3125 48.484375 35.859375 45.484375  Q 34.421875 42.484375 34.421875 31.296875  L 34.421875 0  L 26.21875 0  L 26.21875 31.296875  Q 26.21875 43.015625 24.828125 45.75  Q 23.4375 48.484375 19.828125 48.484375  Q 16.265625 48.484375 14.875 45.484375  Q 13.484375 42.484375 13.484375 31.296875  L 13.484375 0  L 5.328125 0  L 5.328125 54.6875  L 13.484375 54.6875  L 13.484375 50  Q 15.09375 52.9375 17.5 54.46875  Q 19.921875 56 23 56  Q 26.703125 56 29.171875 54.296875  Q 31.640625 52.59375 33.015625 49.125  z " id="DejaVuSansMono-109"/>
     <path id="DejaVuSansMono-32"/>
     <path d="M 12.5 54.6875  L 35.5 54.6875  L 35.5 6.984375  L 53.328125 6.984375  L 53.328125 0  L 8.6875 0  L 8.6875 6.984375  L 26.515625 6.984375  L 26.515625 47.703125  L 12.5 47.703125  z M 26.515625 75.984375  L 35.5 75.984375  L 35.5 64.59375  L 26.515625 64.59375  z " id="DejaVuSansMono-105"/>
     <path d="M 51.3125 33.890625  L 51.3125 0  L 42.28125 0  L 42.28125 33.890625  Q 42.28125 41.265625 39.6875 44.71875  Q 37.109375 48.1875 31.59375 48.1875  Q 25.296875 48.1875 21.890625 43.71875  Q 18.5 39.265625 18.5 30.90625  L 18.5 0  L 9.515625 0  L 9.515625 54.6875  L 18.5 54.6875  L 18.5 46.484375  Q 20.90625 51.171875 25 53.578125  Q 29.109375 56 34.71875 56  Q 43.0625 56 47.1875 50.5  Q 51.3125 45.015625 51.3125 33.890625  z " id="DejaVuSansMono-110"/>
     <path d="M 29.984375 70.21875  L 29.984375 54.6875  L 50.390625 54.6875  L 50.390625 47.703125  L 29.984375 47.703125  L 29.984375 18.015625  Q 29.984375 11.96875 32.28125 9.5625  Q 34.578125 7.171875 40.28125 7.171875  L 50.390625 7.171875  L 50.390625 0  L 39.40625 0  Q 29.296875 0 25.140625 4.046875  Q 21 8.109375 21 18.015625  L 21 47.703125  L 6.390625 47.703125  L 6.390625 54.6875  L 21 54.6875  L 21 70.21875  z " id="DejaVuSansMono-116"/>
     <path d="M 56.390625 43.40625  Q 53.515625 45.65625 50.53125 46.671875  Q 47.5625 47.703125 44 47.703125  Q 35.59375 47.703125 31.140625 42.421875  Q 26.703125 37.15625 26.703125 27.203125  L 26.703125 0  L 17.671875 0  L 17.671875 54.6875  L 26.703125 54.6875  L 26.703125 44  Q 28.953125 49.8125 33.609375 52.90625  Q 38.28125 56 44.671875 56  Q 48 56 50.875 55.171875  Q 53.765625 54.34375 56.390625 52.59375  z " id="DejaVuSansMono-114"/>
     <path d="M 54.296875 29.59375  L 54.296875 25.203125  L 15.375 25.203125  L 15.375 24.90625  Q 15.375 15.96875 20.03125 11.078125  Q 24.703125 6.203125 33.203125 6.203125  Q 37.5 6.203125 42.1875 7.5625  Q 46.875 8.9375 52.203125 11.71875  L 52.203125 2.78125  Q 47.078125 0.6875 42.3125 -0.359375  Q 37.546875 -1.421875 33.109375 -1.421875  Q 20.359375 -1.421875 13.171875 6.21875  Q 6 13.875 6 27.296875  Q 6 40.375 13.03125 48.1875  Q 20.0625 56 31.78125 56  Q 42.234375 56 48.265625 48.921875  Q 54.296875 41.84375 54.296875 29.59375  z M 45.3125 32.234375  Q 45.125 40.140625 41.578125 44.265625  Q 38.03125 48.390625 31.390625 48.390625  Q 24.90625 48.390625 20.703125 44.09375  Q 16.5 39.796875 15.71875 32.171875  z " id="DejaVuSansMono-101"/>
     <path d="M 41.890625 27.78125  Q 41.890625 37.890625 38.59375 43.140625  Q 35.296875 48.390625 29 48.390625  Q 22.40625 48.390625 18.9375 43.140625  Q 15.484375 37.890625 15.484375 27.78125  Q 15.484375 17.671875 18.96875 12.375  Q 22.46875 7.078125 29.109375 7.078125  Q 35.296875 7.078125 38.59375 12.390625  Q 41.890625 17.71875 41.890625 27.78125  z M 50.875 3.515625  Q 50.875 -8.796875 45.0625 -15.140625  Q 39.265625 -21.484375 27.984375 -21.484375  Q 24.265625 -21.484375 20.203125 -20.796875  Q 16.15625 -20.125 12.109375 -18.796875  L 12.109375 -9.90625  Q 16.890625 -12.15625 20.796875 -13.234375  Q 24.703125 -14.3125 27.984375 -14.3125  Q 35.25 -14.3125 38.5625 -10.34375  Q 41.890625 -6.390625 41.890625 2.203125  L 41.890625 2.59375  L 41.890625 8.6875  Q 39.75 4.109375 36.03125 1.859375  Q 32.328125 -0.390625 27 -0.390625  Q 17.4375 -0.390625 11.71875 7.265625  Q 6 14.9375 6 27.78125  Q 6 40.671875 11.71875 48.328125  Q 17.4375 56 27 56  Q 32.28125 56 35.9375 53.90625  Q 39.59375 51.8125 41.890625 47.40625  L 41.890625 54.5  L 50.875 54.5  z " id="DejaVuSansMono-103"/>
     <path d="M 0 54.6875  L 8.890625 54.6875  L 18.40625 10.5  L 26.21875 38.71875  L 33.890625 38.71875  L 41.796875 10.5  L 51.3125 54.6875  L 60.203125 54.6875  L 47.40625 0  L 38.8125 0  L 30.078125 29.984375  L 21.390625 0  L 12.796875 0  z " id="DejaVuSansMono-119"/>
     <path d="M 51.3125 33.890625  L 51.3125 0  L 42.28125 0  L 42.28125 33.890625  Q 42.28125 41.265625 39.6875 44.71875  Q 37.109375 48.1875 31.59375 48.1875  Q 25.296875 48.1875 21.890625 43.71875  Q 18.5 39.265625 18.5 30.90625  L 18.5 0  L 9.515625 0  L 9.515625 75.984375  L 18.5 75.984375  L 18.5 46.484375  Q 20.90625 51.171875 25 53.578125  Q 29.109375 56 34.71875 56  Q 43.0625 56 47.1875 50.5  Q 51.3125 45.015625 51.3125 33.890625  z " id="DejaVuSansMono-104"/>
    </defs>
    <g transform="translate(124.3975 16.318125)scale(0.12 -0.12)">
     <use xlink:href="#DejaVuSansMono-90"/>
     <use x="60.205078" xlink:href="#DejaVuSansMono-111"/>
     <use x="120.410156" xlink:href="#DejaVuSansMono-111"/>
     <use x="180.615234" xlink:href="#DejaVuSansMono-109"/>
     <use x="240.820312" xlink:href="#DejaVuSansMono-32"/>
     <use x="301.025391" xlink:href="#DejaVuSansMono-105"/>
     <use x="361.230469" xlink:href="#DejaVuSansMono-110"/>
     <use x="421.435547" xlink:href="#DejaVuSansMono-116"/>
     <use x="481.640625" xlink:href="#DejaVuSansMono-111"/>
     <use x="541.845703" xlink:href="#DejaVuSansMono-32"/>
     <use x="602.050781" xlink:href="#DejaVuSansMono-114"/>
     <use x="662.255859" xlink:href="#DejaVuSansMono-101"/>
     <use x="722.460938" xlink:href="#DejaVuSansMono-103"/>
     <use x="782.666016" xlink:href="#DejaVuSansMono-105"/>
     <use x="842.871094" xlink:href="#DejaVuSansMono-111"/>
     <use x="903.076172" xlink:href="#DejaVuSansMono-110"/>
     <use x="963.28125" xlink:href="#DejaVuSansMono-32"/>
     <use x="1023.486328" xlink:href="#DejaVuSansMono-119"/>
     <use x="1083.691406" xlink:href="#DejaVuSansMono-105"/>
     <use x="1143.896484" xlink:href="#DejaVuSansMono-116"/>
     <use x="1204.101562" xlink:href="#DejaVuSansMono-104"/>
     <use x="1264.306641" xlink:href="#DejaVuSansMono-32"/>
    </g>
    <!--  plt.axis([0.5, 1.5, 0.5, 2.5]) -->
    <defs>
     <path d="M 18.3125 6.890625  L 18.3125 -20.796875  L 9.28125 -20.796875  L 9.28125 54.6875  L 18.3125 54.6875  L 18.3125 47.703125  Q 20.5625 51.765625 24.296875 53.875  Q 28.03125 56 32.90625 56  Q 42.828125 56 48.46875 48.328125  Q 54.109375 40.671875 54.109375 27.09375  Q 54.109375 13.765625 48.4375 6.171875  Q 42.78125 -1.421875 32.90625 -1.421875  Q 27.9375 -1.421875 24.1875 0.703125  Q 20.453125 2.828125 18.3125 6.890625  z M 44.671875 27.296875  Q 44.671875 37.75 41.375 43.0625  Q 38.09375 48.390625 31.59375 48.390625  Q 25.046875 48.390625 21.671875 43.046875  Q 18.3125 37.703125 18.3125 27.296875  Q 18.3125 16.9375 21.671875 11.5625  Q 25.046875 6.203125 31.59375 6.203125  Q 38.09375 6.203125 41.375 11.515625  Q 44.671875 16.84375 44.671875 27.296875  z " id="DejaVuSansMono-112"/>
     <path d="M 31.203125 19.828125  Q 31.203125 13.765625 33.421875 10.6875  Q 35.640625 7.625 39.984375 7.625  L 50.484375 7.625  L 50.484375 0  L 39.109375 0  Q 31.0625 0 26.640625 5.171875  Q 22.21875 10.359375 22.21875 19.828125  L 22.21875 69.484375  L 7.8125 69.484375  L 7.8125 76.515625  L 31.203125 76.515625  z " id="DejaVuSansMono-108"/>
     <path d="M 23.875 14.890625  L 36.1875 14.890625  L 36.1875 0  L 23.875 0  z " id="DejaVuSansMono-46"/>
     <path d="M 34.28125 27.484375  L 31.296875 27.484375  Q 23.4375 27.484375 19.453125 24.71875  Q 15.484375 21.96875 15.484375 16.5  Q 15.484375 11.578125 18.453125 8.84375  Q 21.4375 6.109375 26.703125 6.109375  Q 34.125 6.109375 38.375 11.25  Q 42.625 16.40625 42.671875 25.484375  L 42.671875 27.484375  z M 51.703125 31.203125  L 51.703125 0  L 42.671875 0  L 42.671875 8.109375  Q 39.796875 3.21875 35.421875 0.890625  Q 31.0625 -1.421875 24.8125 -1.421875  Q 16.453125 -1.421875 11.46875 3.296875  Q 6.5 8.015625 6.5 15.921875  Q 6.5 25.046875 12.625 29.78125  Q 18.75 34.515625 30.609375 34.515625  L 42.671875 34.515625  L 42.671875 35.9375  Q 42.625 42.484375 39.34375 45.4375  Q 36.078125 48.390625 28.90625 48.390625  Q 24.3125 48.390625 19.625 47.0625  Q 14.9375 45.75 10.5 43.21875  L 10.5 52.203125  Q 15.484375 54.109375 20.046875 55.046875  Q 24.609375 56 28.90625 56  Q 35.6875 56 40.5 54  Q 45.3125 52 48.296875 48  Q 50.140625 45.5625 50.921875 41.96875  Q 51.703125 38.375 51.703125 31.203125  z " id="DejaVuSansMono-97"/>
     <path d="M 54.59375 54.6875  L 35.015625 28.515625  L 56.5 0  L 46.09375 0  L 30.078125 21.921875  L 14.109375 0  L 3.71875 0  L 25.203125 28.515625  L 5.609375 54.6875  L 15.578125 54.6875  L 30.078125 34.90625  L 44.484375 54.6875  z " id="DejaVuSansMono-120"/>
     <path d="M 47.515625 52.78125  L 47.515625 44  Q 43.65625 46.234375 39.75 47.359375  Q 35.84375 48.484375 31.78125 48.484375  Q 25.6875 48.484375 22.671875 46.5  Q 19.671875 44.53125 19.671875 40.484375  Q 19.671875 36.8125 21.921875 35  Q 24.171875 33.203125 33.109375 31.5  L 36.71875 30.8125  Q 43.40625 29.546875 46.84375 25.734375  Q 50.296875 21.921875 50.296875 15.828125  Q 50.296875 7.71875 44.53125 3.140625  Q 38.765625 -1.421875 28.515625 -1.421875  Q 24.46875 -1.421875 20.015625 -0.5625  Q 15.578125 0.296875 10.40625 2  L 10.40625 11.28125  Q 15.4375 8.6875 20.015625 7.390625  Q 24.609375 6.109375 28.71875 6.109375  Q 34.671875 6.109375 37.9375 8.515625  Q 41.21875 10.9375 41.21875 15.28125  Q 41.21875 21.53125 29.25 23.921875  L 28.859375 24.03125  L 25.484375 24.703125  Q 17.71875 26.21875 14.15625 29.8125  Q 10.59375 33.40625 10.59375 39.59375  Q 10.59375 47.46875 15.90625 51.734375  Q 21.234375 56 31.109375 56  Q 35.5 56 39.546875 55.1875  Q 43.609375 54.390625 47.515625 52.78125  z " id="DejaVuSansMono-115"/>
     <path d="M 43.21875 75.875  Q 36.71875 64.75 33.515625 53.6875  Q 30.328125 42.625 30.328125 31.390625  Q 30.328125 20.21875 33.515625 9.125  Q 36.71875 -1.953125 43.21875 -13.1875  L 35.40625 -13.1875  Q 28.03125 -1.5625 24.40625 9.4375  Q 20.796875 20.453125 20.796875 31.390625  Q 20.796875 42.28125 24.40625 53.3125  Q 28.03125 64.359375 35.40625 75.875  z " id="DejaVuSansMono-40"/>
     <path d="M 22.609375 75.984375  L 43.3125 75.984375  L 43.3125 69  L 31.59375 69  L 31.59375 -6.203125  L 43.3125 -6.203125  L 43.3125 -13.1875  L 22.609375 -13.1875  z " id="DejaVuSansMono-91"/>
     <path d="M 23.578125 36.625  Q 23.578125 39.3125 25.453125 41.265625  Q 27.34375 43.21875 29.984375 43.21875  Q 32.71875 43.21875 34.671875 41.265625  Q 36.625 39.3125 36.625 36.625  Q 36.625 33.890625 34.6875 31.984375  Q 32.765625 30.078125 29.984375 30.078125  Q 27.25 30.078125 25.40625 31.9375  Q 23.578125 33.796875 23.578125 36.625  z M 30.078125 66.40625  Q 23.1875 66.40625 19.796875 58.984375  Q 16.40625 51.5625 16.40625 36.375  Q 16.40625 21.234375 19.796875 13.8125  Q 23.1875 6.390625 30.078125 6.390625  Q 37.015625 6.390625 40.40625 13.8125  Q 43.796875 21.234375 43.796875 36.375  Q 43.796875 51.5625 40.40625 58.984375  Q 37.015625 66.40625 30.078125 66.40625  z M 30.078125 74.21875  Q 41.75 74.21875 47.734375 64.640625  Q 53.71875 55.078125 53.71875 36.375  Q 53.71875 17.71875 47.734375 8.140625  Q 41.75 -1.421875 30.078125 -1.421875  Q 18.40625 -1.421875 12.453125 8.140625  Q 6.5 17.71875 6.5 36.375  Q 6.5 55.078125 12.453125 64.640625  Q 18.40625 74.21875 30.078125 74.21875  z " id="DejaVuSansMono-48"/>
     <path d="M 10.109375 72.90625  L 47.015625 72.90625  L 47.015625 64.59375  L 19.09375 64.59375  L 19.09375 46.6875  Q 21.1875 47.46875 23.3125 47.828125  Q 25.4375 48.1875 27.59375 48.1875  Q 38.921875 48.1875 45.5625 41.5  Q 52.203125 34.8125 52.203125 23.390625  Q 52.203125 11.859375 45.234375 5.21875  Q 38.28125 -1.421875 26.21875 -1.421875  Q 20.40625 -1.421875 15.59375 -0.640625  Q 10.796875 0.140625 6.984375 1.703125  L 6.984375 11.71875  Q 11.46875 9.28125 16.015625 8.078125  Q 20.5625 6.890625 25.296875 6.890625  Q 33.453125 6.890625 37.859375 11.1875  Q 42.28125 15.484375 42.28125 23.390625  Q 42.28125 31.203125 37.71875 35.546875  Q 33.15625 39.890625 25 39.890625  Q 21.046875 39.890625 17.28125 38.984375  Q 13.53125 38.09375 10.109375 36.28125  z " id="DejaVuSansMono-53"/>
     <path d="M 24.515625 14.796875  L 36.8125 14.796875  L 36.8125 4.6875  L 27.203125 -14.015625  L 19.671875 -14.015625  L 24.515625 4.6875  z " id="DejaVuSansMono-44"/>
     <path d="M 13.1875 8.296875  L 28.515625 8.296875  L 28.515625 64.015625  L 12.015625 60.296875  L 12.015625 69.28125  L 28.421875 72.90625  L 38.28125 72.90625  L 38.28125 8.296875  L 53.421875 8.296875  L 53.421875 0  L 13.1875 0  z " id="DejaVuSansMono-49"/>
     <path d="M 18.21875 8.296875  L 51.703125 8.296875  L 51.703125 0  L 7.421875 0  L 7.421875 8.296875  Q 16.546875 17.921875 23.375 25.296875  Q 30.21875 32.671875 32.8125 35.6875  Q 37.703125 41.65625 39.40625 45.34375  Q 41.109375 49.03125 41.109375 52.875  Q 41.109375 58.984375 37.515625 62.453125  Q 33.9375 65.921875 27.6875 65.921875  Q 23.25 65.921875 18.359375 64.3125  Q 13.484375 62.703125 8.015625 59.421875  L 8.015625 69.390625  Q 13.03125 71.78125 17.890625 73  Q 22.75 74.21875 27.484375 74.21875  Q 38.1875 74.21875 44.703125 68.53125  Q 51.21875 62.84375 51.21875 53.609375  Q 51.21875 48.921875 49.046875 44.234375  Q 46.875 39.546875 42 33.890625  Q 39.265625 30.71875 34.0625 25.09375  Q 28.859375 19.484375 18.21875 8.296875  z " id="DejaVuSansMono-50"/>
     <path d="M 37.59375 75.984375  L 37.59375 -13.1875  L 16.890625 -13.1875  L 16.890625 -6.203125  L 28.609375 -6.203125  L 28.609375 69  L 16.890625 69  L 16.890625 75.984375  z " id="DejaVuSansMono-93"/>
     <path d="M 17 75.875  L 24.8125 75.875  Q 32.171875 64.359375 35.78125 53.3125  Q 39.40625 42.28125 39.40625 31.390625  Q 39.40625 20.40625 35.78125 9.375  Q 32.171875 -1.65625 24.8125 -13.1875  L 17 -13.1875  Q 23.484375 -1.859375 26.6875 9.21875  Q 29.890625 20.3125 29.890625 31.390625  Q 29.890625 42.53125 26.6875 53.609375  Q 23.484375 64.703125 17 75.875  z " id="DejaVuSansMono-41"/>
    </defs>
    <g transform="translate(91.887813 29.9145)scale(0.12 -0.12)">
     <use xlink:href="#DejaVuSansMono-32"/>
     <use x="60.205078" xlink:href="#DejaVuSansMono-112"/>
     <use x="120.410156" xlink:href="#DejaVuSansMono-108"/>
     <use x="180.615234" xlink:href="#DejaVuSansMono-116"/>
     <use x="240.820312" xlink:href="#DejaVuSansMono-46"/>
     <use x="301.025391" xlink:href="#DejaVuSansMono-97"/>
     <use x="361.230469" xlink:href="#DejaVuSansMono-120"/>
     <use x="421.435547" xlink:href="#DejaVuSansMono-105"/>
     <use x="481.640625" xlink:href="#DejaVuSansMono-115"/>
     <use x="541.845703" xlink:href="#DejaVuSansMono-40"/>
     <use x="602.050781" xlink:href="#DejaVuSansMono-91"/>
     <use x="662.255859" xlink:href="#DejaVuSansMono-48"/>
     <use x="722.460938" xlink:href="#DejaVuSansMono-46"/>
     <use x="782.666016" xlink:href="#DejaVuSansMono-53"/>
     <use x="842.871094" xlink:href="#DejaVuSansMono-44"/>
     <use x="903.076172" xlink:href="#DejaVuSansMono-32"/>
     <use x="963.28125" xlink:href="#DejaVuSansMono-49"/>
     <use x="1023.486328" xlink:href="#DejaVuSansMono-46"/>
     <use x="1083.691406" xlink:href="#DejaVuSansMono-53"/>
     <use x="1143.896484" xlink:href="#DejaVuSansMono-44"/>
     <use x="1204.101562" xlink:href="#DejaVuSansMono-32"/>
     <use x="1264.306641" xlink:href="#DejaVuSansMono-48"/>
     <use x="1324.511719" xlink:href="#DejaVuSansMono-46"/>
     <use x="1384.716797" xlink:href="#DejaVuSansMono-53"/>
     <use x="1444.921875" xlink:href="#DejaVuSansMono-44"/>
     <use x="1505.126953" xlink:href="#DejaVuSansMono-32"/>
     <use x="1565.332031" xlink:href="#DejaVuSansMono-50"/>
     <use x="1625.537109" xlink:href="#DejaVuSansMono-46"/>
     <use x="1685.742188" xlink:href="#DejaVuSansMono-53"/>
     <use x="1745.947266" xlink:href="#DejaVuSansMono-93"/>
     <use x="1806.152344" xlink:href="#DejaVuSansMono-41"/>
    </g>
   </g>
  </g>
 </g>
 <defs>
  <clipPath id="p2358ccc38f">
   <rect height="217.44" width="334.8" x="36.465625" y="35.9145"/>
  </clipPath>
 </defs>
</svg>