<svg viewBox="172 -25 81 43" xmlns="http://www.w3.org/2000/svg" xmlns:xlink="http://www.w3.org/1999/xlink">
  <g>
    <polygon style="fill: #800080" points="172,-4 182,-14 192,-14 192,-4 182,6 "/>
    <polygon style="fill: none; fill-opacity:0; stroke-width: 2.35099e-37; stroke: #00ff00" points="172,-4 182,-14 192,-14 192,-4 182,6 "/>
  </g>
  <g>
    <polygon style="fill: #00ff00" points="232,-4 242,-14 252,-14 252,-4 242,6 "/>
    <polygon style="fill: none; fill-opacity:0; stroke-width: 2.35099e-37; stroke: #00ff00" points="232,-4 242,-14 252,-14 252,-4 242,6 "/>
  </g>
  <g>
    <polygon style="fill: #ff0000" points="200,-4 210,-14 220,-14 220,-4 210,6 "/>
    <polygon style="fill: none; fill-opacity:0; stroke-width: 2.35099e-37; stroke: #ff0000" points="200,-4 210,-14 220,-14 220,-4 210,6 "/>
  </g>
  <g>
    <g>
      <ellipse style="fill: none; fill-opacity:0; stroke-width: 2; stroke: #000000" cx="213" cy="-3" rx="17" ry="17"/>
      <ellipse style="fill: none; fill-opacity:0; stroke-width: 2; stroke: #000000" cx="213" cy="-3" rx="17" ry="17"/>
    </g>
    <g>
      <ellipse style="fill: none; fill-opacity:0; stroke-width: 2; stroke: #000000" cx="213" cy="-3" rx="10" ry="10"/>
      <ellipse style="fill: none; fill-opacity:0; stroke-width: 2; stroke: #000000" cx="213" cy="-3" rx="10" ry="10"/>
    </g>
    <line style="fill: none; fill-opacity:0; stroke-width: 2; stroke: #000000" x1="192" y1="-3" x2="207" y2="-3"/>
    <line style="fill: none; fill-opacity:0; stroke-width: 2; stroke: #000000" x1="219" y1="-3" x2="233" y2="-3"/>
    <line style="fill: none; fill-opacity:0; stroke-width: 2; stroke: #000000" x1="213" y1="-10" x2="213" y2="-24"/>
    <line style="fill: none; fill-opacity:0; stroke-width: 2; stroke: #000000" x1="213" y1="17" x2="213" y2="4"/>
  </g>
</svg>
