<?xml version="1.0" encoding="UTF-8" standalone="no"?>
<!DOCTYPE svg PUBLIC "-//W3C//DTD SVG 1.0//EN" "http://www.w3.org/TR/2001/PR-SVG-20010719/DTD/svg10.dtd">
<svg width="32cm" height="43cm" viewBox="261 0 626 841" xmlns="http://www.w3.org/2000/svg" xmlns:xlink="http://www.w3.org/1999/xlink">
  <g>
    <path style="fill: none; fill-opacity:0; stroke-width: 10; stroke: #0000ff" d="M 389,306 A 858.448,858.448 0 0 0 668.064,544.573"/>
    <polygon style="fill: #0000ff" points="665.718,549.137 676.898,549.256 670.286,540.241 "/>
    <polygon style="fill: none; fill-opacity:0; stroke-width: 10; stroke: #0000ff" points="665.718,549.137 676.898,549.256 670.286,540.241 "/>
  </g>
  <g>
    <g>
      <ellipse style="fill: #ffffff" cx="714.667" cy="563.034" rx="36.0673" ry="30.0336"/>
      <ellipse style="fill: none; fill-opacity:0; stroke-width: 2; stroke: #000000" cx="714.667" cy="563.034" rx="36.0673" ry="30.0336"/>
      <text font-size="12.7998" style="fill: #000000;text-anchor:middle;font-family:sans-serif;font-style:normal;font-weight:normal" x="714.667" y="566.915">
        <tspan x="714.667" y="566.915">DID</tspan>
      </text>
    </g>
    <g>
      <rect style="fill: #ffffff" x="716.61" y="583.067" width="88.25" height="54"/>
      <rect style="fill: none; fill-opacity:0; stroke-width: 2; stroke: #000000" x="716.61" y="583.067" width="88.25" height="54"/>
      <text font-size="12.7998" style="fill: #000000;text-anchor:middle;font-family:sans-serif;font-style:normal;font-weight:normal" x="760.735" y="605.948">
        <tspan x="760.735" y="605.948">DID</tspan>
        <tspan x="760.735" y="621.948">Document</tspan>
      </text>
    </g>
  </g>
  <g>
    <path style="fill: none; fill-opacity:0; stroke-width: 10; stroke: #0000ff" d="M 717.792,162.595 A 276.844,276.844 0 0 0 393,254"/>
    <polygon style="fill: #0000ff" points="715.835,166.752 727.011,166.433 720.05,157.684 "/>
    <polygon style="fill: none; fill-opacity:0; stroke-width: 10; stroke: #0000ff" points="715.835,166.752 727.011,166.433 720.05,157.684 "/>
  </g>
  <g>
    <path style="fill: none; fill-opacity:0; stroke-width: 10; stroke: #0000ff" d="M 740.171,541.797 A 593.76,593.76 0 0 0 774.196,225.307"/>
    <polygon style="fill: #0000ff" points="779.293,224.335 772.499,215.456 769.472,226.218 "/>
    <polygon style="fill: none; fill-opacity:0; stroke-width: 10; stroke: #0000ff" points="779.293,224.335 772.499,215.456 769.472,226.218 "/>
  </g>
  <g>
    <path style="fill: none; fill-opacity:0; stroke-width: 10; stroke: #0000ff" d="M 401.551,529.796 A 5833.9,5833.9 0 0 0 739.364,201.271"/>
    <polygon style="fill: #0000ff" points="398.235,526.08 394.102,536.468 404.892,533.541 "/>
    <polygon style="fill: none; fill-opacity:0; stroke-width: 10; stroke: #0000ff" points="398.235,526.08 394.102,536.468 404.892,533.541 "/>
  </g>
  <g>
    <g>
      <rect style="fill: #ffffff" x="398" y="174" width="107" height="64"/>
      <rect style="fill: none; fill-opacity:0; stroke-width: 2; stroke: #0000ff" x="398" y="174" width="107" height="64"/>
    </g>
    <text font-size="12.7998" style="fill: #0000ff;text-anchor:middle;font-family:sans-serif;font-style:normal;font-weight:normal" x="451.5" y="194.431">
      <tspan x="451.5" y="194.431">Verifiable</tspan>
      <tspan x="451.5" y="210.431">Crendential</tspan>
      <tspan x="451.5" y="226.431">(Claim "proof")</tspan>
    </text>
  </g>
  <g>
    <g>
      <rect style="fill: #ffffff" x="609.8" y="227" width="107" height="64"/>
      <rect style="fill: none; fill-opacity:0; stroke-width: 2; stroke: #0000ff" x="609.8" y="227" width="107" height="64"/>
    </g>
    <text font-size="12.7998" style="fill: #0000ff;text-anchor:middle;font-family:sans-serif;font-style:normal;font-weight:normal" x="663.3" y="247.431">
      <tspan x="663.3" y="247.431">Verifiable</tspan>
      <tspan x="663.3" y="263.431">Crendential</tspan>
      <tspan x="663.3" y="279.431">(Claim "proof")</tspan>
    </text>
  </g>
  <g>
    <g>
      <rect style="fill: #ffffff" x="708.6" y="446" width="107" height="64"/>
      <rect style="fill: none; fill-opacity:0; stroke-width: 2; stroke: #0000ff" x="708.6" y="446" width="107" height="64"/>
    </g>
    <text font-size="12.7998" style="fill: #0000ff;text-anchor:middle;font-family:sans-serif;font-style:normal;font-weight:normal" x="762.1" y="466.431">
      <tspan x="762.1" y="466.431">Verifiable</tspan>
      <tspan x="762.1" y="482.431">Crendential</tspan>
      <tspan x="762.1" y="498.431">(Claim "proof")</tspan>
    </text>
  </g>
  <g>
    <g>
      <ellipse style="fill: #ffffff" cx="363.933" cy="279.966" rx="36.0673" ry="30.0336"/>
      <ellipse style="fill: none; fill-opacity:0; stroke-width: 2; stroke: #000000" cx="363.933" cy="279.966" rx="36.0673" ry="30.0336"/>
      <text font-size="12.7998" style="fill: #000000;text-anchor:middle;font-family:sans-serif;font-style:normal;font-weight:normal" x="363.933" y="283.847">
        <tspan x="363.933" y="283.847">DID</tspan>
      </text>
    </g>
    <g>
      <rect style="fill: #ffffff" x="266.875" y="294" width="88.25" height="54"/>
      <rect style="fill: none; fill-opacity:0; stroke-width: 2; stroke: #000000" x="266.875" y="294" width="88.25" height="54"/>
      <text font-size="12.7998" style="fill: #000000;text-anchor:middle;font-family:sans-serif;font-style:normal;font-weight:normal" x="311" y="316.881">
        <tspan x="311" y="316.881">DID</tspan>
        <tspan x="311" y="332.881">Document</tspan>
      </text>
    </g>
  </g>
  <g>
    <g>
      <rect style="fill: #ffffff" x="385.8" y="316" width="107" height="64"/>
      <rect style="fill: none; fill-opacity:0; stroke-width: 2; stroke: #0000ff" x="385.8" y="316" width="107" height="64"/>
    </g>
    <text font-size="12.7998" style="fill: #0000ff;text-anchor:middle;font-family:sans-serif;font-style:normal;font-weight:normal" x="439.3" y="336.431">
      <tspan x="439.3" y="336.431">Verifiable</tspan>
      <tspan x="439.3" y="352.431">Crendential</tspan>
      <tspan x="439.3" y="368.431">(Claim "proof")</tspan>
    </text>
  </g>
  <text font-size="12.7998" style="fill: #000000;text-anchor:start;font-family:sans-serif;font-style:normal;font-weight:normal" x="275" y="64">
    <tspan x="275" y="64">REFs:</tspan>
    <tspan x="275" y="80">- https://w3c.github.io/did-core/</tspan>
    <tspan x="275" y="96">- https://www.w3.org/TR/vc-data-model/</tspan>
    <tspan x="275" y="112">- https://w3c.github.io/vc-use-cases/</tspan>
  </text>
  <g>
    <g>
      <ellipse style="fill: #ffffff" cx="764.867" cy="180.034" rx="36.0673" ry="30.0336"/>
      <ellipse style="fill: none; fill-opacity:0; stroke-width: 2; stroke: #000000" cx="764.867" cy="180.034" rx="36.0673" ry="30.0336"/>
      <text font-size="12.7998" style="fill: #000000;text-anchor:middle;font-family:sans-serif;font-style:normal;font-weight:normal" x="764.867" y="183.915">
        <tspan x="764.867" y="183.915">DID</tspan>
      </text>
    </g>
    <g>
      <rect style="fill: #ffffff" x="781.81" y="121.067" width="88.25" height="54"/>
      <rect style="fill: none; fill-opacity:0; stroke-width: 2; stroke: #000000" x="781.81" y="121.067" width="88.25" height="54"/>
      <text font-size="12.7998" style="fill: #000000;text-anchor:middle;font-family:sans-serif;font-style:normal;font-weight:normal" x="825.935" y="143.948">
        <tspan x="825.935" y="143.948">DID</tspan>
        <tspan x="825.935" y="159.948">Document</tspan>
      </text>
    </g>
  </g>
  <g>
    <g>
      <ellipse style="fill: #ffffff" cx="364.867" cy="561.034" rx="36.0673" ry="30.0336"/>
      <ellipse style="fill: none; fill-opacity:0; stroke-width: 2; stroke: #000000" cx="364.867" cy="561.034" rx="36.0673" ry="30.0336"/>
      <text font-size="12.7998" style="fill: #000000;text-anchor:middle;font-family:sans-serif;font-style:normal;font-weight:normal" x="364.867" y="564.915">
        <tspan x="364.867" y="564.915">DID</tspan>
      </text>
    </g>
    <g>
      <rect style="fill: #ffffff" x="262.81" y="575.067" width="88.25" height="54"/>
      <rect style="fill: none; fill-opacity:0; stroke-width: 2; stroke: #000000" x="262.81" y="575.067" width="88.25" height="54"/>
      <text font-size="12.7998" style="fill: #000000;text-anchor:middle;font-family:sans-serif;font-style:normal;font-weight:normal" x="306.935" y="597.948">
        <tspan x="306.935" y="597.948">DID</tspan>
        <tspan x="306.935" y="613.948">Document</tspan>
      </text>
    </g>
  </g>
  <text font-size="12.7998" style="fill: #000000;text-anchor:start;font-family:sans-serif;font-style:normal;font-weight:normal" x="343" y="678">
    <tspan x="343" y="678">Identity of a subject ("DID") will be the sum of all the claims "pointing" to the DID.</tspan>
    <tspan x="343" y="694"></tspan>
    <tspan x="343" y="710">Verifiable credentials will contain all the needed information to allow a DID owner to</tspan>
    <tspan x="343" y="726">retrieve all the information.</tspan>
    <tspan x="343" y="742">- This information can be public, un-encrypted on the Verifiable Crendential, in which</tspan>
    <tspan x="343" y="758">  case it can be interpreted as  a claim from pointing node to pointed DID.</tspan>
    <tspan x="343" y="774">  Ussually the Verifiable Crendital will not contain the un-encrypted information but: </tspan>
    <tspan x="343" y="790">  -  some cryptographic material (public key)</tspan>
    <tspan x="343" y="806">  -  a suite of cryptographic methods supported by the cryptographic material, and </tspan>
    <tspan x="343" y="822">  - an external URL pointing to the service that can provide the Claim payload</tspan>
    <tspan x="343" y="838">    (using the associated private key owned by the (pointed-to) DID.</tspan>
  </text>
  <g>
    <ellipse style="fill: none; fill-opacity:0; stroke-width: 2; stroke: #000000" cx="407.433" cy="704.966" rx="76.1346" ry="19.0336"/>
    <text font-size="12.7998" style="fill: #000000;text-anchor:middle;font-family:sans-serif;font-style:normal;font-weight:normal" x="407.433" y="708.847">
      <tspan x="407.433" y="708.847"></tspan>
    </text>
  </g>
  <g>
    <path style="fill: none; fill-opacity:0; stroke-width: 2; stroke: #000000" d="M 407.433,685.933 A 544.851,544.851 0 0 0 438.726,399.413"/>
    <polyline style="fill: none; fill-opacity:0; stroke-width: 2; stroke: #000000" points="450.24,413.457 438.372,397.205 432.491,416.451 "/>
  </g>
  <ellipse style="fill: none; fill-opacity:0; stroke-width: 2; stroke-dasharray: 4; stroke: #000000" cx="451.5" cy="205" rx="78.5" ry="51"/>
  <ellipse style="fill: none; fill-opacity:0; stroke-width: 2; stroke-dasharray: 4; stroke: #000000" cx="761.1" cy="476" rx="78.5" ry="51"/>
  <ellipse style="fill: none; fill-opacity:0; stroke-width: 2; stroke: #000000" cx="659.3" cy="673" rx="72.7" ry="25"/>
  <path style="fill: none; fill-opacity:0; stroke-width: 2; stroke-dasharray: 4; stroke: #000000" d="M 507.008,241.062 A 1189.94,1189.94 0 0 0 659.3,648"/>
  <path style="fill: none; fill-opacity:0; stroke-width: 2; stroke-dasharray: 4; stroke: #000000" d="M 682.6,476 A 323.934,323.934 0 0 0 659.3,648"/>
  <ellipse style="fill: none; fill-opacity:0; stroke-width: 2; stroke: #000000" cx="853.319" cy="674.181" rx="16.7098" ry="10.748"/>
  <text font-size="24.8352" style="fill: #000000;text-anchor:middle;font-family:sans-serif;font-style:normal;font-weight:normal" x="400.507" y="23.704">
    <tspan x="400.507" y="23.704">W3C Identity Model</tspan>
  </text>
</svg>
